<svg xmlns="http://www.w3.org/2000/svg" xmlns:xlink="http://www.w3.org/1999/xlink" width="280" height="280" viewBox="0 0 280 280">
  <defs>
    <filter id="Path_1" x="54.81" y="53.41" width="164.985" height="178.96" filterUnits="userSpaceOnUse">
      <feOffset dy="3" input="SourceAlpha"/>
      <feGaussianBlur stdDeviation="3" result="blur"/>
      <feFlood flood-opacity="0.2"/>
      <feComposite operator="in" in2="blur"/>
      <feComposite in="SourceGraphic"/>
    </filter>
  </defs>
  <g id="Group_1" data-name="Group 1" transform="translate(-429 -212)">
    <g id="Rectangle_1" data-name="Rectangle 1" transform="translate(429 212)" fill="#e02a2a" stroke="#707070" stroke-width="1">
      <path d="M60,0H250a30,30,0,0,1,30,30V220a60,60,0,0,1-60,60H30A30,30,0,0,1,0,250V60A60,60,0,0,1,60,0Z" stroke="none"/>
      <path d="M60,.5H250A29.5,29.5,0,0,1,279.5,30V220A59.5,59.5,0,0,1,220,279.5H30A29.5,29.5,0,0,1,.5,250V60A59.5,59.5,0,0,1,60,.5Z" fill="none"/>
    </g>
    <g transform="matrix(1, 0, 0, 1, 429, 212)" filter="url(#Path_1)">
      <path id="Path_1-2" data-name="Path 1" d="M153.295-10.75A121.419,121.419,0,0,1,122.335.43,157.225,157.225,0,0,1,89.44,3.87a93.779,93.779,0,0,1-32.9-5.59A75.3,75.3,0,0,1,30.53-17.738,72.618,72.618,0,0,1,13.438-43,85.971,85.971,0,0,1,7.31-76.11a85.971,85.971,0,0,1,6.127-33.11A72.618,72.618,0,0,1,30.53-134.482,75.3,75.3,0,0,1,56.545-150.5a93.779,93.779,0,0,1,32.9-5.59,121.746,121.746,0,0,1,33.647,4.408,65.879,65.879,0,0,1,26.983,15.158l-23.65,25.8a47.121,47.121,0,0,0-15.48-10.75q-8.6-3.655-21.5-3.655a49.815,49.815,0,0,0-19.457,3.655A43.668,43.668,0,0,0,55.04-111.262a44.858,44.858,0,0,0-9.568,15.588A56.08,56.08,0,0,0,42.14-76.11a55.829,55.829,0,0,0,3.333,19.673,45.059,45.059,0,0,0,9.568,15.48A43.668,43.668,0,0,0,69.983-30.745,49.815,49.815,0,0,0,89.44-27.09a64.107,64.107,0,0,0,18.92-2.472,71.4,71.4,0,0,0,12.685-5.052V-59.34H93.74V-90.3h59.555Z" transform="translate(57 216)" fill="#676767" stroke="#707070" stroke-width="1"/>
    </g>
  </g>
</svg>
