<svg xmlns="http://www.w3.org/2000/svg" xmlns:xlink="http://www.w3.org/1999/xlink" width="78.44" height="42.301" viewBox="0 0 78.44 42.301">
  <defs>
    <linearGradient id="linear-gradient" x1="192.025" y1="270.601" x2="192.603" y2="285.603" gradientUnits="objectBoundingBox">
      <stop offset="0" stop-color="#693594"/>
      <stop offset="0.106" stop-color="#892e83"/>
      <stop offset="0.265" stop-color="#b4246c"/>
      <stop offset="0.409" stop-color="#d31d5c"/>
      <stop offset="0.531" stop-color="#e61952"/>
      <stop offset="0.616" stop-color="#ed174e"/>
      <stop offset="1" stop-color="#f9e57e"/>
    </linearGradient>
    <linearGradient id="linear-gradient-2" x1="197.196" y1="275.723" x2="197.672" y2="288.061" xlink:href="#linear-gradient"/>
    <linearGradient id="linear-gradient-3" x1="202.031" y1="271.819" x2="202.537" y2="284.981" xlink:href="#linear-gradient"/>
    <linearGradient id="linear-gradient-4" x1="206.451" y1="275.366" x2="206.926" y2="287.705" xlink:href="#linear-gradient"/>
    <linearGradient id="linear-gradient-5" x1="211.888" y1="272.566" x2="212.374" y2="285.195" xlink:href="#linear-gradient"/>
    <linearGradient id="linear-gradient-6" x1="215.713" y1="275.01" x2="216.188" y2="287.348" xlink:href="#linear-gradient"/>
    <linearGradient id="linear-gradient-7" x1="220.518" y1="273.337" x2="220.93" y2="284.042" xlink:href="#linear-gradient"/>
    <linearGradient id="linear-gradient-8" x1="225.33" y1="274.639" x2="225.805" y2="286.978" xlink:href="#linear-gradient"/>
    <linearGradient id="linear-gradient-9" x1="229.643" y1="272.657" x2="229.77" y2="278.408" gradientUnits="objectBoundingBox">
      <stop offset="0" stop-color="#f9e57e"/>
      <stop offset="0.106" stop-color="#f7db7d"/>
      <stop offset="0.349" stop-color="#f3c87a"/>
      <stop offset="0.52" stop-color="#f2c179"/>
      <stop offset="0.71" stop-color="#f5d17b"/>
      <stop offset="1" stop-color="#f9e57e"/>
    </linearGradient>
    <linearGradient id="linear-gradient-10" x1="234.718" y1="269.314" x2="232.851" y2="281.797" xlink:href="#linear-gradient-9"/>
    <linearGradient id="linear-gradient-11" x1="237.154" y1="272.491" x2="237.281" y2="278.243" xlink:href="#linear-gradient-9"/>
    <linearGradient id="linear-gradient-12" x1="242.292" y1="270.446" x2="240.425" y2="282.93" xlink:href="#linear-gradient-9"/>
    <linearGradient id="linear-gradient-13" x1="243.782" y1="272.344" x2="243.909" y2="278.096" xlink:href="#linear-gradient-9"/>
    <linearGradient id="linear-gradient-14" x1="245.59" y1="272.305" x2="245.717" y2="278.057" xlink:href="#linear-gradient-9"/>
    <linearGradient id="linear-gradient-15" x1="247.599" y1="276.177" x2="247.68" y2="279.878" xlink:href="#linear-gradient-9"/>
    <linearGradient id="linear-gradient-16" x1="247.638" y1="272.259" x2="247.765" y2="278.011" xlink:href="#linear-gradient-9"/>
    <linearGradient id="linear-gradient-17" x1="193.106" y1="274.599" x2="198.421" y2="257.035" xlink:href="#linear-gradient"/>
    <linearGradient id="linear-gradient-18" x1="200.916" y1="266.268" x2="210.45" y2="252.292" xlink:href="#linear-gradient"/>
    <linearGradient id="linear-gradient-19" x1="201.77" y1="277.22" x2="207.085" y2="259.656" xlink:href="#linear-gradient"/>
    <linearGradient id="linear-gradient-20" x1="208.376" y1="271.357" x2="217.911" y2="257.382" xlink:href="#linear-gradient"/>
    <linearGradient id="linear-gradient-21" x1="211.411" y1="280.138" x2="216.727" y2="262.574" xlink:href="#linear-gradient"/>
    <linearGradient id="linear-gradient-22" x1="216.016" y1="276.57" x2="225.551" y2="262.594" xlink:href="#linear-gradient"/>
    <linearGradient id="linear-gradient-23" x1="221.67" y1="283.243" x2="226.985" y2="265.679" xlink:href="#linear-gradient"/>
    <linearGradient id="linear-gradient-24" x1="233.461" y1="272.572" x2="233.588" y2="278.324" xlink:href="#linear-gradient-9"/>
    <linearGradient id="linear-gradient-25" x1="230.627" y1="268.702" x2="228.76" y2="281.185" xlink:href="#linear-gradient-9"/>
    <linearGradient id="linear-gradient-26" x1="237.814" y1="269.777" x2="235.947" y2="282.26" xlink:href="#linear-gradient-9"/>
    <linearGradient id="linear-gradient-27" x1="244.827" y1="270.826" x2="242.96" y2="283.309" xlink:href="#linear-gradient-9"/>
    <linearGradient id="linear-gradient-28" x1="245.762" y1="272.301" x2="245.889" y2="278.053" xlink:href="#linear-gradient-9"/>
    <linearGradient id="linear-gradient-29" x1="241.086" y1="272.404" x2="241.213" y2="278.156" xlink:href="#linear-gradient-9"/>
    <linearGradient id="linear-gradient-30" x1="111.961" y1="256.572" x2="107.78" y2="268.914" gradientUnits="objectBoundingBox">
      <stop offset="0" stop-color="#7e3895"/>
      <stop offset="0.071" stop-color="#9b2f82"/>
      <stop offset="0.16" stop-color="#b9266f"/>
      <stop offset="0.254" stop-color="#d02061"/>
      <stop offset="0.355" stop-color="#e01b56"/>
      <stop offset="0.468" stop-color="#ea1850"/>
      <stop offset="0.616" stop-color="#ed174e"/>
      <stop offset="1" stop-color="#f9e57e"/>
    </linearGradient>
    <linearGradient id="linear-gradient-31" x1="115.159" y1="257.656" x2="110.978" y2="269.998" xlink:href="#linear-gradient-30"/>
    <linearGradient id="linear-gradient-32" x1="118.927" y1="258.932" x2="114.746" y2="271.274" xlink:href="#linear-gradient-30"/>
    <linearGradient id="linear-gradient-33" x1="123.051" y1="260.329" x2="118.869" y2="272.671" xlink:href="#linear-gradient-30"/>
    <linearGradient id="linear-gradient-34" x1="125.904" y1="258.709" x2="123.17" y2="274.284" gradientUnits="objectBoundingBox">
      <stop offset="0" stop-color="#7e3895"/>
      <stop offset="0.096" stop-color="#863893"/>
      <stop offset="0.247" stop-color="#9d398f"/>
      <stop offset="0.433" stop-color="#c13a88"/>
      <stop offset="0.616" stop-color="#ec3c80"/>
      <stop offset="1" stop-color="#f9e57e"/>
    </linearGradient>
    <linearGradient id="linear-gradient-35" x1="128.671" y1="265.825" x2="127.281" y2="275.371" xlink:href="#linear-gradient-30"/>
    <linearGradient id="linear-gradient-36" x1="132.835" y1="266.431" x2="131.446" y2="275.977" xlink:href="#linear-gradient-30"/>
    <linearGradient id="linear-gradient-37" x1="136.639" y1="265.955" x2="134.454" y2="287.031" xlink:href="#linear-gradient-30"/>
    <linearGradient id="linear-gradient-38" x1="142.131" y1="267.784" x2="140.741" y2="277.33" xlink:href="#linear-gradient-30"/>
    <linearGradient id="linear-gradient-39" x1="146.41" y1="266.969" x2="144.225" y2="288.044" xlink:href="#linear-gradient-30"/>
    <linearGradient id="linear-gradient-40" x1="150.284" y1="267.13" x2="149.528" y2="278.07" xlink:href="#linear-gradient-30"/>
    <linearGradient id="linear-gradient-41" x1="154.423" y1="269.241" x2="153.503" y2="283.676" xlink:href="#linear-gradient-30"/>
    <linearGradient id="linear-gradient-42" x1="158.341" y1="269.491" x2="157.421" y2="283.926" xlink:href="#linear-gradient-30"/>
    <linearGradient id="linear-gradient-43" x1="162.351" y1="268.621" x2="160.166" y2="289.697" xlink:href="#linear-gradient-30"/>
    <linearGradient id="linear-gradient-44" x1="167.506" y1="269.156" x2="165.321" y2="290.231" xlink:href="#linear-gradient-30"/>
    <linearGradient id="linear-gradient-45" x1="171.037" y1="271.992" x2="169.647" y2="281.538" xlink:href="#linear-gradient-30"/>
    <linearGradient id="linear-gradient-46" x1="175.751" y1="270.011" x2="173.566" y2="291.086" xlink:href="#linear-gradient-30"/>
    <linearGradient id="linear-gradient-47" x1="179.441" y1="273.215" x2="178.052" y2="282.762" xlink:href="#linear-gradient-30"/>
    <linearGradient id="linear-gradient-48" x1="184.338" y1="270.901" x2="182.153" y2="291.977" xlink:href="#linear-gradient-30"/>
    <linearGradient id="linear-gradient-49" x1="188.511" y1="274.536" x2="187.121" y2="284.082" xlink:href="#linear-gradient-30"/>
    <linearGradient id="linear-gradient-50" x1="112.578" y1="250.228" x2="117.894" y2="232.664" xlink:href="#linear-gradient"/>
    <linearGradient id="linear-gradient-51" x1="115.257" y1="251.337" x2="121.53" y2="234.337" xlink:href="#linear-gradient"/>
    <linearGradient id="linear-gradient-52" x1="118.867" y1="252.131" x2="124.182" y2="234.567" xlink:href="#linear-gradient"/>
    <linearGradient id="linear-gradient-53" x1="122.344" y1="253.952" x2="128.617" y2="236.953" xlink:href="#linear-gradient"/>
    <linearGradient id="linear-gradient-54" x1="127.135" y1="254.634" x2="132.45" y2="237.069" xlink:href="#linear-gradient"/>
    <linearGradient id="linear-gradient-55" x1="130.383" y1="256.919" x2="136.656" y2="239.919" xlink:href="#linear-gradient"/>
    <linearGradient id="linear-gradient-56" x1="135.434" y1="257.145" x2="140.749" y2="239.581" xlink:href="#linear-gradient"/>
    <linearGradient id="linear-gradient-57" x1="140.701" y1="258.739" x2="146.017" y2="241.175" xlink:href="#linear-gradient"/>
    <linearGradient id="linear-gradient-58" x1="143.993" y1="261.941" x2="150.266" y2="244.941" xlink:href="#linear-gradient"/>
    <linearGradient id="linear-gradient-59" x1="148.739" y1="261.172" x2="154.055" y2="243.608" xlink:href="#linear-gradient"/>
    <linearGradient id="linear-gradient-60" x1="151.395" y1="264.672" x2="157.668" y2="247.672" xlink:href="#linear-gradient"/>
    <linearGradient id="linear-gradient-61" x1="156.242" y1="263.442" x2="161.557" y2="245.878" xlink:href="#linear-gradient"/>
    <linearGradient id="linear-gradient-62" x1="158.213" y1="267.188" x2="164.486" y2="250.188" xlink:href="#linear-gradient"/>
    <linearGradient id="linear-gradient-63" x1="164.308" y1="265.883" x2="169.624" y2="248.319" xlink:href="#linear-gradient"/>
    <linearGradient id="linear-gradient-64" x1="165.963" y1="270.048" x2="172.236" y2="253.048" xlink:href="#linear-gradient"/>
    <linearGradient id="linear-gradient-65" x1="172.128" y1="268.25" x2="177.443" y2="250.686" xlink:href="#linear-gradient"/>
    <linearGradient id="linear-gradient-66" x1="175.522" y1="269.277" x2="180.838" y2="251.713" xlink:href="#linear-gradient"/>
    <linearGradient id="linear-gradient-67" x1="179.727" y1="270.55" x2="185.042" y2="252.985" xlink:href="#linear-gradient"/>
    <linearGradient id="linear-gradient-68" x1="182.256" y1="267.98" x2="195.496" y2="253.098" xlink:href="#linear-gradient"/>
    <linearGradient id="linear-gradient-69" x1="185.213" y1="270.611" x2="198.453" y2="255.729" xlink:href="#linear-gradient"/>
    <linearGradient id="linear-gradient-70" x1="109.52" y1="237.546" x2="100.948" y2="264.972" gradientUnits="objectBoundingBox">
      <stop offset="0" stop-color="#d4e5ee"/>
      <stop offset="0.072" stop-color="#ccdee8"/>
      <stop offset="0.186" stop-color="#b5cbd7"/>
      <stop offset="0.327" stop-color="#90abbc"/>
      <stop offset="0.488" stop-color="#5e8096"/>
      <stop offset="0.554" stop-color="#476c85"/>
      <stop offset="0.594" stop-color="#5c7e95"/>
      <stop offset="0.685" stop-color="#87a3b5"/>
      <stop offset="0.773" stop-color="#a9c0ce"/>
      <stop offset="0.857" stop-color="#c1d4df"/>
      <stop offset="0.935" stop-color="#cfe1ea"/>
      <stop offset="1" stop-color="#d4e5ee"/>
    </linearGradient>
    <linearGradient id="linear-gradient-71" x1="107.703" y1="236.978" x2="99.131" y2="264.404" xlink:href="#linear-gradient-70"/>
    <linearGradient id="linear-gradient-72" x1="108.574" y1="237.25" x2="100.002" y2="264.676" xlink:href="#linear-gradient-70"/>
    <linearGradient id="linear-gradient-73" x1="110.98" y1="238.002" x2="102.408" y2="265.428" xlink:href="#linear-gradient-70"/>
    <linearGradient id="linear-gradient-74" x1="107.837" y1="237.019" x2="99.265" y2="264.446" xlink:href="#linear-gradient-70"/>
    <linearGradient id="linear-gradient-75" x1="110.767" y1="237.935" x2="102.195" y2="265.362" xlink:href="#linear-gradient-70"/>
    <linearGradient id="linear-gradient-76" x1="107.317" y1="236.857" x2="98.745" y2="264.284" xlink:href="#linear-gradient-70"/>
    <linearGradient id="linear-gradient-77" x1="106.825" y1="236.703" x2="98.253" y2="264.13" xlink:href="#linear-gradient-70"/>
    <linearGradient id="linear-gradient-78" x1="109.521" y1="237.546" x2="100.949" y2="264.972" xlink:href="#linear-gradient-70"/>
    <linearGradient id="linear-gradient-79" x1="111.898" y1="238.289" x2="103.326" y2="265.715" xlink:href="#linear-gradient-70"/>
  </defs>
  <g id="apache-ar21" transform="translate(-22.496 -9.984)">
    <g id="Group_2" data-name="Group 2" transform="translate(22.715 5.88)">
      <path id="Path_14" data-name="Path 14" d="M77.142,24.448c-6.227-.857-29.212-2.017-39.467-3.7a154.412,154.412,0,0,1-23.991-6.383,58.864,58.864,0,0,1-7.759-3.247C4.5,10.032,1.071,8.418.137,6.886c14.9,7.075,20.9,9.023,38.383,12.562C45.607,20.9,71.407,22.993,77.142,24.448Z" fill="#dcddde" stroke="#d9d9d9" stroke-width="0.274"/>
      <g id="Group_1" data-name="Group 1">
        <path id="Path_15" data-name="Path 15" d="M47.085,22.168l-.352-.23-.321-.1.546.034.321.035.316.034.321.036.321.035.321.017.281.035.439.4.422.386.37.387.335.388.334.367.615.72.321.334.316.334.335.3.352.3.4.276.422.265.475.246.528.228.6.193-.668.229-.651.055-.651-.106-.651-.264-.634-.352-.634-.456-.6-.525-.6-.563-.563-.579-.528-.581-.505-.563-.475-.527-.44-.439Z" fill="#dcddde" stroke="#d9d9d9" stroke-width="0.117"/>
        <path id="Path_16" data-name="Path 16" d="M49.706,22.922l-.44-.439-.457-.4.175.017h.194l.176.018.193.017.195.017.193.036.193.016.193.018.193.017.211.017.194.036.422.034.211.017h.211l.211.018.159.246.193.3.247.35.264.37.321.4.335.4.352.422.37.4.387.387.386.37.406.334.387.276.388.228.387.159.369.092h.353l-.775.125-.721.017-.668-.069-.632-.158-.581-.246-.528-.3-.528-.351-.475-.4-.475-.422-.439-.456-.863-.967L50.15,23.4Z" fill="#dcddde" stroke="#d9d9d9" stroke-width="0.117"/>
        <path id="Path_17" data-name="Path 17" d="M52.925,23.742l-.475-.65-.494-.738h.3l.282.018.563.07.276.036.282.033h.65l.283.281.263.3.265.282.264.315.264.3.246.321.265.3.248.321.526.6.282.3.265.282.9.79.335.229-.44.053-.422.035-.4-.017-.4-.07-.405-.092-.387-.158-.386-.194-.405-.264-.4-.3-.405-.351-.405-.422-.422-.456-.44-.546Zm2.044-.6-.321-.335-.282-.281,1.882.175.212.276.229.281.21.282.211.276.211.281.23.282.211.276.228.282.247.263.247.276.246.265.282.262.281.264.3.265.321.247.334.243-.334.178-.368.071-.371-.054-.386-.157-.388-.23-.4-.321-.4-.351-.406-.421-.386-.441-.406-.456-.369-.458-.37-.439L55.3,23.5Z" fill="#dcddde" stroke="#d9d9d9" stroke-width="0.117"/>
        <path id="Path_18" data-name="Path 18" d="M57.075,23.743l-.37-.528-.369-.505.316.053.246.017.176.017.158.018.157.018h.159l.23.017.3.017.334.474.334.439.334.423.37.369.352.333.352.321.369.276.352.247.352.21.353.194.333.14.321.124.321.106.282.07.282.035.247.017L62.815,27l-.505.23-.505.106h-.493l-.474-.092-.457-.157-.439-.248-.441-.315-.422-.387-.424-.4-.386-.476-.406-.473-.387-.505Z" fill="#dcddde" stroke="#d9d9d9" stroke-width="0.117"/>
        <path id="Path_19" data-name="Path 19" d="M58.781,23.759l-.335-.441-.321-.456.352.018.388.034.368.035.37.018.321.035.264.017.193.018.088.017.035.036.092.092.141.14.175.177.193.211.247.247.265.263.3.282.336.279.35.3.353.282.387.281.4.263.4.246.422.211.422.175-.563.07-.545.037-.528-.036-.505-.069-.476-.1-.474-.158-.44-.194-.422-.246-.422-.263-.388-.3-.387-.334-.369-.369-.352-.387Z" fill="#dcddde" stroke="#d9d9d9" stroke-width="0.117"/>
        <path id="Path_20" data-name="Path 20" d="M61.067,23.757l-.321-.353-.3-.351h.211l.264.018.276.016h.3l.282.034.282.018.228.018.194.034v.037l.071.092.175.159.247.193.3.246.351.282.388.3.405.3.422.315.422.318.4.3.389.264.352.246.321.193.247.14.175.088-.474.092-.458.035-.474-.052-.475-.088-.475-.156-.456-.194-.457-.229-.458-.281-.422-.3-.422-.321-.4-.333-.388-.352-.37-.368Z" fill="#dcddde" stroke="#d9d9d9" stroke-width="0.117"/>
        <path id="Path_21" data-name="Path 21" d="M62.72,23.457l-.194-.175-.088-.071.229.018.511.033.263.018.282.033.562.037.3.017.316.193.315.194.617.4.321.209.3.229.316.211.3.211.62.439.316.211.3.211.634.387.3.193.321.176-.281.282-.37.122h-.457l-.505-.122-.563-.211-.579-.3-.615-.352-.6-.386-.6-.422-.563-.421-.527-.4-.459-.388-.4-.315Z" fill="#dcddde" stroke="#d9d9d9" stroke-width="0.117"/>
        <path id="Path_22" data-name="Path 22" d="M65.957,24.245l-.634-.422-.7-.439.3.018.334.018h.3l.3.017.264.017.211.018.141.018.053.016.036.053.106.106.159.141.21.193.264.228.3.266.321.262.369.282.37.276.387.282.387.245.405.247.386.21.387.176.37.123.335.071-.3.1-.3.053-.3.017-.3-.046-.3-.09-.321-.121-.334-.176-.352-.211-.387-.246-.4-.276-.441-.315-.492-.335-.545-.369Z" fill="#dcddde" stroke="#d9d9d9" stroke-width="0.117"/>
        <path id="Path_23" data-name="Path 23" d="M66.783,23.769l-.176-.157-.107-.107.282.018.265.018.262.017.264.034.246.018.265.017.276.034.282.018.211.193.23.193.21.194.23.211.229.229.228.211.246.211.248.211.491.387.265.175.245.157.282.138.264.122.282.089.282.07-.4.158-.44.07-.458-.033-.474-.123-.492-.176-.474-.229-.494-.279-.457-.321-.44-.316-.422-.334-.387-.316-.334-.321-.3-.263Zm2.531.456-.321-.3-.321-.282.194.018.211.035.474.035.265.034.281.018.3.034.282.017.088.211.123.211.124.194.159.193.175.176.387.351.228.141.23.141.247.123.263.123.265.088.281.071.276.069.3.035.3.018-.351.246-.35.159-.352.071-.352.018-.353-.07L72.01,26.3l-.352-.157-.351-.211-.335-.229-.352-.276-.335-.281-.668-.6Z" fill="#dcddde" stroke="#d9d9d9" stroke-width="0.117"/>
        <path id="Path_24" data-name="Path 24" d="M71,24.431l-.158-.3-.106-.3.211.018.211.017.228.035.23.018.227.017.505.035.3.017.123.175.141.177.14.158.141.141.141.14.159.106.158.124.159.106.175.092.194.088.193.092.211.071.211.07.228.07.247.053.248.071-.3.122-.321.089-.333.053H74.2l-.352-.018-.387-.053-.738-.21-.353-.158-.334-.176-.3-.194-.282-.227L71.2,24.7Z" fill="#dcddde" stroke="#d9d9d9" stroke-width="0.117"/>
        <path id="Path_25" data-name="Path 25" d="M72.956,24.434l-.158-.211-.141-.229.3.036.176.017.159.017.158.018.141.017h.246v.07l.158.14.265.194.352.229.421.228.422.23.422.175.37.106-.106.106-.159.07-.193.036h-.211l-.246-.017-.263-.052-.282-.089-.281-.092-.282-.124-.282-.141-.282-.157-.247-.176-.247-.193Z" fill="#dcddde" stroke="#d9d9d9" stroke-width="0.117"/>
        <path id="Path_26" data-name="Path 26" d="M73.905,24.2l-.092-.07L73.8,24.1l1.371.157.106.07.177.088.21.106.23.106.246.124.228.092.211.092.176.053-.036.246-.088.158-.14.072-.193.035-.23-.035-.264-.092-.263-.106-.282-.141-.282-.159-.528-.35-.211-.158-.193-.141Z" fill="#dcddde" stroke="#d9d9d9" stroke-width="0.117"/>
        <path id="Path_27" data-name="Path 27" d="M76.047,24.695l-.334-.175-.3-.159-.246-.1.3.018.264.018.246.016.229.017.211.018.228.016.229.037.265.052-.054.334-.158.159H76.68l-.321-.092Z" fill="#dcddde" stroke="#d9d9d9" stroke-width="0.117"/>
        <path id="Path_28" data-name="Path 28" d="M76.1,23.815l-.351.089-.3.106-.23.071.3.052.263.035.228.052.23.035.21.052.211.053.247.054.264.07.018-.388-.158-.246-.247-.089-.334-.015Zm-27.366-3.83-.493.4-.505.371.176.034.193.017.193.018.176.035.194.018.193.017.211.017.193.018.194.016.211.018.21.035.405.035.21.034.229.017.211.035.175-.245.227-.3.265-.351.316-.353.334-.387.37-.387.4-.388.4-.37.441-.351.438-.316.439-.282.458-.228.439-.177.44-.106.439-.018.4.07-.773-.3-.735-.193-.685-.052-.651.035-.633.138-.58.211-.563.3-.545.335-.528.388-.505.422-.508.441-.494.457-.491.439Z" fill="#dcddde" stroke="#d9d9d9" stroke-width="0.117"/>
        <path id="Path_29" data-name="Path 29" d="M52.078,19.773l-.544.651-.58.721.321.018.281.033.265.018.245.035.247.035.263.035.3.052.351.054.321-.264.3-.281.321-.3.281-.3.6-.6.282-.3.3-.3.3-.282.315-.264.3-.265.316-.264.334-.229.352-.194.352-.193.37-.159-.441-.158-.422-.1L57,16.9l-.424-.035-.4.035-.422.088-.4.123-.422.194-.439.247-.441.321-.457.369-.474.441-.505.505Z" fill="#dcddde" stroke="#d9d9d9" stroke-width="0.117"/>
        <path id="Path_30" data-name="Path 30" d="M53.873,20.826l-.335.321-.321.264,1.918.228.246-.281.246-.282.229-.282.245-.281.247-.282.245-.3.509-.551.563-.527.3-.247.316-.229.334-.228.352-.194.369-.176.387-.159-.333-.276-.371-.141-.4-.034-.4.092-.44.176-.439.247-.457.321-.457.369-.457.4L55.5,19.2l-.439.422-.422.44-.386.4Z" fill="#dcddde" stroke="#d9d9d9" stroke-width="0.117"/>
        <path id="Path_31" data-name="Path 31" d="M56.052,20.6l-.422.505-.422.505.335.018.276.017.229.018.422.07.23.034.263.036.318.052.369-.475L58,20.954l.369-.387.352-.334.367-.281.352-.247.334-.211.352-.175.334-.138.316-.106.334-.088.321-.07.3-.037.3-.034h.58l-.528-.505-.505-.368-.493-.245-.493-.141-.492-.017-.475.071-.474.177-.457.229-.456.321-.439.369-.457.422-.862.932Z" fill="#dcddde" stroke="#d9d9d9" stroke-width="0.117"/>
        <path id="Path_32" data-name="Path 32" d="M58.045,20.94l-.37.423-.369.457.369.053.422.046.846.106.386.052.3.036.23.017h.092l.034-.034.089-.071L60.2,21.9l.158-.159.194-.193.227-.195.264-.228.3-.247.334-.23.351-.246.388-.23.422-.227.422-.195.456-.176.475-.159.493-.106L64.1,19.1l-.545-.158-.545-.092-.505-.035H62l-.492.071-.475.107-.457.159-.457.193-.422.247-.439.282-.4.321-.405.353Z" fill="#dcddde" stroke="#d9d9d9" stroke-width="0.117"/>
        <path id="Path_33" data-name="Path 33" d="M60.625,21.489l-.367.334-.333.335.227.017.281.035.651.07.335.034.3.035.264.017h.193v-.035l.088-.092.175-.123.264-.177.321-.193.37-.23.422-.247.439-.245.439-.248.457-.247.458-.228.421-.21.388-.178.35-.141.283-.089.227-.053-.475-.192-.475-.141-.505-.053H65.33l-.505.054-.505.106-.492.158-.505.194-.474.229-.475.247-.918.6-.405.318Z" fill="#dcddde" stroke="#d9d9d9" stroke-width="0.117"/>
        <path id="Path_34" data-name="Path 34" d="M62.437,22.173l-.228.157-.106.054.247.053.276.036.3.034.321.017.334.036.335.034.632.106.335-.158.315-.16.335-.175.315-.176.321-.159.316-.176.334-.176.316-.175.321-.161.315-.175.335-.158.316-.141.321-.16.333-.14.334-.138.334-.122-.247-.387-.369-.229-.458-.086h-.527l-.58.123-.634.194-.668.265-.65.3-.668.335-.615.352-.58.335-.528.334-.438.282Zm4.274.472-.193.141-.106.089.281.034.264.035.228.035.23.017.246.017.228.035.265.035.276.034.247-.156.247-.16.264-.193.264-.176.276-.194.282-.193.281-.194.563-.352.3-.141.3-.14.282-.107.3-.092.282-.054h.281l.281.017-.388-.276-.439-.159-.457-.069H71.1l-.512.092-.527.16-.505.193-.505.23-.475.264-.474.264-.791.528-.333.23Z" fill="#dcddde" stroke="#d9d9d9" stroke-width="0.117"/>
        <path id="Path_35" data-name="Path 35" d="M65.99,21.96l-.689.351-.758.353.282.018.321.034.321.036.321.051.282.036.21.036.159.016.07-.016.035-.036.124-.092.158-.138.211-.158.263-.194.321-.211.335-.23.369-.23.808-.457.439-.2.439-.176.441-.14.439-.09.422-.046h.422l-.3-.194-.315-.14-.3-.071-.316-.034-.321.017-.334.07-.371.124L69.1,20.4l-.422.194-.441.211-.491.265-.527.282-.581.3Zm3.2.643-.37.265-.369.228.211.035.229.018.264.053.282.033.3.037.321.033.3.036.3.035.106-.229.123-.194.14-.194.176-.175.176-.158.193-.124.23-.124.228-.106.246-.092.263-.071.265-.053.282-.037.3-.017h.3l.615.069-.321-.351-.333-.264-.335-.175-.352-.106L72.6,20.96l-.369.035-.388.089-.369.124-.386.194-.37.193-.387.246-.387.248-.387.246Zm3.8.617-.194.194-.175.211.158.035.194.035.193.035.194.034.175.017.141.018h.141l.07-.036.175-.106.3-.141.351-.156.4-.138.457-.124.439-.071.441.017-.089-.141-.141-.123-.194-.1-.211-.071-.246-.052-.281-.017h-.282l-.321.017-.3.053-.321.071-.3.1-.276.124-.265.141Z" fill="#dcddde" stroke="#d9d9d9" stroke-width="0.117"/>
        <path id="Path_36" data-name="Path 36" d="M73.9,23.73l-.092.07-.036.017,1.408.245.124-.052.193-.054.211-.07.247-.071.246-.053.246-.034h.229l.194.034.017-.276-.07-.211-.124-.141-.193-.088-.228-.036-.264.018-.282.035-.321.071-.6.211-.282.106-.246.106-.211.106Zm-2.92-.931-.193.281-.158.321.23.018.21.036.23.016.247.035.246.036.264.017.281.053.3.033.106-.156.123-.141.141-.123.158-.124L73.341,23l.193-.106.194-.088.211-.07.211-.071.228-.052.211-.035.23-.018.228-.017h.228l.23.018.211.034-.282-.229-.3-.176L74.8,22.03l-.37-.106-.37-.071-.368-.046h-.388l-.386.033-.369.072-.369.124-.335.141-.321.175-.3.211ZM12.509,18.765l.422.246.551.176-.089-.265-.054-.276-.052-.276-.035-.321-.018-.321v-.333l.017-.321.017-.335L13.3,16.4l.034-.333.053-.321.07-.3.052-.3.071-.264.092-.264.071-.229-.088-.034-.071-.018-.092-.035-.072-.017-.071-.035-.069-.018L13.2,14.2l-.092-.035-.035.054-.089.141-.122.228-.158.282-.177.334-.175.37L12.19,16l-.139.422-.1.441-.037.422.018.422.089.387.194.353Z" fill="#dcddde" stroke="#d9d9d9" stroke-width="0.117"/>
        <path id="Path_37" data-name="Path 37" d="M14.973,20.451l.193.017h.176l-.211-.563-.088-.321-.071-.321-.07-.352-.054-.35-.053-.352-.035-.369-.018-.37v-.387l.018-.369.034-.387.052-.369.071-.387.092-.352.106-.37-.21-.071-.213-.07-.194-.07-.192-.053-.159-.052-.175-.053-.141-.035-.124-.036-.245.964-.175.879-.092.756-.017.668.035.58.106.492.141.422.159.351.211.282.228.228.229.159.227.123.248.092Zm1.46.86.441.018.509-.141-.193-.318L17,20.538l-.159-.352-.141-.333-.106-.369-.107-.353-.07-.369-.071-.37-.035-.369-.018-.386v-.369l.034-.387.035-.387.07-.37.07-.388.106-.369-.176-.07-.21-.07-.634-.21-.175-.07-.159-.054-.123-.034-.106.351-.1.441-.071.493-.033.545-.018.6v.6l.053.6.088.582.125.545.158.505.23.439.263.351.335.264Z" fill="#dcddde" stroke="#d9d9d9" stroke-width="0.117"/>
        <path id="Path_38" data-name="Path 38" d="M16.376,16.477l.106-.581.158-.546.194.07.2.071.209.053.213.07.21.071.228.071.211.07.228.07v.773l.018.459.036.949.017.493.053.505.052.474.072.475.07.439.107.422.123.37.141.315.176.265.193.193.211.122-.476.037-.458-.071-.4-.175-.369-.246-.352-.335-.3-.4-.246-.456L16.765,20l-.176-.545-.138-.581-.088-.6-.036-.6v-.6Z" fill="#dcddde" stroke="#d9d9d9" stroke-width="0.117"/>
        <path id="Path_39" data-name="Path 39" d="M19.808,18.39v.473l.037.932.035.458.053.456.089.422.092.387.14.368.158.334.194.283.246.227-.509-.123-.422-.175-.352-.245-.3-.282-.247-.334-.194-.386-.141-.422-.107-.441-.072-.492-.052-.505-.037-1.091-.035-1.143v-.58l-.036-.6.176.071.176.052.157.053.177.035.175.053.159.052.176.053.175.071.036.351.018.386.018.422.017.44Z" fill="#dcddde" stroke="#d9d9d9" stroke-width="0.117"/>
        <path id="Path_40" data-name="Path 40" d="M19.806,17.37l-.035-.528-.037-.491.193.052.176.052.158.054.178.052.175.052.158.053.176.035.194.052-.018.052-.034.123-.037.194L21,17.37l-.034.316-.036.352-.018.4.018.457.052.475.09.526.159.551.193.563.282.581.352.615.422.6.528.614-.7-.034-.6-.14-.491-.228-.405-.3-.321-.386-.231-.44-.193-.491-.124-.546L19.87,20.3l-.052-.579-.018-.6V17.939Z" fill="#dcddde" stroke="#d9d9d9" stroke-width="0.117"/>
        <path id="Path_41" data-name="Path 41" d="M20.914,18.09l.07-.668.141-.669,1.671.527-.017.282-.017.335.017.367.037.422.052.44.088.475.089.492.141.505.159.505.193.493.211.491.264.475.281.457.335.422.369.387.405.333-.475.088-.475-.034L24,24.058l-.457-.247-.439-.333-.422-.4-.388-.491-.354-.545-.3-.581-.265-.633-.212-.669-.138-.689-.088-.687Z" fill="#dcddde" stroke="#d9d9d9" stroke-width="0.117"/>
        <path id="Path_42" data-name="Path 42" d="M25.577,20.214l.035.476.053.456.07.457.092.439.107.422.141.42.158.387.194.371.229.315.246.3.3.265-.351.053-.369-.018-.369-.092-.369-.158-.369-.23L25,23.8l-.352-.351-.352-.439-.321-.475-.281-.563-.265-.615-.227-.7-.178-.758-.141-.807-.09-.9-.035-.949.264.092.334.088.371.123.386.106.37.124.369.1.321.092.247.053.035.4.019.439.034.441.017.457Z" fill="#dcddde" stroke="#d9d9d9" stroke-width="0.117"/>
        <path id="Path_43" data-name="Path 43" d="M25.505,18.966l-.034-.505L25.416,18l.246.053.213.053.192.07.192.052.213.054.194.046.228.071.265.07.054.477.051.456.053.457.072.439.054.441.07.422.092.4.09.4.123.388.141.386.175.37.194.369.246.367.265.353.321.333.354.334-.792.037-.668-.071-.58-.192-.458-.3-.386-.369-.318-.439-.228-.492-.177-.562-.141-.563-.092-.616-.107-1.195-.017-.6Z" fill="#dcddde" stroke="#d9d9d9" stroke-width="0.117"/>
        <path id="Path_44" data-name="Path 44" d="M27.278,19.422l-.053-.493-.037-.422.248.054.211.051.193.053.194.035.175.052.2.034.227.07.265.053.088.687.106.651.124.6.123.563.138.505.158.491.176.422.176.405.176.369.2.333.211.282.194.264.211.246.211.193.229.176.211.159-.7.036L30.3,25.2l-.546-.192-.476-.3-.4-.37-.351-.439-.283-.508L28,22.844l-.21-.563-.159-.6L27.5,21.1l-.089-.6-.092-.563Z" fill="#dcddde" stroke="#d9d9d9" stroke-width="0.117"/>
        <path id="Path_45" data-name="Path 45" d="M29.023,19.825l-.07-.473-.072-.423.211.035.211.053.212.052.211.053.212.053.21.051.211.053.228.054.017.332.054.37.07.387.123.422.124.457.175.439.177.474.193.458.23.457.247.439.245.4.265.386.264.37.282.321.3.263.283.211-.669.036-.6-.092-.528-.195-.491-.281-.4-.367-.37-.422-.321-.493-.282-.525-.246-.551-.194-.58-.159-.58-.141-.58-.124-.551Z" fill="#dcddde" stroke="#d9d9d9" stroke-width="0.117"/>
        <path id="Path_46" data-name="Path 46" d="M30.641,19.806l-.052-.3v-.175l.263.046.247.053.246.07.246.053.246.07.23.052.228.053.23.036.088.3.2.755.125.457.141.475.157.491.176.491.195.512.211.491.228.456.247.441.264.387.3.332.3.264.334.194.351.106-.689.089-.634-.092-.58-.228-.528-.352-.493-.439-.422-.527-.386-.6-.354-.615-.281-.65-.247-.634-.211-.6-.176-.58-.106-.493Z" fill="#dcddde" stroke="#d9d9d9" stroke-width="0.117"/>
        <path id="Path_47" data-name="Path 47" d="M32.769,20.56l-.106-.422-.092-.334.193.035.194.017.175.034.159.035.176.035.159.036.14.034.158.018.054.4.092.422.107.421.1.405.138.422.159.4.175.387.422.773.247.369.283.351.276.321.335.321.334.276.37.264.4.246-.632.141h-.562l-.511-.123-.475-.246-.4-.334-.37-.4-.334-.49-.3-.528-.248-.562-.229-.58-.176-.58-.177-.563-.141-.527Z" fill="#dcddde" stroke="#d9d9d9" stroke-width="0.117"/>
        <path id="Path_48" data-name="Path 48" d="M34.195,21.333l-.159-.634-.106-.649.229.052.23.035.246.053.228.034.228.036.211.052.23.035.211.053.106.37.088.386.106.37.09.369.106.369.1.369.141.351.159.37.193.352.213.368.265.352.315.352.353.334.422.352.493.351.546.333h-.527l-.511-.053-.491-.123-.476-.176-.439-.245-.441-.3-.386-.351-.386-.387-.335-.441-.321-.474-.282-.528-.264-.544-.211-.58Z" fill="#dcddde" stroke="#d9d9d9" stroke-width="0.117"/>
        <path id="Path_49" data-name="Path 49" d="M36.041,21.684l-.141-.632-.107-.634.194.035.211.054.209.034.211.034.211.036.23.052.228.035.23.053.07.439.106.439.138.441.176.421.21.421.231.422.264.405.3.387.321.387.352.35.371.334.4.321.422.276.457.265.458.228.492.193-.687.054-.668-.035-.615-.106-.581-.176-.545-.228-.511-.3-.474-.353-.422-.421L37.4,24.48l-.352-.493-.319-.527-.263-.56-.228-.6Z" fill="#dcddde" stroke="#d9d9d9" stroke-width="0.117"/>
        <path id="Path_50" data-name="Path 50" d="M37.783,21.929l-.159-.582-.106-.6.193.034.177.017.316.036.159.017.175.035.21.034L39,20.96l.247.511.211.473.405.88.211.4.195.369.211.351.229.334.247.334.282.3.316.321.351.276.406.3.457.276.509.282.581.276-.58-.034-.563-.092-.564-.141-.544-.21-.511-.247-.505-.3-.475-.335-.44-.387-.4-.421-.387-.456-.335-.494-.3-.505L38,22.479Z" fill="#dcddde" stroke="#d9d9d9" stroke-width="0.117"/>
        <path id="Path_51" data-name="Path 51" d="M39.453,22.051l-.247-.563-.228-.545.158.017.211.036.528.07.281.053.247.035.209.035.159.016.211.493.23.493.265.456.263.439.3.4.316.4.335.37.369.37.369.334.406.315.421.316.441.282.457.263.492.246.493.228.528.211-.862.035L45,26.83l-.721-.123-.668-.194-.615-.263-.545-.318-.512-.367-.456-.422-.422-.456-.388-.492-.335-.505-.316-.551-.3-.544Z" fill="#dcddde" stroke="#d9d9d9" stroke-width="0.117"/>
        <path id="Path_52" data-name="Path 52" d="M41.376,22.454l-.318-.615-.265-.634.264.037.265.034.276.017.281.035.246.017.211.035.175.035.088.053.321.246.321.264.669.632.334.352.352.368.352.388.353.388.351.4.735.773.388.386.387.388.388.35.387.352.405.316-.475-.017-.491-.07-.528-.123-.545-.193-.546-.227-.551-.282-.545-.333-.545-.369-.528-.422-.511-.439-.475-.491-.459-.528-.4-.545Zm2.387-.02-.564-.528-.563-.473h.195l.227.034.265.017.263.053.282.035.282.052.263.053.23.034.878.808.424.422.422.422.4.421.405.422.4.422.388.386.388.386.387.353.369.315.369.282.37.246.352.211.352.158.352.106-.458.3-.474.123H49.5l-.493-.123-.492-.247-.493-.335-.505-.421L47.01,25.9l-1.038-1.108L44.88,23.6l-.546-.58Z" fill="#dcddde" stroke="#d9d9d9" stroke-width="0.117"/>
        <path id="Path_53" data-name="Path 53" d="M45.609,22.52l-.475-.439-.492-.422.175.018.21.017.265.034.263.018.265.034.211.017.175.018h.106l.3.069.3.141.3.194.318.263.321.315.334.37.352.387.353.421.4.439.405.439.458.457.474.441.511.439.546.4.58.367.634.335h-.722l-.685-.07-.616-.176-.6-.227-.545-.282-.505-.351-.494-.386-.457-.422-.458-.456-.439-.474-.422-.476-.881-.983ZM15.14,7.912l.475-.018.544.141-.176.176-.158.211-.158.264-.141.282-.14.321-.124.321-.121.352-.124.369-.1.352-.092.37-.089.369-.092.351-.071.353-.07.333-.053.3-.052.282-.092-.017-.071-.017-.092-.036-.071-.017L14,12.916l-.071-.035-.088-.017-.1-.036v-.07l-.018-.193-.017-.3-.018-.37-.018-.439.034-.967.046-.505.106-.474.141-.457.175-.405.263-.334.3-.247Zm2.442-.037.16.106.14.106-.246.228-.245.264-.212.247-.227.276-.195.282-.194.3-.175.3-.158.318-.158.333-.281.7-.123.37-.1.387-.106.387-.1.4-.089.422-.21-.035-.158-.017-.107-.035-.07-.035-.07-.017-.072-.035-.07-.018-.106-.034.228-1.148.246-.968.246-.827.245-.685.248-.551.245-.44.245-.321.23-.228.246-.159.21-.07.231-.018.193.036.193.07Z" fill="#dcddde" stroke="#d9d9d9" stroke-width="0.117"/>
        <path id="Path_54" data-name="Path 54" d="M19.079,7.892l.387.23.4.4-.316.229-.3.265-.282.264-.264.265-.264.276-.228.321-.211.321-.193.316-.194.353-.158.352-.158.37-.122.386-.123.4-.089.422-.092.441-.071.456-.191-.052-.211-.07-.23-.07-.229-.088-.211-.092-.193-.071-.158-.069-.106-.035L15.332,13l.09-.475.14-.528.175-.563.23-.58.263-.563.276-.545.316-.505.335-.457.351-.387.368-.3L18.26,7.9l.4-.07Z" fill="#dcddde" stroke="#d9d9d9" stroke-width="0.117"/>
        <path id="Path_55" data-name="Path 55" d="M17.112,12.676l-.141.634-.07.65.422.107.211.069.211.071.228.092.23.052.21.071.23.034.158-.4.14-.441.176-.439.159-.439.175-.457.193-.458.194-.439.193-.422.209-.406.23-.37.245-.351.248-.3.276-.264.282-.211.3-.159.321-.092-.422-.281L21.3,8.365l-.439-.053-.422.053-.44.141-.422.23-.405.321-.387.37-.349.422-.352.493-.3.545-.263.563-.228.6Z" fill="#dcddde" stroke="#d9d9d9" stroke-width="0.117"/>
        <path id="Path_56" data-name="Path 56" d="M19.048,13.572l-.211.545-.228.511.193.017.176.053.176.052.177.07.175.054.176.069.193.052.194.034.017-.07.017-.176.052-.229.053-.321.092-.369.124-.422.14-.457.193-.475.227-.475.264-.475.334-.476.369-.44.441-.422.491-.352.564-.318.631-.23-.668-.3-.6-.158-.528-.017-.475.089-.422.193-.37.3-.332.37-.3.44-.265.492-.227.545-.23.565-.21.562-.21.58Z" fill="#dcddde" stroke="#d9d9d9" stroke-width="0.117"/>
        <path id="Path_57" data-name="Path 57" d="M20.365,13.571l-.156.721-.092.775,1.812.473.1-.3.141-.354.14-.369.175-.4.211-.422.21-.439.247-.441.264-.439.3-.439.333-.422.351-.386.369-.371.4-.334.441-.282.457-.247.491-.193-.405-.3L25.7,9.208l-.491-.07-.492.018-.528.1-.527.211-.505.282-.505.353-.491.439-.458.494-.4.563-.37.616-.315.65Z" fill="#dcddde" stroke="#d9d9d9" stroke-width="0.117"/>
        <path id="Path_58" data-name="Path 58" d="M25.4,13.99l.21-.458.229-.457.228-.458.245-.422.263-.388.282-.369.3-.333.3-.3.334-.247.369-.194.369-.14-.318-.211-.351-.158-.37-.106-.4-.035-.422.035-.441.106-.439.176-.456.265-.459.334-.456.422-.457.528-.438.6-.422.7-.421.791-.387.915-.368,1,.263.053.333.07.335.106.371.106.351.122.335.088.3.092.246.07.175-.44.387-.918.193-.476Z" fill="#dcddde" stroke="#d9d9d9" stroke-width="0.117"/>
        <path id="Path_59" data-name="Path 59" d="M24.939,15.361l-.21.528-.209.475.246.035.211.051.193.037.387.106.211.053.229.035.263.052.23-.475.21-.476.211-.456.21-.44.211-.44.228-.4.23-.4.227-.37.264-.371.276-.333.282-.316.316-.3.354-.283.367-.246.422-.229.439-.211-.721-.386-.65-.229-.6-.052-.545.089-.474.21-.458.321-.386.405-.37.493-.321.546-.3.58-.263.615-.245.615-.247.6Z" fill="#dcddde" stroke="#d9d9d9" stroke-width="0.117"/>
        <path id="Path_60" data-name="Path 60" d="M26.716,15.835l-.209.511-.194.439.264.052.23.053.211.052.193.035.21.053.211.053.246.035.282.053.321-.7.316-.651.3-.6.3-.551.282-.491.263-.441.539-.756.281-.3.282-.264.276-.229.3-.193.3-.141.314-.123.336-.071.351-.052-.652-.351-.614-.176-.581-.034-.563.092L30,11.348l-.491.321-.458.388-.422.458-.386.528-.368.545-.333.563-.3.58-.276.581Z" fill="#dcddde" stroke="#d9d9d9" stroke-width="0.117"/>
        <path id="Path_61" data-name="Path 61" d="M28.563,16.274l-.209.474-.193.441.211.052.193.052.195.035.176.054.193.035.193.034.211.052.228.035.106-.351.157-.388.193-.387.228-.422.246-.422.6-.845.334-.422.351-.386.37-.389.368-.351.369-.3.387-.282.369-.229.368-.176.37-.106-.633-.3-.6-.141h-.56l-.551.107-.491.21-.474.3-.439.388-.422.439-.368.492-.352.528-.333.545-.282.546-.276.551Z" fill="#dcddde" stroke="#d9d9d9" stroke-width="0.117"/>
        <path id="Path_62" data-name="Path 62" d="M29.918,17.1l-.106.3-.052.176.264.053.229.052.686.158.211.034.23.035.228.035.158-.3.176-.369.21-.405.247-.422.262-.475.282-.475.3-.458.321-.475.334-.441.352-.4.368-.369.369-.3.388-.247.387-.158.4-.07.405.016-.651-.35-.634-.158-.634.018-.6.176-.58.282-.563.4-.528.477-.491.527-.457.565-.4.58-.367.563-.3.545-.246.476Z" fill="#dcddde" stroke="#d9d9d9" stroke-width="0.117"/>
        <path id="Path_63" data-name="Path 63" d="M32.064,17.185l-.193.422-.176.352.211.035.175.052.158.053.141.052.159.053.14.053.141.036.157.034.158-.439.193-.44.194-.422.211-.422.247-.422.243-.387.282-.388.3-.37.321-.352.351-.321.351-.282.387-.264.422-.23.422-.193.457-.141.492-.106-.581-.387-.562-.211-.528-.052-.528.092-.492.211-.474.318-.44.387-.42.475-.388.512-.369.543-.334.565-.315.562-.264.528Z" fill="#dcddde" stroke="#d9d9d9" stroke-width="0.117"/>
        <path id="Path_64" data-name="Path 64" d="M33.523,16.99l-.321.651-.262.689.229.035.227.035.23.053.228.07.228.053.229.071.229.053.23.034.157-.387.158-.4.159-.387.157-.405.193-.387.193-.37.23-.386.246-.352.3-.334.316-.334.37-.3.4-.282.457-.247.505-.229.579-.195.634-.158-.511-.194-.505-.122-.527-.035-.493.036-.505.107-.474.158-.475.246-.475.3-.439.352L35,14.849l-.4.457-.387.511-.368.563Z" fill="#dcddde" stroke="#d9d9d9" stroke-width="0.117"/>
        <path id="Path_65" data-name="Path 65" d="M35.334,17.393l-.276.634-.246.689.211.035.211.035.721.106.247.034.491.07.124-.492.176-.456.193-.457.245-.441.264-.4.3-.387.321-.369.352-.335.386-.321.421-.264.441-.248.457-.211.492-.158.511-.141.527-.092.546-.036-.668-.276-.67-.184-.615-.092-.615-.017-.58.092-.563.159-.527.229-.511.3-.456.37-.456.422-.406.476-.386.528-.35.58Z" fill="#dcddde" stroke="#d9d9d9" stroke-width="0.117"/>
        <path id="Path_66" data-name="Path 66" d="M37.059,17.814l-.23.615-.175.652.211.016.176.017.175.035.176.035.176.034.175.036.211.052.228.035.3-.505.282-.493.244-.44.23-.439.246-.387.229-.369.228-.352.263-.321.281-.3.316-.265.353-.246L41.541,15,42,14.8l.491-.175.58-.159.65-.141-.6-.092-.58-.052-.58.018-.564.071-.562.141-.528.176-.505.229-.493.282-.457.334-.438.388-.387.422-.367.482-.321.528Z" fill="#dcddde" stroke="#d9d9d9" stroke-width="0.117"/>
        <path id="Path_67" data-name="Path 67" d="M38.765,18.27l-.281.563-.281.58.141.017.193.017.211.053.23.035.228.053.212.053.193.017.158.018.263-.528.282-.475.321-.457.333-.422.352-.405.369-.37.4-.333.422-.321.439-.283.457-.263.475-.229.491-.229.505-.194.527-.176.551-.158.561-.138-.879-.21-.827-.123-.756-.034-.7.071-.651.141-.6.211-.545.263-.493.354-.473.387-.421.441-.387.475-.368.511-.334.527Z" fill="#dcddde" stroke="#d9d9d9" stroke-width="0.117"/>
        <path id="Path_68" data-name="Path 68" d="M40.523,18.392l-.386.616-.334.668.247.018.245.035.247.053.246.052.211.052.177.054.141.017.092-.017.354-.211.35-.247.369-.282.387-.321.387-.334.4-.353.422-.352.421-.368.441-.37.439-.371.457-.368.457-.335.474-.335.457-.3.491-.282.474-.247-.491-.092-.511-.017-.563.018-.58.088-.582.124-.6.176-.6.228-.6.282-.6.334-.562.388-.544.422-.527.475-.475.528Z" fill="#dcddde" stroke="#d9d9d9" stroke-width="0.117"/>
        <path id="Path_69" data-name="Path 69" d="M42.652,19.076l-.632.475-.634.422.193.034.23.017.281.018.282.017.3.017h.792l.475-.352.918-.735.422-.387.422-.37.405-.37.4-.37.4-.352.422-.316.4-.3.422-.265.439-.23.457-.194.475-.158.493-.089.505-.054-.44-.439-.475-.263-.493-.106-.505.036-.527.141-.563.264-.563.354-.6.4-1.213,1-.615.551-.615.545-.632.551Z" fill="#dcddde" stroke="#d9d9d9" stroke-width="0.117"/>
        <path id="Path_70" data-name="Path 70" d="M44.34,19.479l-.546.387-.544.37.174.017.229.034.265.036.265.017.263.037.23.033.175.018.106.017h.316l.321-.092.334-.16.351-.228.352-.282.387-.334,1.266-1.163.473-.422.505-.405.528-.387.579-.371.6-.334.634-.3.686-.23-.735-.175-.686-.07-.65.035-.617.125-.58.211-.563.264-.545.334-.527.37-1.01.846-.491.457-.511.457-.505.44Z" fill="#dcddde" stroke="#d9d9d9" stroke-width="0.117"/>
        <path id="Path_71" data-name="Path 71" d="M45.888,20.216l-.387.176-.333.054.276.035.3.052.333.052.351.054.352.034.352.053.334.017.3.017.491-.37.44-.351.4-.352.386-.334.352-.335.333-.333.352-.318.333-.3.334-.281.369-.265.386-.247.422-.228.457-.211.491-.176.563-.159.615-.141-.651-.37-.687-.156h-.668l-.689.141-.687.265-.686.369-.668.441-.65.475-.615.528-.6.528-.58.494-.527.456-.474.388ZM11.5,6.21,11.55,6l.052-.193-.276.369-.211.405-.158.387-.092.4-.035.422v.422l.053.422.089.422.1.422.138.405.315.808.177.387.159.387.159.351.158.352-.034-.07-.017-.124-.019-.122V11.7L12.1,11.5V10.87l-.018-.23v-.229l-.018-.245-.018-.229-.017-.211-.036-.211-.034-.193L11.9,9.147l-.088-.176-.07-.193-.07-.194-.052-.193-.054-.211-.053-.228-.035-.211-.019-.23L11.441,7.3l-.016-.23v-.23l.016-.211.017-.211Z" fill="#dcddde" stroke="#d9d9d9" stroke-width="0.117"/>
        <path id="Path_72" data-name="Path 72" d="M10.749,13.861l.315-.177.321-.175-.276.276-.282.283-.282.276-.281.265-.3.276-.3.247-.3.248-.316.228-.3.211-.321.175-.3.159-.315.124-.321.106-.316.053-.318.017-.321-.017.334-.193.335-.212.631-.387.3-.176.3-.194.283-.177L9,14.9l.3-.176.279-.176.282-.194.3-.175L10.441,14Zm1.145-1.937.158.211.159.211-.07-.228-.089-.23-.092-.247-.211-.491-.122-.23-.138-.229-.159-.227-.175-.211-.211-.175L10.715,9.9l-.247-.158-.281-.124-.3-.106-.351-.07-.37-.035.246.141.23.158.227.158.422.315.193.176.195.193.194.175.528.581.158.21.176.194Z" fill="#dcddde" stroke="#d9d9d9" stroke-width="0.117"/>
        <path id="Path_73" data-name="Path 73" d="M12.491,11.836l.069.321.072.333.035-.386.052-.37.071-.773.017-.37.017-.37-.018-.37-.018-.35-.035-.352L12.7,8.834l-.089-.321-.106-.3-.123-.263L12.2,7.7l-.194-.211L11.782,7.3l.071.352L11.905,8l.071.351.053.321.035.333.053.321.037.321.053.321.034.316.054.321.034.3.107.643Zm-.9-.247.213.248.176.192-.035-.527-.071-.457-.092-.388-.141-.351-.14-.3-.177-.264L11.149,9.5l-.195-.23-.175-.228-.195-.228-.175-.247-.141-.282-.141-.316-.106-.352L9.933,7.2,9.9,6.722l-.318.3-.191.335L9.3,7.706l-.018.37.07.369.141.387.194.387.23.386.264.369.276.369.3.351.3.321.282.321Z" fill="#dcddde" stroke="#d9d9d9" stroke-width="0.117"/>
        <path id="Path_74" data-name="Path 74" d="M12.8,7.686l.1-.321.141-.321-.505.493-.422.475-.3.441-.21.422-.141.4-.07.369-.017.37.035.334.09.321.085.3.124.282.124.245.106.247.1.211.07.211.036.176v-.37l.018-.351.016-.351.018-.353.017-.334.035-.334.035-.333.034-.318.054-.316.052-.334.092-.321.07-.321.089-.321Zm-1.93,5.964.281-.037.264-.035-.229.106-.229.088-.246.107-.247.092-.264.089-.54.141-.276.035-.282.018h-.3l-.3-.018-.3-.069-.3-.092-.3-.124-.3-.175-.3-.211.282.052.282.054.562.069.276.017.283.017H9.23l.282-.018h.264l.282-.035.545-.036Z" fill="#dcddde" stroke="#d9d9d9" stroke-width="0.117"/>
        <path id="Path_75" data-name="Path 75" d="M5.947,16.273l-.14.141-.124.158.123-.421L6,15.779l.227-.315.283-.3.315-.247.353-.23.386-.193.4-.159.844-.281.439-.107.44-.106.439-.089.422-.092.387-.071.387-.088-.193.07-.264.141-.321.213-.386.228-.387.246-.4.23-.387.211-.353.141-.211.036-.192.034-.211.053-.21.053-.213.089-.209.069-.193.088-.211.106-.193.106-.193.122-.176.124-.177.123-.157.141Zm5.4-2.3.3-.158.228-.138-.244.511-.247.422-.263.334-.246.3-.264.229-.264.211-.79.476-.265.175-.263.176-.246.211-.247.263-.246.321-.228.37-.229.457-.158-.4-.054-.387.053-.387.141-.352.21-.334.281-.334.334-.321.369-.282.387-.282.4-.246.422-.247.406-.211.367-.193Z" fill="#dcddde" stroke="#d9d9d9" stroke-width="0.117"/>
        <path id="Path_76" data-name="Path 76" d="M10.222,17.922l-.07.321-.07.335-.176-.668-.092-.58L9.8,16.8l.053-.456.1-.388.159-.351.193-.3.21-.247.247-.23.246-.193.264-.158.247-.141.228-.141.211-.123.295-.265-.194.3-.193.3-.193.3-.175.282-.159.282-.158.3-.159.282-.14.282-.14.3-.123.3-.124.282-.106.3-.092.321Z" fill="#dcddde" stroke="#d9d9d9" stroke-width="0.117"/>
      </g>
    </g>
    <g id="Group_4" data-name="Group 4" transform="translate(-14.828 -99.021)">
      <path id="Path_77" data-name="Path 77" d="M114.7,127.682c-6.227-.857-29.212-2.017-39.467-3.7A154.415,154.415,0,0,1,51.247,117.6a58.865,58.865,0,0,1-7.759-3.247c-1.425-1.09-4.854-2.709-5.789-4.235,14.9,7.075,20.9,9.024,38.383,12.562,7.088,1.456,32.888,3.545,38.623,5.005Z" fill="#231f20" stroke="#231f20" stroke-width="0.274"/>
      <g id="Group_3" data-name="Group 3">
        <path id="Path_78" data-name="Path 78" d="M84.648,125.4l-.352-.23-.321-.1.546.034.321.035.316.034.634.071.321.017.281.035.439.4.422.386.37.387.335.388.334.367.615.72.634.668.335.3.352.3.4.276.422.265.475.246.528.228.6.193-.668.229-.651.054-.651-.106-.651-.264-.634-.351-.634-.457-.6-.526-.6-.563-.563-.579-1.038-1.148-.475-.527-.44-.439Z" stroke="#231f20" stroke-width="0.117" fill="url(#linear-gradient)"/>
        <path id="Path_79" data-name="Path 79" d="M87.268,126.156l-.44-.439-.457-.4.175.017h.194l.176.018.387.034.193.036.193.017.193.018.193.017.211.017.194.036.633.046h.211l.211.018.159.246.193.3.247.351.265.37.321.4.335.4.352.422.37.4.388.388.386.369.406.333.387.281.388.228.387.159.369.092h.353l-.775.124-.721.017-.668-.069-.632-.158-.581-.245-.528-.3-.528-.351-.475-.4-.475-.422-.439-.457-.863-.967-.439-.474Z" stroke="#231f20" stroke-width="0.117" fill="url(#linear-gradient-2)"/>
        <path id="Path_80" data-name="Path 80" d="M90.487,126.98l-.475-.65-.493-.738h.3l.282.018.282.035.282.035.276.036.282.033h.65l.283.281.263.3.265.282.264.316.264.3.246.321.265.3.248.321.263.3.264.3.282.3.265.282.9.79.335.23-.44.053-.422.035-.4-.017-.4-.07-.405-.092-.387-.158-.386-.193-.405-.264-.4-.3-.405-.351-.405-.422-.418-.462-.44-.546Z" stroke="#231f20" stroke-width="0.117" fill="url(#linear-gradient-3)"/>
        <path id="Path_81" data-name="Path 81" d="M92.526,126.381l-.321-.334-.282-.282,1.882.175.212.281.229.276.21.283.211.279.211.282.23.281.211.281.228.282.247.263.247.276.247.265.282.262.281.264.3.265.321.246.334.244-.334.178-.368.07-.37-.053-.387-.157-.388-.23-.4-.321-.4-.351-.406-.421-.386-.44-.406-.456-.369-.458-.37-.439-.352-.439Z" stroke="#231f20" stroke-width="0.117" fill="url(#linear-gradient-4)"/>
        <path id="Path_82" data-name="Path 82" d="M94.637,126.977l-.37-.528-.369-.505.316.053.246.017.176.017.316.036h.158l.23.017.3.017.334.475.334.439.334.422.37.369.352.333.352.321.369.276.352.246.352.21.353.193.333.141.321.123.321.106.282.07.282.034.247.017-.551.352-.505.23-.505.107h-.494l-.474-.088-.457-.158-.439-.247-.441-.315-.422-.386-.424-.4-.386-.476-.405-.473-.387-.505Z" stroke="#231f20" stroke-width="0.117" fill="url(#linear-gradient-5)"/>
        <path id="Path_83" data-name="Path 83" d="M96.343,126.993l-.335-.441-.321-.456.352.018.387.034.368.035.37.017.321.036.264.016.193.018.088.017.035.036.092.092.141.141.175.177.194.211.246.246.265.263.3.282.336.279.35.3.353.283.387.276.4.263.4.246.422.211.422.175-.563.07-.545.037-.528-.036-.505-.069-.476-.1-.474-.158-.44-.194-.422-.246-.422-.263-.388-.3-.387-.334-.369-.369-.352-.387Z" stroke="#231f20" stroke-width="0.117" fill="url(#linear-gradient-6)"/>
        <path id="Path_84" data-name="Path 84" d="M98.629,126.991l-.321-.352-.3-.352h.211l.264.018.276.017h.3l.282.034.282.018.228.018.194.035v.035l.071.092.175.159.247.193.3.246.35.282.388.3.405.3.422.315.422.321.4.3.388.264.352.246.321.193.247.14.175.088-.474.088-.458.035-.474-.052-.475-.092-.475-.157-.456-.194-.457-.228-.458-.276-.422-.3-.422-.321-.4-.333-.388-.352-.37-.369Z" stroke="#231f20" stroke-width="0.117" fill="url(#linear-gradient-7)"/>
        <path id="Path_85" data-name="Path 85" d="M100.283,126.691l-.194-.175-.088-.071.229.017.247.017.264.017.263.018.282.033.562.037.3.017.316.193.316.194.318.209.3.2.321.209.3.229.316.211.3.211.62.439.316.211.3.21.634.387.3.193.321.176-.281.281-.37.123h-.457l-.505-.122-.563-.211-.579-.3-.615-.353-.6-.386-.6-.423-.563-.421-.527-.4-.459-.387-.4-.316Z" stroke="#231f20" stroke-width="0.117" fill="url(#linear-gradient-8)"/>
        <path id="Path_86" data-name="Path 86" d="M103.519,127.479l-.634-.422-.7-.439.3.018.334.018h.3l.3.017.264.017.211.017.141.018.053.017.036.053.106.106.159.141.21.193.264.228.3.265.321.262.735.563.387.281.387.245.405.247.386.21.387.176.37.123.335.071-.3.106-.3.053-.3.017-.3-.046-.3-.089-.321-.122-.334-.175-.352-.211-.387-.246-.4-.281-.441-.315-.492-.334-.545-.369Z" stroke="#231f20" stroke-width="0.117" fill="url(#linear-gradient-9)"/>
        <path id="Path_87" data-name="Path 87" d="M104.346,127l-.176-.156-.107-.107.282.017.265.018.262.017.264.034.246.018.265.017.276.034.282.017.211.193.23.193.21.193.23.211.229.229.228.211.246.211.248.21.491.388.265.174.245.158.282.138.264.122.282.089.282.07-.4.158-.44.07-.458-.033-.474-.123-.492-.175-.474-.229-.494-.276-.457-.321-.44-.321-.422-.334-.387-.316-.334-.321-.3-.263Z" stroke="#231f20" stroke-width="0.117" fill="url(#linear-gradient-10)"/>
        <path id="Path_88" data-name="Path 88" d="M106.877,127.459l-.321-.3-.321-.282.194.018.211.035.474.035.265.034.281.018.3.034.282.017.088.211.123.211.124.194.159.194.175.175.388.35.228.141.23.141.247.123.263.123.265.092.281.071.276.069.3.035.3.018-.351.246-.35.158-.352.071-.352.018-.353-.069-.351-.107-.352-.157-.351-.21-.335-.229-.352-.281-.335-.282-.668-.6Z" stroke="#231f20" stroke-width="0.117" fill="url(#linear-gradient-11)"/>
        <path id="Path_89" data-name="Path 89" d="M108.566,127.67l-.158-.3-.106-.3.211.018.211.017.228.035.457.035.247.017.264.018.3.017.123.176.141.176.141.158.14.141.141.14.159.106.158.124.159.106.175.092.387.184.211.071.211.07.228.07.247.053.248.071-.3.122-.321.089-.333.053h-.37l-.352-.017-.387-.053-.369-.106-.369-.1-.353-.158-.334-.176-.3-.193-.282-.227-.246-.247Z" stroke="#231f20" stroke-width="0.117" fill="url(#linear-gradient-12)"/>
        <path id="Path_90" data-name="Path 90" d="M110.518,127.663l-.158-.211-.141-.229.3.036.176.017.159.017.3.035h.246v.071l.158.14.265.194.352.229.844.457.422.175.37.106-.106.106-.159.07-.193.037h-.211l-.246-.017-.263-.052-.282-.089-.281-.092-.282-.124-.282-.141-.282-.157-.247-.176-.247-.193Z" stroke="#231f20" stroke-width="0.117" fill="url(#linear-gradient-13)"/>
        <path id="Path_91" data-name="Path 91" d="M111.467,127.434l-.092-.07-.017-.035,1.371.156.106.07.177.089.21.106.23.106.246.123.228.092.211.088.176.052-.036.247-.088.158-.14.072-.193.035-.23-.034-.264-.089-.263-.1-.282-.141-.282-.159-.528-.349-.211-.159-.193-.141Z" stroke="#231f20" stroke-width="0.117" fill="url(#linear-gradient-14)"/>
        <path id="Path_92" data-name="Path 92" d="M113.613,127.929l-.334-.175-.3-.158-.246-.106.3.018.264.018.246.017.229.017.211.018.228.017.229.035.265.052-.054.335-.158.158h-.247l-.321-.092Z" stroke="#231f20" stroke-width="0.117" fill="url(#linear-gradient-15)"/>
        <path id="Path_93" data-name="Path 93" d="M113.666,127.05l-.352.089-.3.106-.23.071.3.051.263.035.228.052.23.034.21.052.211.053.247.053.264.07.018-.388-.158-.246-.247-.088-.334-.016Z" stroke="#231f20" stroke-width="0.117" fill="url(#linear-gradient-16)"/>
        <path id="Path_94" data-name="Path 94" d="M86.3,123.219l-.493.405-.505.371.176.034.193.017.193.018.176.035.194.018.193.017.211.017.193.018.194.016.211.018.21.035.405.035.21.034.229.017.211.036.175-.246.227-.3.265-.352.316-.352.334-.387.37-.387.4-.387.4-.37.441-.352.438-.315.439-.282.458-.228.439-.177.44-.106.439-.018.4.07-.773-.3-.735-.193-.689-.052-.651.035-.634.138-.58.211-.563.3-.545.335-.528.388-.505.422-.508.441-.494.457-.491.439Z" stroke="#231f20" stroke-width="0.117" fill="url(#linear-gradient-17)"/>
        <path id="Path_95" data-name="Path 95" d="M89.64,123.007l-.544.651-.58.721.321.018.281.033.265.018.491.07.263.035.3.052.351.054.321-.264.3-.282.321-.3.281-.3.6-.6.282-.3.3-.3.3-.281.315-.264.3-.265.316-.264.334-.229.352-.194.352-.193.37-.159-.441-.158-.422-.1-.4-.07-.424-.035-.4.035-.422.089-.4.123-.422.194-.439.247-.441.318-.457.368-.474.441-.509.505Z" stroke="#231f20" stroke-width="0.117" fill="url(#linear-gradient-18)"/>
        <path id="Path_96" data-name="Path 96" d="M91.431,124.059l-.335.318-.321.264,1.918.228.246-.282.246-.282.23-.282.245-.276.247-.282.245-.3.263-.282.246-.265.282-.264.281-.264.3-.247.316-.229.334-.228.352-.194.369-.175.387-.159-.333-.281-.371-.141-.4-.034-.4.092-.44.176-.439.247-.457.316-.457.37-.457.4-.456.422-.439.422-.422.44-.386.4Z" stroke="#231f20" stroke-width="0.117" fill="url(#linear-gradient-19)"/>
        <path id="Path_97" data-name="Path 97" d="M93.615,123.83l-.843,1.02.335.018.276.016.229.018.211.035.21.035.23.034.263.036.318.051.369-.475.351-.422.369-.388.352-.334.367-.281.352-.248.334-.211.352-.175.334-.138.316-.106.334-.089.321-.07.3-.037.3-.034h.58l-.528-.511-.505-.367-.493-.246-.493-.141-.492-.017-.475.071-.474.177-.457.229-.456.321-.439.369-.457.422-.862.932Z" stroke="#231f20" stroke-width="0.117" fill="url(#linear-gradient-20)"/>
        <path id="Path_98" data-name="Path 98" d="M95.6,124.179l-.37.423-.369.457.369.053.422.051.846.106.386.052.3.037.23.017h.092l.034-.035.089-.07.123-.123.158-.159.194-.193.227-.195.264-.228.3-.247.334-.23.351-.246.388-.23.422-.227.422-.195.456-.176.475-.16.493-.1-.581-.211-.545-.158-.545-.092-.505-.035h-.505l-.492.071-.475.106-.457.159-.457.193-.422.247-.439.282-.4.321-.405.352Z" stroke="#231f20" stroke-width="0.117" fill="url(#linear-gradient-21)"/>
        <path id="Path_99" data-name="Path 99" d="M98.188,124.723l-.367.334-.333.335.227.017.282.035.321.034.669.07.3.035.264.017h.194v-.035l.088-.088.175-.123.264-.177.321-.193.37-.23.422-.247.439-.245.439-.248.457-.247.879-.438.388-.177.35-.141.283-.089.227-.053-.475-.192-.475-.141-.505-.053H102.9l-.505.054-.505.1-.492.159-.505.194-.474.229-.475.247-.918.6-.405.318Z" stroke="#231f20" stroke-width="0.117" fill="url(#linear-gradient-22)"/>
        <path id="Path_100" data-name="Path 100" d="M100,125.407l-.228.157-.106.054.247.053.276.035.3.034.321.018.334.036.335.034.632.106.335-.158.315-.16.335-.175.315-.177.321-.158.316-.176.334-.176.316-.175.321-.161.315-.175.335-.158.316-.141.321-.159.333-.14.334-.138.334-.122-.247-.387-.369-.229-.457-.086h-.527l-.58.123L104.5,123l-.668.265-.65.3-.668.335-.615.352-.58.335-.528.334-.438.282Z" stroke="#231f20" stroke-width="0.117" fill="url(#linear-gradient-23)"/>
        <path id="Path_101" data-name="Path 101" d="M104.274,125.879l-.193.141-.106.089.281.034.264.036.228.035.23.017.246.017.228.035.265.035.276.034.247-.157.247-.16.264-.193.264-.176.276-.193.282-.193.281-.194.563-.352.3-.141.3-.14.282-.107.3-.092.282-.054h.281l.281.017-.388-.276-.439-.159-.457-.069h-.491l-.512.092-.527.16-.505.193-.505.23-.949.528-.791.528-.333.23Z" stroke="#231f20" stroke-width="0.117" fill="url(#linear-gradient-24)"/>
        <path id="Path_102" data-name="Path 102" d="M103.552,125.194l-.689.351-.758.352.282.018.321.034.321.036.321.051.282.036.21.036.159.016.07-.016.035-.037.124-.092.158-.138.211-.158.263-.194.321-.211.334-.23.369-.23.4-.229.405-.228.439-.195.439-.176.441-.14.439-.09.422-.051h.422l-.3-.194-.315-.14-.3-.071-.316-.034-.321.017-.334.07-.371.124-.385.141-.422.194-.441.211-.491.265-.527.282-.581.3Z" stroke="#231f20" stroke-width="0.117" fill="url(#linear-gradient-25)"/>
        <path id="Path_103" data-name="Path 103" d="M106.753,125.841l-.37.265-.369.228.211.035.229.017.264.053.282.033.3.037.321.034.3.037.3.034.106-.228.124-.194.14-.194.176-.176.176-.158.193-.124.23-.124.228-.106.246-.092.263-.071.265-.052.282-.037.3-.017h.3l.615.069-.321-.352-.333-.264-.335-.175-.352-.106-.352-.017-.369.035-.388.088-.369.124-.386.194-.37.193-.387.246-.387.248-.387.246Z" stroke="#231f20" stroke-width="0.117" fill="url(#linear-gradient-26)"/>
        <path id="Path_104" data-name="Path 104" d="M110.553,126.454l-.194.194-.175.211.157.035.194.035.193.035.194.034.175.017.141.018h.141l.07-.036.175-.106.3-.141.351-.158.4-.138.457-.123.439-.071.441.017-.089-.141-.141-.123-.194-.1-.211-.071-.246-.052-.281-.017h-.282l-.321.017-.3.052-.321.072-.3.1-.276.124-.265.141Z" stroke="#231f20" stroke-width="0.117" fill="url(#linear-gradient-27)"/>
        <path id="Path_105" data-name="Path 105" d="M111.466,126.965l-.092.07-.036.017,1.408.245.124-.051.193-.054.211-.071.247-.071.246-.053.246-.034h.229l.194.034.017-.276-.07-.211-.124-.141-.193-.092-.228-.037-.264.018-.282.035-.321.071-.3.106-.3.107-.282.106-.246.106-.211.106Z" stroke="#231f20" stroke-width="0.117" fill="url(#linear-gradient-28)"/>
        <path id="Path_106" data-name="Path 106" d="M108.547,126.033l-.193.282-.158.321.23.018.21.035.23.017.247.035.246.037.264.017.281.053.3.033.106-.156.123-.141.141-.123.158-.124.176-.106.193-.106.194-.089.211-.069.211-.071.228-.053.211-.035.23-.018.228-.017h.228l.23.017.211.034L113,125.6l-.3-.175-.334-.157-.37-.107-.37-.07-.368-.046h-.388l-.386.033-.369.072-.369.124-.335.141-.321.176-.3.211Z" stroke="#231f20" stroke-width="0.117" fill="url(#linear-gradient-29)"/>
        <path id="Path_107" data-name="Path 107" d="M50.072,122l.422.246.551.176-.089-.265-.054-.276-.052-.281-.035-.321-.018-.321v-.333l.017-.321.017-.334.035-.335.034-.332.053-.321.07-.3.052-.3.071-.264.092-.264.071-.229-.092-.034-.071-.018-.092-.035-.072-.017-.071-.035-.069-.018-.088-.036-.092-.035-.035.054-.089.141-.122.228-.158.282-.177.334-.175.37-.159.422-.139.422-.1.441-.037.422.018.422.089.387.194.353Z" stroke="#231f20" stroke-width="0.117" fill="url(#linear-gradient-30)"/>
        <path id="Path_108" data-name="Path 108" d="M52.535,123.685l.193.017H52.9l-.211-.563-.088-.316-.071-.321-.07-.352-.054-.351-.053-.352-.034-.369-.019-.37v-.387l.018-.369.034-.387.052-.369.071-.387.092-.351.106-.37-.21-.071-.213-.07-.194-.07-.191-.053-.16-.052-.175-.053-.141-.035-.124-.035-.245.968-.175.879-.092.756-.017.668.035.58.106.492.141.422.159.351.211.282.228.228.229.159.227.122.248.088Z" stroke="#231f20" stroke-width="0.117" fill="url(#linear-gradient-31)"/>
        <path id="Path_109" data-name="Path 109" d="M54,124.54l.441.018.509-.141-.193-.321-.193-.334-.159-.351-.141-.334-.106-.369-.107-.352-.07-.37-.071-.369-.035-.369-.017-.386v-.37l.034-.387.035-.386.07-.37.07-.388.106-.368-.176-.07-.422-.14-.211-.071-.211-.069-.175-.07-.159-.054-.123-.034-.106.351-.1.441-.071.493-.033.545-.018.6v.6l.053.6.088.581.125.545.158.505.23.439.263.352.335.264Z" stroke="#231f20" stroke-width="0.117" fill="url(#linear-gradient-32)"/>
        <path id="Path_110" data-name="Path 110" d="M53.939,119.71l.106-.581.157-.546.194.07.2.071.209.052.213.07.21.071.228.07.211.07.228.07v.773l.018.459.036.949.017.492.053.505.052.474.072.475.07.439.107.422.123.37.141.315.176.265.193.193.211.123-.476.037-.458-.071-.4-.175-.369-.246-.352-.335-.3-.4-.246-.456-.23-.505-.176-.546-.138-.581-.088-.6-.036-.6v-.6Z" stroke="#231f20" stroke-width="0.117" fill="url(#linear-gradient-33)"/>
        <path id="Path_111" data-name="Path 111" d="M57.37,121.624v.473l.037.932.035.458.053.456.089.422.092.388.14.368.158.333.194.283.246.228-.509-.123-.422-.176-.352-.245-.3-.282-.247-.335-.194-.386L56.251,124l-.107-.441-.072-.492-.052-.505-.037-1.091-.035-1.143v-.58l-.036-.6.176.07.176.053.157.053.177.035.175.052.159.052.176.053.174.07.036.352.018.386.018.422.017.44Z" stroke="#231f20" stroke-width="0.117" fill="url(#linear-gradient-34)"/>
        <path id="Path_112" data-name="Path 112" d="M57.369,120.6l-.035-.528-.037-.492.193.052.176.052.158.054.178.052.175.052.157.053.176.035.194.052-.018.052-.034.124-.036.194-.053.247-.034.315-.036.353-.018.4.018.457.052.475.09.526.159.551.193.563.282.58.352.615.422.6.528.615-.7-.034-.6-.14-.491-.228-.405-.3-.321-.387-.231-.44-.193-.492-.124-.545-.071-.563-.052-.579-.018-.6v-1.178Z" stroke="#231f20" stroke-width="0.117" fill="url(#linear-gradient-35)"/>
        <path id="Path_113" data-name="Path 113" d="M58.476,121.324l.07-.668.141-.669,1.671.527-.017.282-.017.334.017.367.037.422.052.44.088.475.089.493.141.505.159.505.193.493.211.491.264.475.281.457.335.422.369.386.405.333-.475.088-.475-.034-.457-.159-.457-.247-.439-.333-.422-.4-.388-.491-.354-.545-.3-.581-.265-.633-.212-.669-.138-.689-.088-.687Z" stroke="#231f20" stroke-width="0.117" fill="url(#linear-gradient-36)"/>
        <path id="Path_114" data-name="Path 114" d="M63.14,123.448l.035.476.053.457.07.457.092.439.107.422.141.421.158.386.194.371.229.316.246.3.3.265-.352.052-.369-.017-.369-.092-.369-.158-.369-.23-.371-.281-.352-.35-.352-.44-.321-.475-.281-.563-.265-.615-.227-.7-.178-.758-.141-.807-.089-.9-.036-.949.264.092.334.092.371.123.386.1.37.124.369.1.321.092.247.053.035.4.019.439.034.441.017.457Z" stroke="#231f20" stroke-width="0.117" fill="url(#linear-gradient-37)"/>
        <path id="Path_115" data-name="Path 115" d="M63.068,122.2l-.034-.505-.054-.457.246.052.213.053.193.07.191.051.213.054.194.051.228.071.265.069.053.477.051.456.053.457.072.439.053.441.07.422.092.4.09.4.123.388.141.386.175.37.194.37.246.367.265.352.321.334.354.333-.792.037-.668-.071-.58-.192-.458-.3-.386-.367-.318-.44-.228-.493-.177-.562-.141-.563-.092-.617-.107-1.194-.017-.6Z" stroke="#231f20" stroke-width="0.117" fill="url(#linear-gradient-38)"/>
        <path id="Path_116" data-name="Path 116" d="M64.845,122.656l-.053-.493-.037-.422.248.054.211.051.193.053.194.035.175.052.2.034.227.07.265.053.088.687.106.651.124.6.124.563.138.505.158.492.176.422.176.405.176.369.2.334.211.282.194.263.211.246.211.193.229.176.211.158-.7.036-.615-.088-.546-.192-.476-.3-.4-.37-.351-.439-.283-.508-.247-.546-.21-.563-.159-.6-.124-.581-.089-.6-.092-.563Z" stroke="#231f20" stroke-width="0.117" fill="url(#linear-gradient-39)"/>
        <path id="Path_117" data-name="Path 117" d="M66.585,123.059l-.07-.474-.072-.422.211.035.211.053.212.052.423.106.21.051.211.052.228.054.017.333.054.37.07.387.123.422.124.457.175.439.177.474.193.458.23.457.247.439.245.4.265.386.264.37.282.321.3.263.283.211-.669.036-.6-.092-.528-.195-.491-.276-.4-.368-.37-.422-.321-.492-.282-.526-.246-.551-.194-.58-.159-.58-.141-.579-.124-.551Z" stroke="#231f20" stroke-width="0.117" fill="url(#linear-gradient-40)"/>
        <path id="Path_118" data-name="Path 118" d="M68.2,123.04l-.053-.3v-.175l.264.051.247.053.246.07.246.053.246.07.23.052.228.053.23.037.088.3.2.755.125.458.141.475.157.491.176.491.195.512.211.491.228.457.247.441.264.387.3.332.3.264.334.193.351.106-.689.089-.634-.092-.58-.228-.528-.352-.493-.439-.422-.527-.386-.6-.354-.615-.282-.65-.247-.634-.211-.6-.176-.579-.106-.493Z" stroke="#231f20" stroke-width="0.117" fill="url(#linear-gradient-41)"/>
        <path id="Path_119" data-name="Path 119" d="M70.331,123.794l-.106-.422-.092-.333.193.035.194.017.175.034.159.035.176.035.158.037.14.034.158.018.054.4.092.422.107.421.1.405.138.422.159.4.175.388.422.773.247.369.283.351.276.321.335.321.334.276.37.264.4.246-.632.141h-.562l-.511-.122-.475-.246-.4-.334-.37-.4-.334-.49-.3-.528-.248-.563-.229-.579-.176-.581-.177-.563-.141-.527Z" stroke="#231f20" stroke-width="0.117" fill="url(#linear-gradient-42)"/>
        <path id="Path_120" data-name="Path 120" d="M71.758,124.567l-.159-.634-.106-.649.229.052.23.035.246.053.228.034.228.036.211.051.23.035.211.053.106.369.088.387.106.37.09.368.106.369.1.369.141.352.159.369.193.352.213.369.265.351.315.352.353.334.422.351.493.352.546.333h-.527l-.511-.053-.491-.123L75,129.03l-.439-.245-.44-.3-.387-.35-.386-.387-.335-.441-.321-.474-.282-.528-.264-.545-.211-.58Z" stroke="#231f20" stroke-width="0.117" fill="url(#linear-gradient-43)"/>
        <path id="Path_121" data-name="Path 121" d="M73.6,124.917l-.141-.632-.107-.634.194.035.211.054.421.069.211.037.23.052.228.035.23.053.07.439.106.439.138.441.176.421.21.422.231.422.264.405.3.387.321.388.352.349.371.334.4.321.422.281.457.264.458.228.492.193-.687.054-.668-.035-.615-.106-.581-.174-.545-.229-.511-.3-.474-.353-.422-.421-.388-.439-.352-.493-.319-.527-.263-.561-.228-.6Z" stroke="#231f20" stroke-width="0.117" fill="url(#linear-gradient-44)"/>
        <path id="Path_122" data-name="Path 122" d="M75.346,125.163l-.159-.582-.106-.6.193.034.177.017.159.018.157.018.159.017.175.035.21.034.248.034.247.511.211.473.405.88.211.4.195.369.211.351.229.334.247.334.282.3.316.321.351.276.406.3.457.276.509.281.581.276-.58-.034-.563-.092-.564-.141-.544-.21-.511-.246-.505-.3-.475-.335-.44-.386-.4-.421-.387-.456-.335-.494-.3-.505-.246-.544Z" stroke="#231f20" stroke-width="0.117" fill="url(#linear-gradient-45)"/>
        <path id="Path_123" data-name="Path 123" d="M77.011,125.284l-.247-.563-.228-.545.158.017.211.036.263.035.264.035.282.053.247.035.209.035.159.017.211.493.23.493.265.456.263.439.3.4.316.4.335.369.369.37.369.334.406.315.421.321.441.282.457.263.492.246.493.228.528.211-.862.035-.81-.034-.721-.123-.668-.194-.615-.263L80,129.172l-.512-.367-.456-.422-.422-.456-.388-.493-.335-.505-.316-.551-.3-.543Z" stroke="#231f20" stroke-width="0.117" fill="url(#linear-gradient-46)"/>
        <path id="Path_124" data-name="Path 124" d="M78.933,125.687l-.318-.615-.265-.634.264.037.265.034.276.017.281.035.246.017.211.035.175.035.088.053.321.246.321.264.669.632.334.352.352.367.352.388.353.388.351.4.735.773.388.386.387.387.388.35.387.352.405.316-.475-.017-.491-.07-.528-.123-.545-.193-.546-.227-.551-.282-.545-.333-.545-.369-.528-.422-.505-.439-.476-.491-.459-.528-.4-.545Z" stroke="#231f20" stroke-width="0.117" fill="url(#linear-gradient-47)"/>
        <path id="Path_125" data-name="Path 125" d="M81.325,125.667l-.564-.527-.563-.473h.195l.227.034.265.017.263.053.282.035.282.052.263.053.23.034.878.808.424.422.422.422.4.421.809.845.781.771.387.353.369.315.369.282.37.246.352.211.352.157.352.106-.458.3-.474.123h-.475l-.493-.123-.492-.246-.493-.334-.505-.421-.505-.475-1.038-1.108-1.092-1.194-.546-.58Z" stroke="#231f20" stroke-width="0.117" fill="url(#linear-gradient-48)"/>
        <path id="Path_126" data-name="Path 126" d="M83.171,125.754l-.475-.439-.492-.422.175.018.21.017.265.034.263.018.265.034.211.017.175.018h.106l.3.069.3.141.3.194.318.264.321.315.334.37.352.388.353.42.4.44.405.439.458.457.474.441.511.439.546.4.58.368.634.334h-.722l-.685-.069-.616-.177-.6-.227-.545-.282-.505-.351-.494-.386-.457-.422-.458-.456-.439-.474-.422-.475-.881-.983Z" stroke="#231f20" stroke-width="0.117" fill="url(#linear-gradient-49)"/>
        <path id="Path_127" data-name="Path 127" d="M52.7,111.146l.475-.018.544.141-.176.176-.158.211-.158.264-.141.282-.14.321-.124.321-.121.352-.124.369-.1.352-.092.37-.089.368-.092.352-.071.353-.07.333-.053.3-.052.282-.092-.017-.071-.017L51.7,116.2l-.071-.017-.07-.037-.071-.034L51.4,116.1l-.1-.036v-.071l-.018-.193-.017-.3-.018-.371-.018-.439.034-.967.046-.505.106-.475.141-.457.175-.405.263-.334.3-.247Z" stroke="#231f20" stroke-width="0.117" fill="url(#linear-gradient-50)"/>
        <path id="Path_128" data-name="Path 128" d="M55.145,111.11l.16.106.14.106-.246.228-.245.263-.212.247-.227.281-.195.282-.194.3-.175.3-.158.321-.158.334-.281.7-.123.37-.1.386-.106.387-.1.405-.089.422-.21-.035-.158-.017-.107-.035-.07-.036-.07-.017-.072-.035-.07-.018-.106-.034.228-1.148.246-.964.246-.827.245-.686.248-.546.245-.44.245-.321.23-.228.246-.159.21-.071.231-.018.193.036.193.07Z" stroke="#231f20" stroke-width="0.117" fill="url(#linear-gradient-51)"/>
        <path id="Path_129" data-name="Path 129" d="M56.641,111.126l.387.23.4.4-.316.229-.3.265-.282.264-.264.265-.264.276-.228.321-.211.321-.193.316-.194.353-.158.352-.158.369-.122.387-.123.4-.089.422-.092.441-.071.456-.191-.052-.211-.07-.23-.071-.229-.092-.211-.092-.193-.071-.158-.069-.106-.035.052-.422.09-.476.14-.528.175-.563.23-.58.263-.563.276-.545.316-.511.335-.457.351-.387.368-.3.387-.2.4-.07Z" stroke="#231f20" stroke-width="0.117" fill="url(#linear-gradient-52)"/>
        <path id="Path_130" data-name="Path 130" d="M54.675,115.91l-.141.634-.069.65.211.053.211.054.211.069.211.071.228.088.23.052.21.071.229.034.158-.4.14-.441.176-.439.159-.439.174-.458.193-.458.194-.439.193-.422.209-.405.23-.37.245-.352.248-.3.276-.264.282-.211.3-.159.321-.092-.422-.282-.422-.158-.439-.053-.422.053-.44.141-.422.23-.405.321-.387.369-.349.422-.352.493-.3.546-.263.563-.228.6Z" stroke="#231f20" stroke-width="0.117" fill="url(#linear-gradient-53)"/>
        <path id="Path_131" data-name="Path 131" d="M56.61,116.806l-.211.546-.228.505.193.017.176.053.176.052.177.07.175.054.176.07.193.052.194.034.017-.069.017-.176.052-.229.053-.321.092-.369.124-.422.14-.457.193-.475.227-.475.264-.475.334-.475.369-.44.441-.422.491-.352.564-.318.631-.23-.668-.3-.6-.158-.528-.017-.475.089-.422.193-.37.3-.332.37-.3.439-.265.492-.227.546-.23.564-.21.563-.21.58Z" stroke="#231f20" stroke-width="0.117" fill="url(#linear-gradient-54)"/>
        <path id="Path_132" data-name="Path 132" d="M57.928,116.8l-.157.721-.092.774,1.812.473.1-.3.141-.354.14-.369.175-.4.211-.422.21-.439.247-.441.264-.439.3-.439.333-.422.351-.387.369-.371.4-.334.441-.282.457-.247.491-.193-.405-.3-.458-.193-.491-.071-.492.018-.528.106-.527.211-.505.282-.505.353-.491.439-.458.494-.4.562-.37.616-.315.65Z" stroke="#231f20" stroke-width="0.117" fill="url(#linear-gradient-55)"/>
        <path id="Path_133" data-name="Path 133" d="M62.959,117.224l.21-.458.229-.457.228-.458.245-.422.263-.388.282-.369.3-.334.3-.3.334-.247.369-.194.369-.141-.318-.211-.351-.158-.37-.106-.4-.034-.422.035-.441.107-.439.175-.456.265-.459.334-.456.422-.457.528-.438.6-.422.7-.421.791-.387.915-.367,1,.263.053.333.07.335.106.371.106.351.123.335.092.3.092.246.07.175-.439.387-.918.193-.476Z" stroke="#231f20" stroke-width="0.117" fill="url(#linear-gradient-56)"/>
        <path id="Path_134" data-name="Path 134" d="M62.5,118.6l-.21.527-.209.476.246.035.211.051.193.037.194.052.193.053.211.053.229.035.263.051.23-.474.21-.476.211-.456.421-.88.228-.4.23-.4.227-.37.264-.37.276-.334.282-.315.316-.3.354-.282.367-.246.422-.229.439-.211-.721-.386-.65-.229-.6-.052-.545.089-.474.21-.458.318-.386.405-.37.493-.316.545-.3.581-.263.615-.245.615-.246.6Z" stroke="#231f20" stroke-width="0.117" fill="url(#linear-gradient-57)"/>
        <path id="Path_135" data-name="Path 135" d="M64.278,119.069l-.209.505-.194.44.264.052.23.053.211.052.193.035.21.053.211.053.246.035.282.053.321-.7.316-.651.3-.6.3-.546.282-.491.263-.441.276-.386.264-.371.281-.3.282-.264.276-.229.3-.193.3-.141.314-.123.336-.072.351-.052-.652-.351-.614-.175-.581-.035-.563.088-.505.211-.491.321-.457.388-.422.458-.386.528-.368.545-.333.563-.3.58-.276.581Z" stroke="#231f20" stroke-width="0.117" fill="url(#linear-gradient-58)"/>
        <path id="Path_136" data-name="Path 136" d="M66.125,119.507l-.209.474-.193.441.211.052.193.052.195.035.176.053.193.036.193.034.211.052.228.035.106-.351.157-.388.193-.387.228-.422.246-.422.6-.845.334-.422.351-.386.37-.388.368-.352.369-.3.387-.282.37-.229.367-.176.37-.106-.633-.3-.6-.141h-.56l-.551.107-.491.21-.474.3-.439.388-.422.439-.368.492-.352.527-.333.546-.282.545-.276.551Z" stroke="#231f20" stroke-width="0.117" fill="url(#linear-gradient-59)"/>
        <path id="Path_137" data-name="Path 137" d="M67.48,120.332l-.106.3-.052.175.264.053.229.052.458.106.228.053.211.034.23.035.228.035.158-.3.176-.369.21-.405.247-.422.262-.474.282-.475.3-.458.321-.475.334-.441.352-.4.368-.369.369-.3.388-.247.387-.158.4-.07.405.016-.651-.35-.634-.158-.634.018-.6.177-.58.281-.563.4-.528.477-.491.527-.457.564-.4.58-.367.563-.3.545-.246.476Z" stroke="#231f20" stroke-width="0.117" fill="url(#linear-gradient-60)"/>
        <path id="Path_138" data-name="Path 138" d="M69.626,120.419l-.193.422-.176.351.211.035.175.053.158.053.141.052.159.052.14.053.141.036.157.034.158-.439.193-.44.194-.422.211-.422.247-.422.243-.388.282-.387.3-.37.321-.352.351-.316.351-.282.387-.264.422-.23.422-.193.457-.141.492-.106L74.991,116l-.562-.211-.528-.052-.528.092-.492.211-.474.318-.44.387-.42.475-.388.511-.369.544-.334.564-.315.563-.264.528Z" stroke="#231f20" stroke-width="0.117" fill="url(#linear-gradient-61)"/>
        <path id="Path_139" data-name="Path 139" d="M71.085,120.224l-.321.651-.262.689.456.07.23.053.228.07.228.053.229.07.229.053.23.034.157-.387.158-.405.159-.387.157-.405.193-.387.193-.37.23-.387.246-.352.3-.335.316-.334.37-.3.4-.282.457-.247.505-.229.579-.195.634-.158-.511-.194-.505-.122-.527-.035-.493.036-.505.106-.474.158-.475.246-.475.3-.439.353-.422.422-.4.457-.387.511-.368.563Z" stroke="#231f20" stroke-width="0.117" fill="url(#linear-gradient-62)"/>
        <path id="Path_140" data-name="Path 140" d="M72.9,120.627l-.276.634-.246.689.211.035.211.035.246.036.475.07.247.034.491.07.124-.492.176-.456.193-.457.245-.441.264-.4.3-.387.321-.37.352-.335.386-.321.421-.264.441-.248.457-.211.492-.159.511-.141.527-.088.546-.036-.668-.276-.669-.177-.615-.092-.615-.017-.58.092-.563.159-.527.229-.511.3-.456.37-.456.422-.406.476-.386.528-.35.58Z" stroke="#231f20" stroke-width="0.117" fill="url(#linear-gradient-63)"/>
        <path id="Path_141" data-name="Path 141" d="M74.621,121.048l-.23.615-.175.651.211.017.176.017.175.035.176.035.176.034.175.036.211.053.228.035.3-.511.282-.493.244-.44.23-.439.246-.388.229-.369.228-.352.263-.321.281-.3.316-.264.353-.246.387-.229.457-.2.491-.176.58-.158.65-.137-.6-.092-.579-.052-.58.018-.564.071-.562.141-.528.177-.505.229-.493.282-.457.335-.439.388-.387.422-.369.475-.321.528Z" stroke="#231f20" stroke-width="0.117" fill="url(#linear-gradient-64)"/>
        <path id="Path_142" data-name="Path 142" d="M76.322,121.5l-.281.563-.281.581.141.017.193.017.211.053.23.035.228.053.212.052.193.017.159.018.262-.527.282-.475.321-.457.333-.422.352-.405.369-.37.4-.333.422-.321.439-.283.457-.263.475-.229.491-.229.505-.194.527-.176.551-.159.561-.141-.879-.21-.827-.123-.756-.034-.7.071-.651.141-.6.211-.545.263-.493.354-.473.386-.421.441-.387.475-.368.511-.334.527Z" stroke="#231f20" stroke-width="0.117" fill="url(#linear-gradient-65)"/>
        <path id="Path_143" data-name="Path 143" d="M78.086,121.625l-.386.615-.334.668.247.018.245.035.247.053.246.052.211.052.177.054.141.017.092-.017.354-.211.35-.247.369-.282.387-.321.387-.335.4-.352.422-.353.421-.368.441-.37.439-.371.457-.369.457-.335.474-.335.457-.3.491-.282.474-.247L85.264,118l-.511-.017L84.19,118l-.58.089-.582.124-.6.176-.6.228-.6.282-.6.335-.562.388-.544.422-.527.476-.475.528Z" stroke="#231f20" stroke-width="0.117" fill="url(#linear-gradient-66)"/>
        <path id="Path_144" data-name="Path 144" d="M80.214,122.31l-.632.475-.634.422.193.034.23.017.281.018.282.017.3.017h.792l.475-.351.918-.74.422-.386.422-.37.405-.371.4-.369.4-.352.422-.316.4-.3.422-.264.439-.23.457-.194.475-.158.493-.088.505-.054-.44-.439-.475-.263-.493-.106-.505.035-.527.141-.563.264-.563.354-.6.4-1.213,1-.615.551-.615.546-.632.546Z" stroke="#231f20" stroke-width="0.117" fill="url(#linear-gradient-67)"/>
        <path id="Path_145" data-name="Path 145" d="M81.9,122.713l-.551.387-.544.371.175.017.229.034.265.037.265.017.263.037.23.033.175.018.106.017h.316l.321-.092.334-.16.351-.228.352-.282.387-.334.4-.37.862-.792.473-.422.505-.405.528-.388.579-.371.6-.334.634-.3.686-.23-.735-.175-.686-.07-.65.035-.617.124-.58.211-.563.264-.545.335-.527.37-1.019.845-.491.457-.511.457-.505.44Z" stroke="#231f20" stroke-width="0.117" fill="url(#linear-gradient-68)"/>
        <path id="Path_146" data-name="Path 146" d="M83.451,123.449l-.387.177-.333.053.276.035.3.052.334.052.351.054.352.034.352.053.334.017.3.017.491-.37.44-.352.4-.352.386-.334.352-.335.333-.334.352-.321.333-.3.334-.282.369-.265.386-.247.422-.228.457-.211.491-.176.563-.16.615-.141-.651-.37-.687-.157h-.668l-.689.138-.687.265-.686.369-.668.441-.65.475-.615.528-.6.528-.58.494-.527.456-.474.388Z" stroke="#231f20" stroke-width="0.117" fill="url(#linear-gradient-69)"/>
        <path id="Path_147" data-name="Path 147" d="M49.061,109.444l.051-.211.053-.193-.281.369-.211.405-.158.387-.092.4-.035.422v.422l.053.422.089.422.1.422.138.405.315.808.177.387.159.386.158.351.158.352-.034-.07-.017-.123-.019-.122v-.158l-.017-.194V114.1l-.018-.23v-.229l-.018-.246-.018-.229-.017-.211-.036-.211-.034-.193-.053-.176-.088-.176-.07-.193-.07-.194-.052-.193-.054-.211-.053-.228-.035-.211-.019-.23L49,110.534l-.016-.229v-.23l.016-.211.017-.211Z" stroke="#231f20" stroke-width="0.117" fill="url(#linear-gradient-70)"/>
        <path id="Path_148" data-name="Path 148" d="M48.311,117.095l.315-.177.321-.175-.276.276-.281.283-.282.281-.281.265-.3.276-.3.246-.3.248-.316.228-.3.211-.321.176-.3.159-.315.123-.321.106-.316.053-.318.017-.321-.016.334-.194.335-.212.315-.193.321-.193.3-.176.3-.194.283-.177.276-.193.3-.176.279-.176.282-.194.3-.175.276-.177Z" stroke="#231f20" stroke-width="0.117" fill="url(#linear-gradient-71)"/>
        <path id="Path_149" data-name="Path 149" d="M49.452,115.159l.158.211.159.211-.07-.228-.089-.23-.092-.247-.211-.491-.122-.23-.138-.229-.159-.227-.175-.211-.211-.175-.229-.177-.247-.158-.281-.123-.3-.106-.351-.07-.37-.035.246.141.23.158.227.158.211.158.211.157.193.176.195.193.194.176.528.581.158.21.176.194Z" stroke="#231f20" stroke-width="0.117" fill="url(#linear-gradient-72)"/>
        <path id="Path_150" data-name="Path 150" d="M50.049,115.07l.069.321.072.333.035-.387.052-.369.036-.387.035-.386.017-.371.017-.369-.018-.37-.018-.351-.035-.352-.054-.321-.089-.321-.1-.3-.124-.263-.176-.247-.194-.211-.228-.193.071.352.052.352.071.352.053.321.035.333.053.321.037.321.053.321.034.321.054.321.034.3.054.321.053.321Z" stroke="#231f20" stroke-width="0.117" fill="url(#linear-gradient-73)"/>
        <path id="Path_151" data-name="Path 151" d="M49.15,114.823l.213.248.176.192-.035-.527-.071-.457-.088-.387-.141-.351-.14-.3-.177-.264-.175-.246-.195-.23-.175-.228-.195-.227-.175-.247-.141-.282-.141-.321-.106-.351-.089-.422-.034-.474-.318.3-.191.334-.092.352-.018.37.07.369.141.387.195.388.229.386.264.369.276.37.3.351.3.321.282.321Z" stroke="#231f20" stroke-width="0.117" fill="url(#linear-gradient-74)"/>
        <path id="Path_152" data-name="Path 152" d="M50.363,110.92l.1-.321.141-.321-.505.493-.422.475-.3.441-.21.422-.141.4-.07.37-.017.37.035.333.09.321.085.3.124.282.124.245.106.247.1.211.07.211.036.176v-.37l.018-.351.016-.351.018-.353.017-.335.035-.333.035-.334.034-.321.054-.321.052-.334.092-.321.07-.321.089-.321Z" stroke="#231f20" stroke-width="0.117" fill="url(#linear-gradient-75)"/>
        <path id="Path_153" data-name="Path 153" d="M48.433,116.883l.545-.071-.229.106-.229.088-.246.106-.247.092-.264.089-.265.07-.276.072-.276.035-.281.018h-.3l-.3-.018-.3-.069-.3-.088-.3-.124-.3-.175-.3-.211.281.052.282.053.276.035.282.034.276.017.283.017H46.8l.282-.018h.264l.282-.035.545-.036Z" stroke="#231f20" stroke-width="0.117" fill="url(#linear-gradient-76)"/>
        <path id="Path_154" data-name="Path 154" d="M43.51,119.506l-.14.141-.124.158.123-.421.194-.371.227-.315.283-.3.315-.246.353-.23.386-.193.4-.159.422-.14.422-.141.878-.212.439-.089.422-.092.387-.071.387-.088-.193.07-.264.141-.321.213-.386.228-.387.246-.4.23-.387.211-.353.141-.211.037-.193.034-.211.053-.21.053-.213.09-.209.069-.193.092-.211.106-.193.106-.193.123-.176.124-.177.123-.157.141Z" stroke="#231f20" stroke-width="0.117" fill="url(#linear-gradient-77)"/>
        <path id="Path_155" data-name="Path 155" d="M48.908,117.216l.3-.158.228-.141-.244.511-.247.422-.263.334-.246.3-.264.229-.264.211-.527.321-.262.159-.265.175-.263.176-.246.211-.247.264-.246.321-.228.37-.229.457-.158-.4-.054-.388.053-.386.141-.352.21-.335.281-.333.334-.321.369-.282.387-.282.4-.246.422-.247.406-.211.367-.193Z" stroke="#231f20" stroke-width="0.117" fill="url(#linear-gradient-78)"/>
        <path id="Path_156" data-name="Path 156" d="M47.785,121.156l-.07.321-.07.335-.176-.668-.092-.581-.018-.528.053-.456.106-.388.158-.352.193-.3.21-.247.247-.23.246-.193.264-.159.247-.14.228-.141.211-.123.157-.141.138-.125-.194.3-.193.3-.193.3-.174.282-.159.282-.158.3-.159.282-.14.282-.14.3-.123.3-.124.282-.106.3-.092.321Z" stroke="#231f20" stroke-width="0.117" fill="url(#linear-gradient-79)"/>
      </g>
    </g>
    <path id="Path_157" data-name="Path 157" d="M33.307,45.828H27.7l-.886,2.517h-3.6l5.158-13.816h4.282l5.158,13.816h-3.6l-.877-2.517m-4.72-2.563H32.43l-1.92-5.5-1.912,5.5m14.282,3.58v5.44H39.54V37.98h3.34V39.5a4.5,4.5,0,0,1,1.53-1.333,4.018,4.018,0,0,1,1.93-.435,3.88,3.88,0,0,1,3.172,1.527,6.007,6.007,0,0,1,1.24,3.914,6.029,6.029,0,0,1-1.24,3.924,3.916,3.916,0,0,1-3.172,1.518,4.206,4.206,0,0,1-1.93-.426,4.722,4.722,0,0,1-1.53-1.342m2.22-6.7a1.921,1.921,0,0,0-1.65.787,3.767,3.767,0,0,0-.57,2.25,3.88,3.88,0,0,0,.57,2.258,1.935,1.935,0,0,0,1.65.777,1.887,1.887,0,0,0,1.632-.777,3.781,3.781,0,0,0,.57-2.258,3.854,3.854,0,0,0-.57-2.258,1.881,1.881,0,0,0-1.632-.777M57.567,43.68a2.87,2.87,0,0,0-1.576.352,1.169,1.169,0,0,0-.522,1.036,1.27,1.27,0,0,0,.42,1,1.818,1.818,0,0,0,1.185.352,2.119,2.119,0,0,0,1.586-.666A2.342,2.342,0,0,0,59.3,44.07v-.38H57.57m5.1-1.25v5.913H59.305V46.8a4.286,4.286,0,0,1-1.5,1.38,4.475,4.475,0,0,1-2.043.426,3.749,3.749,0,0,1-2.64-.935,3.2,3.2,0,0,1-1.007-2.443,3,3,0,0,1,1.26-2.674,7.266,7.266,0,0,1,3.974-.85h1.968v-.26a1.226,1.226,0,0,0-.625-1.147,3.953,3.953,0,0,0-1.95-.37,8.88,8.88,0,0,0-2,.213,6.817,6.817,0,0,0-1.716.64V38.254a18.578,18.578,0,0,1,2.155-.389,16.9,16.9,0,0,1,2.164-.14,6.132,6.132,0,0,1,4.076,1.1,4.55,4.55,0,0,1,1.26,3.6M74.1,38.3V41a5.229,5.229,0,0,0-1.37-.685,4.548,4.548,0,0,0-1.418-.222,2.884,2.884,0,0,0-2.183.814,3.143,3.143,0,0,0-.774,2.258,3.176,3.176,0,0,0,.774,2.267,2.9,2.9,0,0,0,2.183.805A4.727,4.727,0,0,0,72.794,46a4.38,4.38,0,0,0,1.306-.685v2.7a9.091,9.091,0,0,1-1.6.426,8.763,8.763,0,0,1-1.614.148,6.371,6.371,0,0,1-4.42-1.434,5.13,5.13,0,0,1-1.6-4.007,5.1,5.1,0,0,1,1.6-4,6.369,6.369,0,0,1,4.42-1.444,8.77,8.77,0,0,1,1.614.148,9.391,9.391,0,0,1,1.6.426m13.3,3.75v6.3H84.04V43.522l-.065-1.87a1.808,1.808,0,0,0-.205-.75,1.33,1.33,0,0,0-.532-.5,1.566,1.566,0,0,0-.765-.185,1.932,1.932,0,0,0-1.642.805,3.616,3.616,0,0,0-.6,2.212v5.1h-3.34v-14.4h3.34v5.552a5.107,5.107,0,0,1,1.6-1.333,4.05,4.05,0,0,1,1.875-.435,3.4,3.4,0,0,1,2.742,1.1,4.8,4.8,0,0,1,.942,3.2m13.537,1.1v.944H93.126a2.452,2.452,0,0,0,.85,1.75,3.168,3.168,0,0,0,2.034.583,8.04,8.04,0,0,0,2.155-.305,10.706,10.706,0,0,0,2.276-.944v2.554a14.191,14.191,0,0,1-2.369.666,12.436,12.436,0,0,1-2.37.23,6.331,6.331,0,0,1-4.412-1.425,5.169,5.169,0,0,1-1.567-4.016,5.2,5.2,0,0,1,1.54-3.988,5.963,5.963,0,0,1,4.254-1.453,5.365,5.365,0,0,1,3.936,1.47,5.247,5.247,0,0,1,1.483,3.933m-3.433-1.1a2.082,2.082,0,0,0-.56-1.518,1.859,1.859,0,0,0-1.446-.583,2.264,2.264,0,0,0-1.576.546,2.476,2.476,0,0,0-.756,1.555Z" fill="#1b181a"/>
  </g>
</svg>
