<svg xmlns="http://www.w3.org/2000/svg" width="64.002" height="58" viewBox="0 0 64.002 58">
  <g id="Group_1" data-name="Group 1" transform="translate(-482 428)">
    <path id="laravel-icon" d="M39.755,53.777a.985.985,0,0,1-.847-.479L31.453,40.863,17.51,44.653a.985.985,0,0,1-1.1-.495L.117,13.534a.985.985,0,0,1,.737-1.442l13.833-1.86a.985.985,0,0,1,.979.468l16.7,27.87,19.406-5.277-6.47-9.14a.985.985,0,0,1,.55-1.53l9.08-2.146a.985.985,0,0,1,1,.341l7.857,9.8a.985.985,0,0,1-.512,1.568l-8.253,2.25,7.224,10.18a.985.985,0,0,1-.479,1.5L40.07,53.706a.985.985,0,0,1-.314.061ZM33.427,40.324l6.757,11.268L59.876,44.7,53,35ZM2.52,13.842l15.247,28.7,12.655-3.433L14.306,12.275ZM47.77,24.208l6.052,8.534,7.527-2.047L54.8,22.541Z" transform="translate(482 -438.223)" fill="#bfbfbf"/>
    <path id="Path_3" data-name="Path 3" d="M8.112-5.744A2.569,2.569,0,0,0,10.32-8.368c0-1.872-1.456-2.832-3.76-2.832H2.128V0H6.88c2.72,0,4.048-1.04,4.048-2.928C10.928-4.544,9.984-5.488,8.112-5.744ZM6.624-10.9C8.752-10.9,10-10.032,10-8.368S8.752-5.84,6.624-5.84H2.448V-10.9ZM6.944-.3h-4.5V-5.536h4.5c2.384,0,3.664.8,3.664,2.608S9.328-.3,6.944-.3ZM14.1,0h6.992V-.3H14.416V-11.2H14.1ZM31.744,0h.368l-5.2-11.2h-.32L21.392,0h.368l1.568-3.376h6.848ZM23.472-3.68l3.28-7.088,3.28,7.088ZM34.384,0h4.24c3.536,0,5.9-2.368,5.9-5.6s-2.368-5.6-5.9-5.6h-4.24Zm.32-.3V-10.9h3.888c3.424,0,5.616,2.24,5.616,5.3S42.016-.3,38.592-.3ZM47.92-.3V-5.536H54.1v-.3H47.92V-10.9h6.9v-.3H47.6V0h7.456V-.3Z" transform="translate(486 -370)" fill="#bfbfbf"/>
  </g>
</svg>
