<svg xmlns="http://www.w3.org/2000/svg" width="138.584" height="160" viewBox="0 0 138.584 160">
  <g id="chartjs-logo" transform="translate(-26.708 -16)">
    <path id="Path_4" data-name="Path 4" d="M161.271,96.556c-22.368.439-17.709,14.6-33.473,18.18-16.014,3.638-18.542-39.111-34.552-39.111s-19.559,41.526-39.608,70.034l-.572.807,42.985,24.813,65.22-37.651Z" fill="#36a2eb"/>
    <path id="Path_5" data-name="Path 5" d="M161.271,95.267c-7.488-9.61-12.567-20.658-23.494-20.658-19.337,0-14.249,31.545-35.62,31.545s-23.62-33.931-47.832-2.035a170.2,170.2,0,0,0-18.8,32.218L96.051,171.28l65.22-37.651Z" fill="#ffce56"/>
    <path id="Path_6" data-name="Path 6" d="M30.829,108.334c7.338-20.321,10.5-36.779,24.514-36.779,21.371,0,26.458,60.039,44.779,53.931S116.4,86.817,144.9,86.817c5.424,0,10.962,3.323,16.371,8.7v38.113l-65.22,37.651L30.83,133.628V108.334Z" fill="#fe6184" opacity="0.8"/>
    <path id="Path_7" data-name="Path 7" d="M96,176,26.708,136V56L96,16l69.292,40v80ZM34.849,131.3,96,166.6l61.151-35.3V60.7L96,25.4,34.849,60.7Z" fill="#e7e9ed"/>
  </g>
</svg>
