<svg xmlns="http://www.w3.org/2000/svg" width="103.8" height="14.94" viewBox="0 0 103.8 14.94">
  <path id="Path_3" data-name="Path 3" d="M8.31,14.015V12.29L.69,15.32v1.77L8.31,20.1V18.4L2.805,16.2ZM19.4,17.27q0-.255.022-.57a2,2,0,0,1,.128-.585,1.147,1.147,0,0,1,.308-.45.817.817,0,0,1,.563-.18.67.67,0,0,1,.517.2,1.275,1.275,0,0,1,.278.48,2.475,2.475,0,0,1,.113.585q.023.307.023.532,0,.24-.023.548a2.253,2.253,0,0,1-.12.585,1.2,1.2,0,0,1-.3.472.877.877,0,0,1-1.1,0,1.165,1.165,0,0,1-.285-.472,2.261,2.261,0,0,1-.1-.592Q19.395,17.51,19.4,17.27Zm-1.53-.015a5.016,5.016,0,0,0,.127,1.155,2.55,2.55,0,0,0,.42.938,2,2,0,0,0,.765.622,2.693,2.693,0,0,0,1.163.225,2.744,2.744,0,0,0,1.14-.217,2.074,2.074,0,0,0,.788-.608,2.624,2.624,0,0,0,.458-.915,4.136,4.136,0,0,0,.15-1.14,5.316,5.316,0,0,0-.12-1.155,2.461,2.461,0,0,0-.413-.937,2.076,2.076,0,0,0-.758-.63,2.607,2.607,0,0,0-1.17-.232,2.665,2.665,0,0,0-1.14.225,2.211,2.211,0,0,0-.8.615,2.554,2.554,0,0,0-.465.915A4.136,4.136,0,0,0,17.865,17.255ZM19.02,9.17,12.81,20.315h1.3L20.3,9.17Zm-7.365,3.12q0-.255.023-.585a2.2,2.2,0,0,1,.128-.615,1.259,1.259,0,0,1,.307-.48.777.777,0,0,1,.563-.2.658.658,0,0,1,.517.21,1.325,1.325,0,0,1,.278.51,2.85,2.85,0,0,1,.113.623q.022.323.022.548t-.022.532a2.034,2.034,0,0,1-.12.555,1.089,1.089,0,0,1-.3.443.934.934,0,0,1-1.1,0,1.058,1.058,0,0,1-.285-.443,2.04,2.04,0,0,1-.1-.562Q11.655,12.53,11.655,12.29Zm-1.53-.03a4.92,4.92,0,0,0,.127,1.147,2.409,2.409,0,0,0,.42.915,1.991,1.991,0,0,0,.765.6,2.773,2.773,0,0,0,1.163.217,2.83,2.83,0,0,0,1.14-.21,2.073,2.073,0,0,0,.788-.585,2.475,2.475,0,0,0,.457-.892,4.056,4.056,0,0,0,.15-1.132,5.525,5.525,0,0,0-.12-1.17,2.6,2.6,0,0,0-.412-.968,2.085,2.085,0,0,0-.757-.653,2.538,2.538,0,0,0-1.17-.24,2.591,2.591,0,0,0-1.14.233,2.213,2.213,0,0,0-.8.637,2.7,2.7,0,0,0-.465.945A4.3,4.3,0,0,0,10.125,12.26Zm22.17,6.36V17.015H24.72V18.62Zm0-3.21v-1.6H24.72v1.6ZM39.94,5.72V20H50.78V17.36h-7.7v-3.5H50V11.42H43.08V8.36h7.54V5.72ZM61.26,15.5V5.72H58.12v9.64q0,.38-.03.79a2.351,2.351,0,0,1-.18.76,1.263,1.263,0,0,1-.49.57,1.764,1.764,0,0,1-.96.22,1.991,1.991,0,0,1-.91-.18,1.4,1.4,0,0,1-.55-.49,2.044,2.044,0,0,1-.28-.75,5.376,5.376,0,0,1-.08-.96v-.64H51.8v1.24a4.6,4.6,0,0,0,.4,2.01,3.864,3.864,0,0,0,1.06,1.36,4.353,4.353,0,0,0,1.5.78,6.067,6.067,0,0,0,1.74.25,5.534,5.534,0,0,0,2.54-.49,3.762,3.762,0,0,0,2.08-2.79A9.426,9.426,0,0,0,61.26,15.5Zm4.9-.24H63.12a4.716,4.716,0,0,0,.48,2.28,4.5,4.5,0,0,0,1.35,1.58,5.76,5.76,0,0,0,1.96.91,9.022,9.022,0,0,0,2.29.29,8.793,8.793,0,0,0,2.57-.34,5.435,5.435,0,0,0,1.86-.95,3.954,3.954,0,0,0,1.13-1.45,4.364,4.364,0,0,0,.38-1.82,3.5,3.5,0,0,0-.51-1.97,4.26,4.26,0,0,0-1.21-1.23,5.319,5.319,0,0,0-1.41-.67q-.71-.21-1.11-.29-1.34-.34-2.17-.56a8.049,8.049,0,0,1-1.3-.44,1.428,1.428,0,0,1-.63-.48,1.283,1.283,0,0,1-.16-.68,1.343,1.343,0,0,1,.2-.76,1.737,1.737,0,0,1,.51-.5,2.033,2.033,0,0,1,.69-.28,3.68,3.68,0,0,1,.76-.08,5.356,5.356,0,0,1,1.07.1,2.579,2.579,0,0,1,.87.34,1.767,1.767,0,0,1,.61.66,2.525,2.525,0,0,1,.27,1.06h3.04a4.386,4.386,0,0,0-.47-2.11,4.1,4.1,0,0,0-1.27-1.43,5.363,5.363,0,0,0-1.83-.81,9.085,9.085,0,0,0-2.15-.25,7.317,7.317,0,0,0-1.92.26,5.36,5.36,0,0,0-1.72.8,4.259,4.259,0,0,0-1.23,1.35A3.739,3.739,0,0,0,63.6,9.7a3.492,3.492,0,0,0,.37,1.67,3.532,3.532,0,0,0,.97,1.15,5.36,5.36,0,0,0,1.36.75,13.674,13.674,0,0,0,1.56.49q.78.22,1.54.4a9.682,9.682,0,0,1,1.36.42,2.934,2.934,0,0,1,.97.6,1.253,1.253,0,0,1,.37.94,1.38,1.38,0,0,1-.28.89,1.964,1.964,0,0,1-.7.55,3.131,3.131,0,0,1-.9.27,6.255,6.255,0,0,1-.9.07,4.773,4.773,0,0,1-1.2-.15,2.987,2.987,0,0,1-1.01-.46,2.272,2.272,0,0,1-.69-.81A2.619,2.619,0,0,1,66.16,15.26Zm25.415,2.01q0-.255.023-.57a2,2,0,0,1,.127-.585,1.147,1.147,0,0,1,.308-.45.817.817,0,0,1,.563-.18.67.67,0,0,1,.518.2,1.275,1.275,0,0,1,.277.48,2.474,2.474,0,0,1,.113.585q.022.307.022.532,0,.24-.022.548a2.252,2.252,0,0,1-.12.585,1.2,1.2,0,0,1-.3.472.877.877,0,0,1-1.1,0,1.165,1.165,0,0,1-.285-.472,2.261,2.261,0,0,1-.105-.592Q91.575,17.51,91.575,17.27Zm-1.53-.015a5.016,5.016,0,0,0,.128,1.155,2.55,2.55,0,0,0,.42.938,2,2,0,0,0,.765.622,2.693,2.693,0,0,0,1.163.225,2.744,2.744,0,0,0,1.14-.217,2.074,2.074,0,0,0,.787-.608,2.624,2.624,0,0,0,.457-.915,4.136,4.136,0,0,0,.15-1.14,5.316,5.316,0,0,0-.12-1.155,2.461,2.461,0,0,0-.412-.937,2.076,2.076,0,0,0-.757-.63,2.607,2.607,0,0,0-1.17-.232,2.665,2.665,0,0,0-1.14.225,2.211,2.211,0,0,0-.795.615,2.554,2.554,0,0,0-.465.915A4.136,4.136,0,0,0,90.045,17.255ZM91.2,9.17,84.99,20.315h1.305L92.475,9.17Zm-7.365,3.12q0-.255.022-.585a2.2,2.2,0,0,1,.128-.615,1.259,1.259,0,0,1,.308-.48.777.777,0,0,1,.563-.2.658.658,0,0,1,.517.21,1.325,1.325,0,0,1,.278.51,2.85,2.85,0,0,1,.112.623q.023.323.023.548t-.023.532a2.034,2.034,0,0,1-.12.555,1.089,1.089,0,0,1-.3.443.934.934,0,0,1-1.1,0,1.058,1.058,0,0,1-.285-.443,2.04,2.04,0,0,1-.105-.562Q83.835,12.53,83.835,12.29Zm-1.53-.03a4.92,4.92,0,0,0,.128,1.147,2.409,2.409,0,0,0,.42.915,1.991,1.991,0,0,0,.765.6,2.773,2.773,0,0,0,1.162.217,2.83,2.83,0,0,0,1.14-.21,2.073,2.073,0,0,0,.788-.585,2.475,2.475,0,0,0,.457-.892,4.056,4.056,0,0,0,.15-1.132,5.525,5.525,0,0,0-.12-1.17,2.6,2.6,0,0,0-.412-.968,2.085,2.085,0,0,0-.757-.653,2.538,2.538,0,0,0-1.17-.24,2.591,2.591,0,0,0-1.14.233,2.213,2.213,0,0,0-.8.637,2.7,2.7,0,0,0-.465.945A4.3,4.3,0,0,0,82.305,12.26ZM96.87,18.4V20.1l7.62-3.015V15.32l-7.62-3.03v1.725l5.5,2.19Z" transform="translate(-0.69 -5.38)" fill="#a91e50"/>
</svg>
