<svg xmlns="http://www.w3.org/2000/svg" width="26.699" height="30" viewBox="0 0 26.699 30">
  <g id="graphql-icon" transform="translate(-1.65 0)">
    <path id="Path_7" data-name="Path 7" d="M4.08,22.864l-1.1-.636L15.248.98l1.1.636Z" fill="#e10098"/>
    <path id="Path_8" data-name="Path 8" d="M2.727,20.53H27.265V21.8H2.727Z" fill="#e10098"/>
    <path id="Path_9" data-name="Path 9" d="M15.486,28.332,3.213,21.246l.636-1.1,12.273,7.086ZM26.148,9.862,13.874,2.777l.636-1.1L26.783,8.763Z" fill="#e10098"/>
    <path id="Path_10" data-name="Path 10" d="M3.852,9.858l-.636-1.1L15.5,1.67l.636,1.1Z" fill="#e10098"/>
    <path id="Path_11" data-name="Path 11" d="M25.922,22.864,13.652,1.614l1.1-.636,12.27,21.25ZM3.7,7.914H4.972V22.086H3.7Zm21.328,0H26.3V22.086H25.028Z" fill="#e10098"/>
    <path id="Path_12" data-name="Path 12" d="M15.27,27.793l-.555-.962L25.39,20.668l.555.962Z" fill="#e10098"/>
    <path id="Path_13" data-name="Path 13" d="M27.985,22.5A2.675,2.675,0,1,1,27,18.846a2.68,2.68,0,0,1,.981,3.654M6.642,10.174a2.676,2.676,0,1,1-.981-3.655,2.68,2.68,0,0,1,.981,3.655M2.015,22.5a2.675,2.675,0,1,1,3.654.981A2.68,2.68,0,0,1,2.015,22.5M23.358,10.175a2.675,2.675,0,1,1,3.654.981,2.68,2.68,0,0,1-3.654-.981M15,30a2.674,2.674,0,1,1,2.674-2.673A2.674,2.674,0,0,1,15,30M15,5.348a2.672,2.672,0,1,1,1.891-.783A2.67,2.67,0,0,1,15,5.348" fill="#e10098"/>
  </g>
</svg>
