<svg xmlns="http://www.w3.org/2000/svg" width="34" height="38" viewBox="0 0 34 38">
  <g id="icons8-html-5" transform="translate(-7 -5)">
    <path id="Path_3" data-name="Path 3" d="M41,5H7l3,34,14,4,14-4L41,5Z" fill="#e65100"/>
    <path id="Path_4" data-name="Path 4" d="M24,8V39.9l11.2-3.2L37.7,8Z" fill="#ff6d00"/>
    <path id="Path_5" data-name="Path 5" d="M24,25V21h8.6l-.7,11.5L24,35.1V30.9l4.1-1.4.3-4.5H24Zm8.9-8,.3-4H24v4Z" fill="#fff"/>
    <path id="Path_6" data-name="Path 6" d="M24,30.9v4.2l-7.9-2.6L15.7,27h4l.2,2.5ZM19.1,17H24V13H14.9l.7,12H24V21H19.4Z" fill="#eee"/>
  </g>
</svg>
