<svg xmlns="http://www.w3.org/2000/svg" width="64.002" height="43.554" viewBox="0 0 64.002 43.554">
  <path id="laravel-icon" d="M39.755,53.777a.985.985,0,0,1-.847-.479L31.453,40.863,17.51,44.653a.985.985,0,0,1-1.1-.495L.117,13.534a.985.985,0,0,1,.737-1.442l13.833-1.86a.985.985,0,0,1,.979.468l16.7,27.87,19.406-5.277-6.47-9.14a.985.985,0,0,1,.55-1.53l9.08-2.146a.985.985,0,0,1,1,.341l7.857,9.8a.985.985,0,0,1-.512,1.568l-8.253,2.25,7.224,10.18a.985.985,0,0,1-.479,1.5L40.07,53.706a.985.985,0,0,1-.314.061ZM33.427,40.324l6.757,11.268L59.876,44.7,53,35ZM2.52,13.842l15.247,28.7,12.655-3.433L14.306,12.275ZM47.77,24.208l6.052,8.534,7.527-2.047L54.8,22.541Z" transform="translate(0 -10.223)" fill="#ef533f"/>
</svg>
