<svg xmlns="http://www.w3.org/2000/svg" width="88.722" height="37.933" viewBox="0 0 88.722 37.933">
  <path id="lesscss-ar21" d="M19.417,35.134c0-1.513-.973-3.134-3.783-3.242V28.11c2.8-.108,3.783-1.73,3.783-3.242,0-2.7-.432-4.43-.432-7.565,0-4.755,1.73-6.268,5.62-6.268H34.98v3.458H26.55c-1.837,0-2.378.648-2.378,3.026l.216,7.133c0,3.35-1.08,4.647-3.242,5.188v.216c2.162.54,3.242,1.837,3.242,5.188l-.216,7.133c0,2.378.54,3.134,2.378,3.134h.865v3.35h-2.8c-3.89,0-5.62-1.513-5.62-6.268,0-3.134.432-4.755.432-7.457ZM28.6,11.357h6.485V35.674c0,1.4.648,1.837,1.19,1.837a2.116,2.116,0,0,0,.757-.108l.757,4.755a8.383,8.383,0,0,1-3.242.54c-4.43,0-5.944-2.918-5.944-7.35Zm18.265,8.43c6.16,0,9.3,4.54,9.3,10.483a14.911,14.911,0,0,1-.216,2.7H42.654c.54,3.35,2.8,4.755,5.728,4.755a8.945,8.945,0,0,0,4.755-1.4l2.162,3.89A14.733,14.733,0,0,1,47.517,42.7c-6.268,0-11.024-4.215-11.024-11.456-.108-7.025,5.08-11.456,10.375-11.456Zm3.783,9.187c0-2.486-1.08-4.323-3.675-4.323-2.053,0-3.783,1.405-4.215,4.323Zm9.187,6.7a9.186,9.186,0,0,0,5.62,2.27c1.945,0,2.8-.757,2.8-1.837,0-1.4-2.162-2.162-4.43-3.026-2.594-.973-5.728-2.8-5.728-6.377,0-4,3.35-6.81,8.322-6.81a12.415,12.415,0,0,1,7.673,2.8l-2.918,3.89a7.7,7.7,0,0,0-4.647-1.837c-1.621,0-2.486.648-2.486,1.73,0,1.405,2.053,1.945,4.323,2.8,2.8.973,5.944,2.594,5.944,6.593s-3.134,7.025-8.97,7.025a13.813,13.813,0,0,1-8.322-3.026Zm17.617,0a9.186,9.186,0,0,0,5.62,2.27c1.945,0,2.8-.757,2.8-1.837,0-1.4-2.162-2.162-4.43-3.026-2.594-.973-5.728-2.8-5.728-6.377,0-4,3.35-6.81,8.322-6.81a12.415,12.415,0,0,1,7.673,2.8L88.8,26.584a7.7,7.7,0,0,0-4.647-1.837c-1.621,0-2.486.648-2.486,1.73,0,1.405,2.053,1.945,4.215,2.8,2.8.973,5.944,2.594,5.944,6.593s-3.134,7.025-8.97,7.025a13.813,13.813,0,0,1-8.322-3.026ZM93.45,45.4c1.837,0,2.378-.648,2.378-3.134,0-2.378-.216-4.54-.216-7.133,0-3.35,1.08-4.647,3.242-5.188v-.216c-2.162-.54-3.242-1.837-3.242-5.188,0-2.594.216-4.863.216-7.133,0-2.378-.432-3.026-2.378-3.026h-.865v-3.35h2.8c3.89,0,5.62,1.513,5.62,6.268,0,3.026-.432,4.755-.432,7.565,0,1.513.973,3.134,3.783,3.242V31.89c-2.8.108-3.783,1.73-3.783,3.242,0,2.8.432,4.43.432,7.565,0,4.755-1.73,6.268-5.62,6.268h-2.8V45.51Z" transform="translate(-15.634 -11.032)" fill="#214674"/>
</svg>
