<svg xmlns="http://www.w3.org/2000/svg" width="74.77" height="13.984" viewBox="0 0 74.77 13.984">
  <path id="Path_3" data-name="Path 3" d="M1.14-9.8V0h1.2V-5.472a5.674,5.674,0,0,1,.171-1.435,3.367,3.367,0,0,1,.523-1.14,2.43,2.43,0,0,1,.912-.76,2.962,2.962,0,0,1,1.321-.276,2.24,2.24,0,0,1,.969.19,1.621,1.621,0,0,1,.636.523,2.178,2.178,0,0,1,.342.779,4.116,4.116,0,0,1,.1.941V0h1.2V-5.548a6.919,6.919,0,0,1,.123-1.32A3.356,3.356,0,0,1,9.063-8a2.269,2.269,0,0,1,.817-.789,2.566,2.566,0,0,1,1.292-.294,2.2,2.2,0,0,1,1.805.636,2.9,2.9,0,0,1,.513,1.853V0h1.2V-6.65q0-3.439-3.249-3.439a3.7,3.7,0,0,0-1.824.475A3.008,3.008,0,0,0,8.322-8.17,2.329,2.329,0,0,0,7.267-9.614a3.34,3.34,0,0,0-1.758-.475,3.477,3.477,0,0,0-1.966.513A3.753,3.753,0,0,0,2.3-8.151H2.242V-9.8Zm18.411.722a3.026,3.026,0,0,1,1.5.361,3.3,3.3,0,0,1,1.073.95,4.31,4.31,0,0,1,.646,1.34A5.445,5.445,0,0,1,22.99-4.9a5.445,5.445,0,0,1-.219,1.53,4.31,4.31,0,0,1-.646,1.339,3.3,3.3,0,0,1-1.073.95,3.026,3.026,0,0,1-1.5.361,3.026,3.026,0,0,1-1.5-.361,3.3,3.3,0,0,1-1.073-.95,4.31,4.31,0,0,1-.646-1.339,5.445,5.445,0,0,1-.219-1.53,5.445,5.445,0,0,1,.219-1.53,4.31,4.31,0,0,1,.646-1.34,3.3,3.3,0,0,1,1.073-.95A3.026,3.026,0,0,1,19.551-9.082Zm0-1.007a4.507,4.507,0,0,0-1.986.418A4.325,4.325,0,0,0,16.112-8.55a4.852,4.852,0,0,0-.893,1.644,6.479,6.479,0,0,0-.3,2,6.479,6.479,0,0,0,.3,2,4.852,4.852,0,0,0,.893,1.644A4.221,4.221,0,0,0,17.566-.142a4.6,4.6,0,0,0,1.986.409,4.6,4.6,0,0,0,1.985-.409A4.221,4.221,0,0,0,22.99-1.254,4.852,4.852,0,0,0,23.883-2.9a6.479,6.479,0,0,0,.3-2,6.479,6.479,0,0,0-.3-2A4.852,4.852,0,0,0,22.99-8.55a4.325,4.325,0,0,0-1.454-1.121A4.507,4.507,0,0,0,19.551-10.089ZM24.4-9.8V0h1.2V-5.719a4.334,4.334,0,0,1,.237-1.339,3.245,3.245,0,0,1,.608-1.064,2.776,2.776,0,0,1,.95-.7,3.051,3.051,0,0,1,1.282-.256,2.828,2.828,0,0,1,1.206.228,1.936,1.936,0,0,1,.77.627,2.474,2.474,0,0,1,.4.941,5.67,5.67,0,0,1,.114,1.168V0h1.2V-6.308a6.685,6.685,0,0,0-.171-1.577A2.8,2.8,0,0,0,31.6-9.073a2.72,2.72,0,0,0-1.111-.75,4.832,4.832,0,0,0-1.72-.266,3.573,3.573,0,0,0-1.919.542,2.871,2.871,0,0,0-1.216,1.434h-.038V-9.8ZM41.344-.8V-9.8h-1.2v1.691h-.038a2.905,2.905,0,0,0-.485-.76,3.8,3.8,0,0,0-.713-.637,3.264,3.264,0,0,0-.883-.427,3.441,3.441,0,0,0-1.035-.152,4.385,4.385,0,0,0-1.89.39,3.986,3.986,0,0,0-1.387,1.064,4.738,4.738,0,0,0-.855,1.577,6.117,6.117,0,0,0-.294,1.909,7.569,7.569,0,0,0,.247,1.967A4.379,4.379,0,0,0,33.6-1.577,3.74,3.74,0,0,0,34.979-.5a4.74,4.74,0,0,0,2.014.389,3.272,3.272,0,0,0,1.89-.551,3.5,3.5,0,0,0,1.226-1.463h.038V-.8a4.371,4.371,0,0,1-.741,2.736,2.874,2.874,0,0,1-2.413.95,4.5,4.5,0,0,1-.969-.1,2.956,2.956,0,0,1-.865-.333,2.219,2.219,0,0,1-.665-.6,2.125,2.125,0,0,1-.37-.921h-1.2a2.749,2.749,0,0,0,.427,1.339,3.149,3.149,0,0,0,.931.921,4.106,4.106,0,0,0,1.264.532,6.088,6.088,0,0,0,1.444.171,5.578,5.578,0,0,0,2.023-.323,3.271,3.271,0,0,0,1.34-.931,3.812,3.812,0,0,0,.75-1.482A7.464,7.464,0,0,0,41.344-.8Zm-4.351-.323a2.966,2.966,0,0,1-1.444-.332,3.052,3.052,0,0,1-1.007-.874,3.7,3.7,0,0,1-.589-1.244,5.51,5.51,0,0,1-.19-1.444,6.2,6.2,0,0,1,.181-1.492,3.857,3.857,0,0,1,.579-1.3,3.12,3.12,0,0,1,1.007-.922,2.876,2.876,0,0,1,1.463-.351,2.765,2.765,0,0,1,1.453.361,2.984,2.984,0,0,1,.979.95,4.17,4.17,0,0,1,.551,1.311,6.246,6.246,0,0,1,.171,1.444,5.264,5.264,0,0,1-.2,1.444,3.847,3.847,0,0,1-.6,1.244,3.116,3.116,0,0,1-.988.874A2.735,2.735,0,0,1,36.993-1.121Zm9.215-7.961a3.026,3.026,0,0,1,1.5.361,3.3,3.3,0,0,1,1.073.95,4.31,4.31,0,0,1,.646,1.34,5.445,5.445,0,0,1,.219,1.53,5.445,5.445,0,0,1-.219,1.53,4.31,4.31,0,0,1-.646,1.339,3.3,3.3,0,0,1-1.073.95,3.026,3.026,0,0,1-1.5.361,3.026,3.026,0,0,1-1.5-.361,3.3,3.3,0,0,1-1.074-.95,4.31,4.31,0,0,1-.646-1.339,5.445,5.445,0,0,1-.219-1.53,5.445,5.445,0,0,1,.219-1.53,4.31,4.31,0,0,1,.646-1.34,3.3,3.3,0,0,1,1.074-.95A3.026,3.026,0,0,1,46.208-9.082Zm0-1.007a4.507,4.507,0,0,0-1.986.418A4.325,4.325,0,0,0,42.769-8.55a4.852,4.852,0,0,0-.893,1.644,6.479,6.479,0,0,0-.3,2,6.479,6.479,0,0,0,.3,2,4.852,4.852,0,0,0,.893,1.644A4.221,4.221,0,0,0,44.222-.142a4.6,4.6,0,0,0,1.986.409,4.6,4.6,0,0,0,1.985-.409,4.221,4.221,0,0,0,1.454-1.111A4.852,4.852,0,0,0,50.54-2.9a6.479,6.479,0,0,0,.3-2,6.479,6.479,0,0,0-.3-2,4.852,4.852,0,0,0-.893-1.644,4.325,4.325,0,0,0-1.454-1.121A4.507,4.507,0,0,0,46.208-10.089Zm9.006,1.007a3.026,3.026,0,0,1,1.5.361,3.3,3.3,0,0,1,1.073.95,4.31,4.31,0,0,1,.646,1.34,5.445,5.445,0,0,1,.219,1.53,5.445,5.445,0,0,1-.219,1.53,4.31,4.31,0,0,1-.646,1.339,3.3,3.3,0,0,1-1.073.95,3.026,3.026,0,0,1-1.5.361,3.026,3.026,0,0,1-1.5-.361,3.3,3.3,0,0,1-1.073-.95,4.31,4.31,0,0,1-.646-1.339,5.445,5.445,0,0,1-.219-1.53,5.445,5.445,0,0,1,.219-1.53,4.31,4.31,0,0,1,.646-1.34,3.3,3.3,0,0,1,1.073-.95A3.026,3.026,0,0,1,55.214-9.082Zm0-1.007a4.507,4.507,0,0,0-1.986.418A4.325,4.325,0,0,0,51.775-8.55a4.852,4.852,0,0,0-.893,1.644,6.479,6.479,0,0,0-.3,2,6.479,6.479,0,0,0,.3,2,4.852,4.852,0,0,0,.893,1.644A4.221,4.221,0,0,0,53.229-.142a4.6,4.6,0,0,0,1.986.409A4.6,4.6,0,0,0,57.2-.142a4.221,4.221,0,0,0,1.453-1.111A4.852,4.852,0,0,0,59.546-2.9a6.479,6.479,0,0,0,.3-2,6.479,6.479,0,0,0-.3-2,4.852,4.852,0,0,0-.893-1.644A4.325,4.325,0,0,0,57.2-9.671,4.507,4.507,0,0,0,55.214-10.089ZM65.949-6.935h1.2a3.548,3.548,0,0,0-.323-1.387,2.894,2.894,0,0,0-.77-.988A3.167,3.167,0,0,0,64.933-9.9a4.8,4.8,0,0,0-1.378-.19,5.746,5.746,0,0,0-1.3.152,4.021,4.021,0,0,0-1.187.475,2.6,2.6,0,0,0-.864.855,2.353,2.353,0,0,0-.333,1.273,2.389,2.389,0,0,0,.209,1.055,2.075,2.075,0,0,0,.58.722,3.463,3.463,0,0,0,.864.494,8.7,8.7,0,0,0,1.083.352l1.539.342q.4.095.789.228a3.06,3.06,0,0,1,.693.332,1.567,1.567,0,0,1,.484.494,1.377,1.377,0,0,1,.181.731,1.427,1.427,0,0,1-.257.865,2.071,2.071,0,0,1-.656.579,2.9,2.9,0,0,1-.865.323,4.51,4.51,0,0,1-.9.1,3.2,3.2,0,0,1-2-.618,2.363,2.363,0,0,1-.883-1.833h-1.2A3.476,3.476,0,0,0,60.752-.551a4.5,4.5,0,0,0,2.8.817A6.55,6.55,0,0,0,64.942.114a3.913,3.913,0,0,0,1.263-.5,2.945,2.945,0,0,0,.922-.912,2.456,2.456,0,0,0,.361-1.359,2.4,2.4,0,0,0-.247-1.121,2.552,2.552,0,0,0-.636-.8,3.28,3.28,0,0,0-.893-.523,4.572,4.572,0,0,0-1.017-.275l-1.6-.361q-.3-.076-.665-.2a3.21,3.21,0,0,1-.665-.313,1.775,1.775,0,0,1-.5-.466,1.119,1.119,0,0,1-.2-.674,1.439,1.439,0,0,1,.209-.8,1.614,1.614,0,0,1,.551-.523A2.491,2.491,0,0,1,62.576-9a3.934,3.934,0,0,1,.807-.085,3.693,3.693,0,0,1,.969.123,2.334,2.334,0,0,1,.808.389,1.941,1.941,0,0,1,.561.675A2.255,2.255,0,0,1,65.949-6.935Zm8.759,1.349H68.362a5.5,5.5,0,0,1,.313-1.3,3.881,3.881,0,0,1,.636-1.121,3.06,3.06,0,0,1,.969-.779,2.816,2.816,0,0,1,1.311-.294,2.773,2.773,0,0,1,1.292.294,3.06,3.06,0,0,1,.969.779A3.589,3.589,0,0,1,74.47-6.9,4.325,4.325,0,0,1,74.708-5.586ZM68.362-4.579H75.9a7.754,7.754,0,0,0-.19-2.023,5.158,5.158,0,0,0-.75-1.767,4.01,4.01,0,0,0-1.359-1.244,4.015,4.015,0,0,0-2.014-.475,4.237,4.237,0,0,0-2,.447A3.959,3.959,0,0,0,68.21-8.464,5.1,5.1,0,0,0,67.421-6.8a7.121,7.121,0,0,0-.256,1.9,7.515,7.515,0,0,0,.256,1.985,4.876,4.876,0,0,0,.789,1.653A3.69,3.69,0,0,0,69.587-.142a4.565,4.565,0,0,0,2,.409A4.164,4.164,0,0,0,74.47-.646a4.78,4.78,0,0,0,1.4-2.584h-1.2a3.6,3.6,0,0,1-1.026,1.824,2.91,2.91,0,0,1-2.052.684,2.816,2.816,0,0,1-1.463-.361,3.318,3.318,0,0,1-1.007-.912,3.681,3.681,0,0,1-.579-1.244A5.312,5.312,0,0,1,68.362-4.579Z" transform="translate(-1.14 10.089)" fill="#800"/>
</svg>
