<svg xmlns="http://www.w3.org/2000/svg" width="105.821" height="40.884" viewBox="0 0 105.821 40.884">
  <g id="mongodb-ar21" transform="translate(-7.09 -5.044)">
    <path id="Path_43" data-name="Path 43" d="M16.147,5.154l1.09,2.05a6.15,6.15,0,0,0,.824,1.024,28.427,28.427,0,0,1,2.56,2.895,25.16,25.16,0,0,1,3.986,8.04,19.786,19.786,0,0,1,.846,5.456,19.216,19.216,0,0,1-5.634,14.208,16.3,16.3,0,0,1-2,1.715c-.38,0-.557-.3-.713-.557a4.45,4.45,0,0,1-.557-1.6,7.687,7.687,0,0,1-.178-2.027v-.312c-.022-.067-.356-30.732-.223-30.888Z" fill="#599636"/>
    <path id="Path_44" data-name="Path 44" d="M16.147,5.088c-.045-.09-.09-.022-.134.022a2.042,2.042,0,0,1-.38,1.225,5.788,5.788,0,0,1-.98.98,21.321,21.321,0,0,0-4.788,6.1A24.738,24.738,0,0,0,7.1,23.394a33.116,33.116,0,0,0,.8,7.037,21.224,21.224,0,0,0,5.6,8.8,24.346,24.346,0,0,0,1.982,1.692c.2,0,.223-.178.267-.312a6.11,6.11,0,0,0,.2-.869c.2-1.113.312-2.227.445-3.34l-.245-31.31Z" fill="#6cac48"/>
    <path id="Path_45" data-name="Path 45" d="M17.24,41.9a3.167,3.167,0,0,1,.557-1.358,1.414,1.414,0,0,1-.624-.58,4.738,4.738,0,0,1-.334-.735,12.607,12.607,0,0,1-.468-2.873v-.58a2.806,2.806,0,0,0-.134.958,22.274,22.274,0,0,1-.4,3.006,2.693,2.693,0,0,1-.356,1.158.437.437,0,0,0,.022.156,13.353,13.353,0,0,1,.58,3.608V45.1c0,.534-.022.423.423.6a1.956,1.956,0,0,1,.557.223c.134,0,.156-.11.156-.2l-.067-.735v-2.05a5.375,5.375,0,0,1,.09-1.047Z" fill="#c2bfbf"/>
    <g id="Group_5" data-name="Group 5" transform="translate(-4.376 -1.846)">
      <path id="Path_46" data-name="Path 46" d="M38.527,34.432v2.121a1.481,1.481,0,0,0,.014.251.537.537,0,0,0,.408.475,5.075,5.075,0,0,0,.643.126c.126.014.167.069.182.2.014.475-.028.531-.488.5a27.6,27.6,0,0,0-3.224,0h-.1c-.335.014-.362-.014-.362-.349,0-.056.014-.126.014-.182a.148.148,0,0,1,.167-.153c.225-.028.433-.084.643-.126a.579.579,0,0,0,.488-.544,7.813,7.813,0,0,0,.041-.977l.014-3.739a.572.572,0,0,0-.306-.531,3.972,3.972,0,0,0-.8-.335,1.1,1.1,0,0,1-.237-.084c-.2-.1-.209-.279-.014-.391a.712.712,0,0,1,.237-.084,12.682,12.682,0,0,0,2.483-.628c.167-.056.209-.041.225.126a1.2,1.2,0,0,1-.014.321,3.514,3.514,0,0,0-.028.531.193.193,0,0,0,.084.182c.069.042.14,0,.2-.041a7.59,7.59,0,0,1,.907-.613,4.285,4.285,0,0,1,1.481-.544,2.068,2.068,0,0,1,1.689.5,3.165,3.165,0,0,1,.53.614c.14.2.153.209.335.069a8.231,8.231,0,0,1,1.689-.99,2.591,2.591,0,0,1,1.912-.084,2.294,2.294,0,0,1,1.368,1.325,3.764,3.764,0,0,1,.321,1.562v3.739a.537.537,0,0,0,.349.531,5.2,5.2,0,0,0,.837.209c.182.041.182.041.182.225-.028.46-.069.488-.517.46a30.045,30.045,0,0,0-3.363,0c-.225.014-.225.014-.237-.209v-.069c-.014-.378-.014-.378.349-.46l.362-.1a.562.562,0,0,0,.433-.544l.041-1.047-.028-2.735a2.175,2.175,0,0,0-.153-.712,1.711,1.711,0,0,0-1.856-1.074,3.154,3.154,0,0,0-1.507.6.3.3,0,0,0-.153.293,21.739,21.739,0,0,1,.056,2.679v1.94a.537.537,0,0,0,.475.6l.643.14c.1.014.153.056.153.167v.1c-.014.391-.041.408-.433.4-1.116-.056-2.233-.041-3.335,0-.378.014-.408-.028-.391-.408.014-.225.041-.237.251-.279l.46-.084a.608.608,0,0,0,.586-.67l.041-.935-.028-2.805a2.246,2.246,0,0,0-.293-1,1.469,1.469,0,0,0-1.312-.81,2.946,2.946,0,0,0-1.634.46.822.822,0,0,0-.475.852v2.037Zm26.291.085v1.968q0,.21.028.419a.429.429,0,0,0,.335.391,3.257,3.257,0,0,0,.739.126c.14.014.167.069.182.182v.1c-.014.488-.069.544-.544.517a26.891,26.891,0,0,0-3.182,0l-.408.014c-.084,0-.1-.041-.126-.1a1.419,1.419,0,0,1,0-.586c.014-.084.069-.1.153-.126.2-.028.378-.069.572-.1a.527.527,0,0,0,.488-.586l.041-1.172V32.128a.519.519,0,0,0-.321-.517,5.018,5.018,0,0,0-.8-.335,1.176,1.176,0,0,1-.237-.1.253.253,0,0,1-.028-.446.5.5,0,0,1,.279-.112,11.845,11.845,0,0,0,2.6-.67c.1-.041.14-.014.182.069a.463.463,0,0,1,.041.279l-.041.656c0,.084-.041.2.028.237.084.056.14-.069.209-.1a6.219,6.219,0,0,1,1.354-.865,2.8,2.8,0,0,1,1.382-.306,2.346,2.346,0,0,1,2.037,1.354,3.665,3.665,0,0,1,.363,1.4l.041,1.021.014,3.084a.467.467,0,0,0,.335.475,4.565,4.565,0,0,0,.754.182c.225.028.237.069.251.279v.069c-.028.475-.056.488-.531.46a29.193,29.193,0,0,0-3.126,0c-.14.014-.279,0-.408.014-.084,0-.14-.014-.153-.1a1.5,1.5,0,0,1-.014-.559.154.154,0,0,1,.153-.14l.643-.1a.468.468,0,0,0,.378-.408l.028-.391-.014-2.916a4.91,4.91,0,0,0-.084-1,1.628,1.628,0,0,0-1.45-1.3,2.621,2.621,0,0,0-1.758.446.77.77,0,0,0-.378.7v2.108c0-.041,0-.041.014-.041Z" fill="#47474a"/>
      <path id="Path_47" data-name="Path 47" d="M105.689,30.567a5.446,5.446,0,0,0-1.187-2.721,5.381,5.381,0,0,0-2.149-1.591,7.749,7.749,0,0,0-2.763-.5c-.391-.014-5.721.069-6.112,0a.208.208,0,0,0-.225.1,1.593,1.593,0,0,0-.182.321c-.167.378-.167.349.237.4a7.564,7.564,0,0,1,.977.182.768.768,0,0,1,.572.586c.028.153.056,5.065.056,7.354l-.056,1.634a1.531,1.531,0,0,1-.069.362.584.584,0,0,1-.321.378,1.654,1.654,0,0,1-.586.153c-.378.041-.433.056-.559.475l-.041.153c-.028.182-.014.209.167.209l4.172.041,1.634-.028,1.13-.14a7.031,7.031,0,0,0,3.4-1.618,5.667,5.667,0,0,0,1.34-1.758,6.2,6.2,0,0,0,.6-2.5,4.962,4.962,0,0,0-.041-1.493Zm-2.024,1.981a5.587,5.587,0,0,1-.7,2.54,3.863,3.863,0,0,1-2.581,1.981,4.576,4.576,0,0,1-1.532.084,4.638,4.638,0,0,1-1.089-.209,1.169,1.169,0,0,1-.865-1.225L96.887,27.3c0-.5.225-.613.586-.628a9.443,9.443,0,0,1,1.647.028,6.188,6.188,0,0,1,1.689.408,4.064,4.064,0,0,1,1.1.684,4.865,4.865,0,0,1,1.532,2.4,6.929,6.929,0,0,1,.225,2.33Zm13.622,1.368a1.318,1.318,0,0,0-.014-.237,2.676,2.676,0,0,0-1.158-1.8,4.36,4.36,0,0,0-1.34-.628,1.483,1.483,0,0,0-.237-.069.12.12,0,0,1,.1-.1,3.563,3.563,0,0,0,.781-.5,2.622,2.622,0,0,0,.865-1.354,2.645,2.645,0,0,0-.963-2.708,3.7,3.7,0,0,0-2.177-.684c-1.507-.028-3.028,0-4.534,0a8.468,8.468,0,0,1-1.312-.041c-.084-.014-.2-.041-.265.056a1.985,1.985,0,0,0-.265.572c-.014.1.014.153.126.167l.963.14a.691.691,0,0,1,.67.6,5.9,5.9,0,0,1,.041.7l-.028,2.609-.014,5.163a4.888,4.888,0,0,1-.1.907.511.511,0,0,1-.363.419,2.878,2.878,0,0,1-.837.167.347.347,0,0,0-.363.237,1.813,1.813,0,0,0-.126.391c-.028.167.014.225.182.2.126-.014,4.731.1,5.6.014a8.467,8.467,0,0,0,1.535-.279,5.272,5.272,0,0,0,2.33-1.368,3,3,0,0,0,.865-2.01,2.51,2.51,0,0,0,.041-.559ZM110.519,28.2l.041-1.116a.309.309,0,0,1,.293-.349,4.089,4.089,0,0,1,1-.028,4.855,4.855,0,0,1,.99.167,2.085,2.085,0,0,1,1.368,1.116,2,2,0,0,1,.2.852,2.683,2.683,0,0,1-.167,1.144,1.537,1.537,0,0,1-1.158.95,19.813,19.813,0,0,1-2.33.056c-.209,0-.225-.028-.225-.237V29.439a8.976,8.976,0,0,1-.014-1.228Zm4.534,7.507a2.141,2.141,0,0,1-1.284,1.3,2.44,2.44,0,0,1-1.021.182,8.129,8.129,0,0,1-1.3-.084,1.214,1.214,0,0,1-.893-1.089c-.069-.712-.028-1.438-.041-1.968V32.2c0-.225.028-.293.265-.293l1.312.014.893.1a3.021,3.021,0,0,1,1.647.865,2.263,2.263,0,0,1,.6,1.382,3.1,3.1,0,0,1-.167,1.423Z" fill="#c2bfbf"/>
      <path id="Path_48" data-name="Path 48" d="M79.6,31.5l.363.056a.9.9,0,0,0,.99-.67,1.409,1.409,0,0,0,0-.8c-.084,0-.126.069-.167.1a1.341,1.341,0,0,1-.7.293,3.21,3.21,0,0,1-1.493-.153l-.684-.237a4.033,4.033,0,0,0-1.481-.194,5.131,5.131,0,0,0-2.01.628,2.727,2.727,0,0,0-1.368,1.647,3.259,3.259,0,0,0-.084,1.325,2.473,2.473,0,0,0,1.618,2.108c.056.014.1.041.153.056.126.069.14.14.028.237l-.349.237-.837.517a.312.312,0,0,0-.167.446,1.46,1.46,0,0,0,.446.67,2.328,2.328,0,0,0,.642.391c.153.069.153.1.014.225l-.8.572a4.771,4.771,0,0,0-.754.67,1.379,1.379,0,0,0-.335,1.256,2.359,2.359,0,0,0,.725,1.256,2.961,2.961,0,0,0,1.284.7,5.475,5.475,0,0,0,5.317-1.493,3.042,3.042,0,0,0,.893-2.042,1.961,1.961,0,0,0-1.507-2.037l-.754-.14-2.3-.2a1.544,1.544,0,0,1-.712-.182.478.478,0,0,1-.167-.7.663.663,0,0,1,.475-.265l.446-.041a4.044,4.044,0,0,0,2.358-1.074,2.471,2.471,0,0,0,.712-1.187,3.72,3.72,0,0,0,.028-1.838c-.041-.153-.028-.167.167-.14Zm-3.421,6.951a1.474,1.474,0,0,0,.251,0,8.18,8.18,0,0,1,1.758.225,3.656,3.656,0,0,1,.544.209,1.337,1.337,0,0,1,.7,1.409,1.763,1.763,0,0,1-.977,1.368A2.986,2.986,0,0,1,77.263,42c-.153.014-.293,0-.446,0a3.313,3.313,0,0,1-1.423-.237,2.2,2.2,0,0,1-.823-.559,1.44,1.44,0,0,1,.014-2.108,2.05,2.05,0,0,1,1.591-.643ZM77.766,34.1a1.363,1.363,0,0,1-1.577.865,1.671,1.671,0,0,1-1.3-.935,3.005,3.005,0,0,1-.251-2.219,1.366,1.366,0,0,1,1.116-1.1,1.709,1.709,0,0,1,1.926.921,3.047,3.047,0,0,1,.293,1.493,3.161,3.161,0,0,1-.209.977Zm-17.582-.95a3.858,3.858,0,0,0-.921-2.01,3.685,3.685,0,0,0-2.847-1.228,4.909,4.909,0,0,0-2.679.768A3.635,3.635,0,0,0,52.1,32.814a4.857,4.857,0,0,0-.041,2.456,3.726,3.726,0,0,0,4.227,3.014,4.641,4.641,0,0,0,1.715-.5,3.765,3.765,0,0,0,1.8-1.773,4.585,4.585,0,0,0,.446-2.149l-.069-.712Zm-1.981,3.1a1.7,1.7,0,0,1-1.438,1.172,2.334,2.334,0,0,1-1.7-.433,2.9,2.9,0,0,1-.879-1.047,5.35,5.35,0,0,1-.378-3.656,2.093,2.093,0,0,1,.586-1.019,1.9,1.9,0,0,1,1.787-.446,2.54,2.54,0,0,1,1.532,1.019,4,4,0,0,1,.7,1.787,7.35,7.35,0,0,1,.069.865,4.669,4.669,0,0,1-.265,1.758Zm32.472-2.986A3.779,3.779,0,0,0,89.7,31.1a3.726,3.726,0,0,0-2.818-1.187,4.972,4.972,0,0,0-2.6.712,3.553,3.553,0,0,0-1.744,2.3,4.871,4.871,0,0,0,.335,3.321,3.387,3.387,0,0,0,2.275,1.884,4.574,4.574,0,0,0,3.293-.349A3.825,3.825,0,0,0,90.4,35.688a5.154,5.154,0,0,0,.321-1.856,3.19,3.19,0,0,0-.041-.572ZM88.75,36.066a1.738,1.738,0,0,1-1.493,1.354,2.32,2.32,0,0,1-1.647-.391,2.837,2.837,0,0,1-.963-1.144A4.3,4.3,0,0,1,84.2,34.35,5.424,5.424,0,0,1,84.27,32.4a1.991,1.991,0,0,1,.126-.377,1.881,1.881,0,0,1,2.275-1.2,2.54,2.54,0,0,1,1.591,1.1,4.11,4.11,0,0,1,.643,1.838,3.743,3.743,0,0,1,.041.781,4.749,4.749,0,0,1-.2,1.535Z" fill="#47474a"/>
    </g>
  </g>
</svg>
