<svg xmlns="http://www.w3.org/2000/svg" width="98.366" height="51.072" viewBox="0 0 98.366 51.072">
  <g id="mysql-ar21" transform="translate(-0.318 -1.685)">
    <path id="Path_30" data-name="Path 30" d="M.323,48.213H3.569V35.353L8.639,46.565a2.766,2.766,0,0,0,3,1.847A2.743,2.743,0,0,0,14.6,46.565l5.044-11.212v12.86h3.271V35.353a1.966,1.966,0,0,0-1.549-2.173c-2.472-.749-4.12-.1-4.869,1.573L11.53,45.84,6.736,34.753c-.724-1.672-2.4-2.322-4.894-1.573A1.969,1.969,0,0,0,.318,35.353v12.86Zm25.3-10.462H28.89v7.067c-.025.4.125,1.3,1.9,1.323.923.025,7.042,0,7.091,0V37.7h3.271V49.261c0,2.846-3.526,3.47-5.169,3.5H25.7V50.586H36.013c2.1-.225,1.848-1.273,1.848-1.623v-.85H30.943c-3.221-.025-5.294-1.448-5.319-3.071V37.749Zm70.168-8.191a11.547,11.547,0,0,0-4.844.7c-.374.151-.974.151-1.023.625.2.2.224.524.4.8a5.831,5.831,0,0,0,1.3,1.522c.525.4,1.049.8,1.6,1.149.974.6,2.072.949,3.021,1.548.55.35,1.1.8,1.648,1.174.28.2.449.525.8.649V37.65c-.175-.224-.225-.548-.4-.8-.25-.249-.5-.475-.75-.724a11.816,11.816,0,0,0-2.6-2.522c-.8-.55-2.547-1.3-2.871-2.222l-.049-.05a10.2,10.2,0,0,0,1.723-.4c.85-.224,1.623-.175,2.5-.4.4-.1.8-.225,1.2-.35V29.96c-.449-.449-.774-1.049-1.248-1.473a33.289,33.289,0,0,0-4.121-3.071c-.774-.5-1.773-.824-2.6-1.248-.3-.15-.8-.225-.974-.475a10,10,0,0,1-1.024-1.923c-.724-1.373-1.423-2.9-2.047-4.345a26.8,26.8,0,0,0-1.273-2.846,25.173,25.173,0,0,0-9.664-9.339A12,12,0,0,0,71.3,4.215l-1.873-.1a9.858,9.858,0,0,1-1.149-.874c-1.423-.9-5.094-2.846-6.143-.274-.674,1.623,1,3.221,1.567,4.045a11.792,11.792,0,0,1,1.274,1.873c.168.424.224.874.4,1.324a29.9,29.9,0,0,0,1.3,3.347,12.634,12.634,0,0,0,.923,1.549c.2.274.55.4.624.849a7.13,7.13,0,0,0-.574,1.873,11,11,0,0,0,.724,8.389c.4.624,1.343,2,2.623,1.473,1.124-.449.873-1.873,1.2-3.121.076-.3.025-.5.175-.7v.05l1.024,2.072a14.276,14.276,0,0,0,3.246,3.347c.6.449,1.073,1.224,1.822,1.5v-.076h-.049a2.779,2.779,0,0,0-.575-.5,12.162,12.162,0,0,1-1.3-1.5,32.185,32.185,0,0,1-2.8-4.545c-.4-.774-.75-1.623-1.073-2.4-.151-.3-.151-.75-.4-.9a9.429,9.429,0,0,0-1.2,1.7,14.055,14.055,0,0,0-.7,3.77c-.1.025-.056,0-.1.05-.8-.2-1.073-1.024-1.373-1.723a10.8,10.8,0,0,1-.225-6.667c.175-.524.925-2.173.625-2.672-.151-.475-.649-.749-.925-1.124a10.088,10.088,0,0,1-.9-1.6c-.6-1.4-.9-2.947-1.548-4.345a13.335,13.335,0,0,0-1.249-1.922A12.4,12.4,0,0,1,63.3,4.441c-.125-.274-.3-.724-.1-1.024a.4.4,0,0,1,.349-.325c.325-.274,1.249.075,1.574.224a12.794,12.794,0,0,1,2.471,1.248c.35.25.725.724,1.174.85h.525c.8.175,1.7.05,2.446.274a15.989,15.989,0,0,1,3.6,1.724,22.148,22.148,0,0,1,7.791,8.541c.3.574.424,1.1.7,1.7.525,1.224,1.174,2.472,1.7,3.671A16.463,16.463,0,0,0,87.3,24.669c.375.524,1.873.8,2.547,1.073a17.706,17.706,0,0,1,1.724.7c.848.524,1.7,1.124,2.5,1.7.4.3,1.648.923,1.723,1.422ZM70.322,7.86a3.968,3.968,0,0,0-1.023.125v.05h.049a8.059,8.059,0,0,0,.8,1.024l.575,1.2.049-.05A1.408,1.408,0,0,0,71.3,8.96a5.56,5.56,0,0,1-.3-.524c-.15-.25-.475-.375-.675-.574Z" transform="translate(0)" fill="#00678c" fill-rule="evenodd"/>
    <path id="Path_31" data-name="Path 31" d="M3.212,18.82H12.6a7.125,7.125,0,0,0,3-.624c1.423-.649,2.1-1.522,2.1-2.671v-2.4c0-.923-.774-1.8-2.322-2.4a8.175,8.175,0,0,0-2.772-.475H8.655c-1.324,0-1.948-.4-2.123-1.273a1.23,1.23,0,0,1-.025-.3V7.21a1.128,1.128,0,0,1,.025-.274c.175-.674.524-.85,1.679-.974h9.613V3.789H8.686a8.451,8.451,0,0,0-2.647.275c-1.923.6-2.772,1.548-2.772,3.22v1.9c0,1.472,1.648,2.722,4.445,3.021.3.025.624.025.949.025h3.371a1.514,1.514,0,0,1,.349.025c1.024.1,1.474.274,1.773.648a.759.759,0,0,1,.25.6v1.9a1.11,1.11,0,0,1-.449.774,2.33,2.33,0,0,1-1.4.449c-.125,0-.2.025-.325.025H3.212ZM38.02,15.05c0,2.222,1.679,3.47,5.02,3.721.325.025.624.049.949.049h8.49V16.649H43.915c-1.9,0-2.623-.475-2.623-1.623V3.789H38.014V15.051Zm-18.254.1V7.409c0-1.973,1.4-3.172,4.121-3.546.3-.025.6-.05.873-.05h6.192c.325,0,.6.025.925.05,2.722.374,4.095,1.573,4.095,3.546v7.74a2.849,2.849,0,0,1-1.923,3.022l3.2,2.9h-3.77l-2.6-2.347-2.623.15h-3.5a7.645,7.645,0,0,1-1.9-.249c-2.071-.575-3.095-1.673-3.095-3.472Zm3.52-.173a2.812,2.812,0,0,0,.076.325c.175.9,1.023,1.4,2.322,1.4h2.947l-2.7-2.447H29.7L32.076,16.4A1.561,1.561,0,0,0,32.9,15.35a1.407,1.407,0,0,0,.025-.325V7.608a1.208,1.208,0,0,0-.025-.3c-.175-.848-1.023-1.322-2.3-1.322H25.685c-1.448,0-2.4.624-2.4,1.622Z" transform="translate(40.437 29.392)" fill="#ce8b2c" fill-rule="evenodd"/>
  </g>
</svg>
