<svg xmlns="http://www.w3.org/2000/svg" width="27.887" height="31.998" viewBox="0 0 27.887 31.998">
  <g id="nginx-icon" transform="translate(33.443 -26)">
    <path id="Path_12" data-name="Path 12" d="M-33.442,42.023V34.386a.68.68,0,0,1,.385-.651l13.173-7.608a.674.674,0,0,1,.74-.03l13.232,7.637a.71.71,0,0,1,.355.651V49.63a.71.71,0,0,1-.355.651l-11.367,6.57q-.893.535-1.806,1.036a.776.776,0,0,1-.8,0l-13.2-7.608a.665.665,0,0,1-.355-.622V42.02Z" fill="#009438"/>
    <path id="Path_13" data-name="Path 13" d="M-24.118,39.18v8.9a1.84,1.84,0,0,1-1.865,1.865,1.739,1.739,0,0,1-1.5-.858,1.537,1.537,0,0,1-.237-.888V35.836a1.787,1.787,0,0,1,1.154-1.687,2.774,2.774,0,0,1,1.954,0,3.088,3.088,0,0,1,1.5,1.036l7.874,9.443c.03.03.06.09.118.148v-9A1.725,1.725,0,0,1-13.55,34a1.79,1.79,0,0,1,2.042,1.54v12.6a1.662,1.662,0,0,1-.918,1.54,2.6,2.6,0,0,1-1.42.266,3.23,3.23,0,0,1-1.954-.829,11.087,11.087,0,0,1-.77-.888l-7.49-8.97c0-.03-.03-.06-.06-.09Z" fill="#fefefe"/>
  </g>
</svg>
