<svg xmlns="http://www.w3.org/2000/svg" xmlns:xlink="http://www.w3.org/1999/xlink" width="94.971" height="52.692" viewBox="0 0 94.971 52.692">
  <defs>
    <clipPath id="clip-path">
      <path id="Path_5" data-name="Path 5" d="M1.9-26.346c0,13.063,20.41,23.653,45.586,23.653s45.586-10.59,45.586-23.653S72.661-50,47.485-50,1.9-39.409,1.9-26.346"/>
    </clipPath>
    <radialGradient id="radial-gradient" cx="0.628" cy="0.8" r="1.248" gradientTransform="translate(-0.009 0.511) scale(0.526 1)" gradientUnits="objectBoundingBox">
      <stop offset="0" stop-color="#aeb2d5"/>
      <stop offset="0.3" stop-color="#aeb2d5"/>
      <stop offset="0.75" stop-color="#484c89"/>
      <stop offset="1" stop-color="#484c89"/>
    </radialGradient>
    <clipPath id="clip-path-2">
      <path id="Path_7" data-name="Path 7" d="M0-52.692H94.971V0H0Z"/>
    </clipPath>
  </defs>
  <g id="php-ar21" transform="translate(0 52.692)">
    <g id="Group_1" data-name="Group 1" clip-path="url(#clip-path)">
      <path id="Path_4" data-name="Path 4" d="M1.9-26.346c0,13.063,20.41,23.653,45.586,23.653s45.586-10.59,45.586-23.653S72.661-50,47.485-50,1.9-39.409,1.9-26.346" fill="url(#radial-gradient)"/>
    </g>
    <g id="Group_2" data-name="Group 2" clip-path="url(#clip-path-2)">
      <path id="Path_6" data-name="Path 6" d="M47.485-4.45c24.193,0,43.805-9.8,43.805-21.9s-19.612-21.9-43.805-21.9S3.68-38.439,3.68-26.346,23.293-4.45,47.485-4.45" fill="#777bb3"/>
    </g>
    <g id="Group_3" data-name="Group 3" clip-path="url(#clip-path-2)">
      <path id="Path_8" data-name="Path 8" d="M26.667-23.631a7.347,7.347,0,0,0,4.414-1.075,5.8,5.8,0,0,0,1.908-3.635c.314-1.595.194-2.708-.355-3.309s-1.776-.925-3.61-.925H25.845l-1.763,8.945h2.584Zm-10.4,11.018a.5.5,0,0,1-.382-.178.483.483,0,0,1-.1-.4l4.671-23.7a.493.493,0,0,1,.486-.395H31.006c3.164,0,5.519.846,7,2.519s1.948,4.029,1.366,6.98a11.052,11.052,0,0,1-1.21,3.319,11.147,11.147,0,0,1-2.228,2.753,9.8,9.8,0,0,1-3.666,2.167,16.821,16.821,0,0,1-5.037.639H23.154L21.99-13.008a.493.493,0,0,1-.485.395H16.269Z"/>
      <path id="Path_9" data-name="Path 9" d="M26.253-32.088h2.771c2.213,0,2.982.479,3.243.764.433.474.515,1.473.237,2.889a5.341,5.341,0,0,1-1.724,3.341,6.892,6.892,0,0,1-4.112.974H24.683l1.57-7.969Zm4.753-5.692H20.94a.986.986,0,0,0-.971.789L15.3-13.287a.966.966,0,0,0,.208.807,1,1,0,0,0,.763.355H21.5a.986.986,0,0,0,.971-.79l1.086-5.512H27.23a17.313,17.313,0,0,0,5.19-.663,10.3,10.3,0,0,0,3.851-2.274,11.6,11.6,0,0,0,2.322-2.872A11.577,11.577,0,0,0,39.857-27.7c.613-3.107.115-5.595-1.479-7.394-1.578-1.782-4.058-2.686-7.371-2.686M23.483-23.143h3.184a7.768,7.768,0,0,0,4.716-1.176,6.226,6.226,0,0,0,2.092-3.929q.519-2.642-.473-3.729t-3.977-1.086H25.438l-1.955,9.92M31.007-36.8q4.543,0,6.626,2.352t1.253,6.566a10.523,10.523,0,0,1-1.157,3.175A10.606,10.606,0,0,1,35.6-22.08a9.277,9.277,0,0,1-3.484,2.062,16.254,16.254,0,0,1-4.884.615H22.746L21.5-13.1H16.27l4.67-23.7H31.007" fill="#fff"/>
      <path id="Path_10" data-name="Path 10" d="M51.374-18.915a.5.5,0,0,1-.382-.178.483.483,0,0,1-.1-.4l2.066-10.488c.2-1,.148-1.713-.136-2.016-.174-.185-.7-.5-2.244-.5H46.831l-2.6,13.185a.493.493,0,0,1-.486.395H38.554a.5.5,0,0,1-.382-.178.483.483,0,0,1-.1-.4L42.74-43.2a.493.493,0,0,1,.486-.395h5.194a.5.5,0,0,1,.382.178.483.483,0,0,1,.1.4l-1.127,5.721H51.8c3.068,0,5.148.533,6.359,1.631,1.237,1.12,1.62,2.909,1.145,5.321L57.136-19.31a.493.493,0,0,1-.486.395H51.374Z"/>
      <path id="Path_11" data-name="Path 11" d="M48.419-44.082H43.225a.986.986,0,0,0-.971.79l-4.671,23.7a.966.966,0,0,0,.208.807,1,1,0,0,0,.763.355h5.194a.986.986,0,0,0,.971-.79l2.52-12.79h3.336c1.544,0,1.868.325,1.881.339.094.1.217.559.014,1.591L50.4-19.589a.966.966,0,0,0,.208.807,1,1,0,0,0,.763.355H56.65a.986.986,0,0,0,.971-.79l2.173-11.03c.51-2.589.074-4.532-1.3-5.773C57.191-37.2,55-37.78,51.8-37.78H48.377l1.013-5.14a.966.966,0,0,0-.208-.807,1,1,0,0,0-.763-.355m0,.976-1.242,6.3H51.8q4.367,0,6.025,1.5t.995,4.869L56.651-19.4H51.374L53.44-29.891q.353-1.79-.26-2.441a3.686,3.686,0,0,0-2.606-.651H46.424L43.748-19.4H38.555l4.671-23.7h5.194" fill="#fff"/>
      <path id="Path_12" data-name="Path 12" d="M67.527-23.631a7.347,7.347,0,0,0,4.414-1.075,5.8,5.8,0,0,0,1.908-3.635c.314-1.595.194-2.708-.355-3.309s-1.776-.925-3.61-.925H66.7l-1.763,8.945h2.584Zm-10.4,11.018a.5.5,0,0,1-.382-.178.483.483,0,0,1-.1-.4l4.671-23.7a.493.493,0,0,1,.486-.395H71.866c3.164,0,5.519.846,7,2.519s1.947,4.028,1.366,6.98a11.057,11.057,0,0,1-1.211,3.319,11.147,11.147,0,0,1-2.228,2.753,9.8,9.8,0,0,1-3.666,2.167,16.821,16.821,0,0,1-5.037.639H64.013l-1.164,5.907a.493.493,0,0,1-.486.395H57.129Z"/>
      <path id="Path_13" data-name="Path 13" d="M67.113-32.088h2.771c2.213,0,2.982.479,3.243.764.434.474.515,1.473.237,2.889a5.343,5.343,0,0,1-1.724,3.341,6.892,6.892,0,0,1-4.112.974H65.543l1.57-7.969Zm4.753-5.692H61.8a.986.986,0,0,0-.971.789l-4.671,23.7a.966.966,0,0,0,.208.807,1,1,0,0,0,.763.355h5.235a.986.986,0,0,0,.971-.79l1.086-5.512H68.09a17.313,17.313,0,0,0,5.19-.663,10.3,10.3,0,0,0,3.851-2.275,11.625,11.625,0,0,0,2.321-2.871A11.532,11.532,0,0,0,80.717-27.7c.613-3.107.115-5.595-1.479-7.394-1.578-1.782-4.058-2.686-7.371-2.686M64.343-23.143h3.184a7.768,7.768,0,0,0,4.716-1.176,6.226,6.226,0,0,0,2.092-3.929q.52-2.642-.473-3.729t-3.977-1.086H66.3l-1.955,9.92M71.867-36.8q4.543,0,6.626,2.352t1.253,6.566a10.522,10.522,0,0,1-1.157,3.175,10.606,10.606,0,0,1-2.131,2.632,9.277,9.277,0,0,1-3.484,2.062,16.254,16.254,0,0,1-4.884.615H63.606l-1.242,6.3H57.13L61.8-36.8H71.867" fill="#fff"/>
    </g>
  </g>
</svg>
