<svg xmlns="http://www.w3.org/2000/svg" width="96.184" height="80.977" viewBox="0 0 96.184 80.977">
  <g id="postgresql-vertical" transform="translate(-5.195 -5.898)">
    <path id="Path_32" data-name="Path 32" d="M11.2,78.9H6.542v-4.26h4.92q2.7,0,2.7,2.163,0,2.1-2.955,2.1m3.354-4.3a4.146,4.146,0,0,0-2.684-.78l-6.684.034v10.2H6.542L6.53,79.718H11.5a4.922,4.922,0,0,0,2.945-.78,2.526,2.526,0,0,0,1.075-2.163,2.632,2.632,0,0,0-.96-2.163Zm8.717,7.3a2.09,2.09,0,0,1-.639.867,4.068,4.068,0,0,1-2.76.8,3.808,3.808,0,0,1-2.574-.78,2.624,2.624,0,0,1-.9-2.085,2.931,2.931,0,0,1,.235-1.207,2.4,2.4,0,0,1,.68-.89,3.9,3.9,0,0,1,2.557-.768q3.606,0,3.606,2.864a3.256,3.256,0,0,1-.2,1.2m.244-3.76a5.6,5.6,0,0,0-3.645-1.02,5.346,5.346,0,0,0-3.524,1.04,3.424,3.424,0,0,0,.038,5.1,3.99,3.99,0,0,0,1.491.761,7.533,7.533,0,0,0,2,.235,5.734,5.734,0,0,0,3.657-1.008,3.462,3.462,0,0,0-.013-5.115Zm10.186,4.057q0,2.058-4.063,2.057a12.933,12.933,0,0,1-2.092-.143,3.79,3.79,0,0,1-1.38-.474,1.818,1.818,0,0,1-.65-.657,2.75,2.75,0,0,1-.313-1.018l1.26-.01a1.281,1.281,0,0,0,.662,1.193,4.926,4.926,0,0,0,2.515.46c1.893,0,2.84-.43,2.84-1.3q0-.754-.952-1.04c-.13-.037-.894-.133-2.3-.3l-2.622-.42a1.474,1.474,0,0,1-1.12-1.456,1.627,1.627,0,0,1,1-1.532,5.29,5.29,0,0,1,1.237-.323,11.314,11.314,0,0,1,1.72-.115c2.607,0,3.9.742,3.9,2.227h-1.2q0-1.564-2.75-1.565a5.23,5.23,0,0,0-2.086.317,1.03,1.03,0,0,0-.687.974c0,.4.3.7.928.886a20.592,20.592,0,0,0,2.5.328,9.421,9.421,0,0,1,2.4.4A1.556,1.556,0,0,1,33.7,82.174ZM38.66,84.05l-.513.065-.32.022a3.635,3.635,0,0,1-1.775-.324,1.21,1.21,0,0,1-.544-1.135v-4.65H34.013v-.684H35.5l.012-2.2h1.15v2.2h2v.695l-2-.01v4.524a.767.767,0,0,0,.3.7,2.075,2.075,0,0,0,1.055.192,1.036,1.036,0,0,0,.24-.007c.087-.012.22-.04.4-.082l.012.7Zm7.947-1.542a3.52,3.52,0,0,1-1.073.536,4.706,4.706,0,0,1-1.386.186q-3.6,0-3.6-2.7a2.344,2.344,0,0,1,.922-1.968,4.176,4.176,0,0,1,2.6-.7,3.959,3.959,0,0,1,2.56.716A2.36,2.36,0,0,1,47.5,80.5a2.435,2.435,0,0,1-.892,2.023m2.04-5.16H47.5l-.012,1.15a7.469,7.469,0,0,0-1.085-.886,5.611,5.611,0,0,0-2.5-.48,5.38,5.38,0,0,0-3.425.93,2.918,2.918,0,0,0-1.122,2.472,3.436,3.436,0,0,0,.284,1.427,2.86,2.86,0,0,0,.827,1.066,5.465,5.465,0,0,0,3.346.9,4.557,4.557,0,0,0,3.684-1.3v1.2a2.1,2.1,0,0,1-.8,1.762,4.254,4.254,0,0,1-2.6.624,5.068,5.068,0,0,1-2.424-.425,1.79,1.79,0,0,1-.748-1.133H39.747a2.217,2.217,0,0,0,1.05,1.63,7.025,7.025,0,0,0,3.342.58q4.5,0,4.5-3.036v-6.5Zm6.217.675a6.64,6.64,0,0,0-.964-.076,2.5,2.5,0,0,0-2.832,2.82v3.268H49.93l-.012-6.687,1.15.01v1.193h.06a2.13,2.13,0,0,1,.916-1.069,4.639,4.639,0,0,1,2.05-.353h.77v.895ZM55.93,80.27a2.9,2.9,0,0,1,.976-1.765,3.587,3.587,0,0,1,1.12-.543,5.042,5.042,0,0,1,1.4-.18,3.925,3.925,0,0,1,2.5.762,2.184,2.184,0,0,1,.97,1.727h-6.98m7.092-2.063a3.753,3.753,0,0,0-1.5-.812,7.476,7.476,0,0,0-2.087-.264,5.57,5.57,0,0,0-3.464.942,3.053,3.053,0,0,0-1.23,2.563,3.13,3.13,0,0,0,1.182,2.573,5.538,5.538,0,0,0,3.607,1.05,6.879,6.879,0,0,0,1.72-.2,5.261,5.261,0,0,0,1.38-.54,2.936,2.936,0,0,0,1.315-1.668H62.693q-.639,1.714-3.183,1.715a4.07,4.07,0,0,1-2.76-.84,2.347,2.347,0,0,1-.832-1.863h8.2a3.369,3.369,0,0,0-1.1-2.668Z" fill="#231f20"/>
    <path id="Path_33" data-name="Path 33" d="M76.258,81.305q0,2.978-5.294,2.978a8.18,8.18,0,0,1-4.63-1.026,2.937,2.937,0,0,1-1.194-2.572h1.42q0,2.779,4.4,2.78a6.266,6.266,0,0,0,3.053-.57,1.729,1.729,0,0,0,.8-1.575,1.51,1.51,0,0,0-1.086-1.487,19.539,19.539,0,0,0-3-.58,16.976,16.976,0,0,1-3.9-.83,2.135,2.135,0,0,1-1.3-2.078,2.219,2.219,0,0,1,1.1-2.034,8.162,8.162,0,0,1,4.054-.733q5.19,0,5.188,3.127H74.432q0-2.343-3.852-2.342a6.385,6.385,0,0,0-2.826.47,1.618,1.618,0,0,0-.845,1.478A1.466,1.466,0,0,0,68,77.745a21.713,21.713,0,0,0,3.4.668,12.613,12.613,0,0,1,3.584.843A2.083,2.083,0,0,1,76.248,81.3ZM87.8,82.318a5.75,5.75,0,0,1-1.8.869,8.074,8.074,0,0,1-2.246.3,6.386,6.386,0,0,1-4.1-1.24,4.362,4.362,0,0,1,0-6.672,6.527,6.527,0,0,1,4.112-1.2,6.129,6.129,0,0,1,4.082,1.257A3.93,3.93,0,0,1,89,77.062a4.3,4.3,0,0,1,.374,1.87,4.091,4.091,0,0,1-1.57,3.387m.755.676a4.593,4.593,0,0,0,1.642-1.722,4.951,4.951,0,0,0,.532-2.335A4.688,4.688,0,0,0,89,75.132a6.029,6.029,0,0,0-2.244-1.17,10.775,10.775,0,0,0-3-.383A8.231,8.231,0,0,0,78.6,75.023a4.985,4.985,0,0,0,.017,7.8A8.163,8.163,0,0,0,83.773,84.3,13.83,13.83,0,0,0,86,84.139a5.866,5.866,0,0,0,1.617-.482l2.1,1.32.876-.73L88.564,83Zm12.8,1.04H91.66v-10.2l1.334-.022v9.37h8.385Z" fill="#367faf"/>
    <path id="Path_34" data-name="Path 34" d="M67.546,49.655c.382-3.185.268-3.652,2.64-3.136l.6.053a13.74,13.74,0,0,0,5.612-.945c3.018-1.4,4.807-3.738,1.832-3.124-6.787,1.4-7.254-.9-7.254-.9,7.167-10.634,10.163-24.134,7.577-27.44C71.5,5.152,59.292,9.415,59.087,9.525l-.065.012a24.286,24.286,0,0,0-4.528-.472,11.19,11.19,0,0,0-7.17,2.146S25.544,2.237,26.556,22.5c.216,4.3,6.178,32.612,13.288,24.063,2.6-3.126,5.11-5.77,5.11-5.77a6.594,6.594,0,0,0,4.306,1.1l.12-.1A4.789,4.789,0,0,0,49.428,43c-1.832,2.047-1.293,2.406-4.956,3.16-3.7.764-1.528,2.123-.107,2.478a7.53,7.53,0,0,0,8.4-2.73l-.107.43c.72.575.67,4.132.772,6.673a23.556,23.556,0,0,0,.8,6.312c.528,1.4,1.13,5,5.943,3.968,4.023-.862,7.1-2.1,7.38-13.644" fill="#231f20" stroke="#231f20" stroke-width="5.046"/>
    <path id="Path_35" data-name="Path 35" d="M78.233,42.5c-6.788,1.4-7.255-.9-7.255-.9,7.167-10.635,10.163-24.135,7.578-27.44C71.5,5.153,59.292,9.415,59.088,9.525l-.066.012a24.29,24.29,0,0,0-4.53-.472,11.194,11.194,0,0,0-7.17,2.146S25.54,2.238,26.552,22.5c.215,4.3,6.177,32.612,13.288,24.064,2.6-3.126,5.1-5.77,5.1-5.77a6.594,6.594,0,0,0,4.306,1.1l.122-.1A4.7,4.7,0,0,0,49.418,43c-1.832,2.047-1.294,2.406-4.956,3.16-3.706.764-1.53,2.123-.108,2.478a7.53,7.53,0,0,0,8.4-2.73l-.107.43c.718.575,1.222,3.74,1.137,6.608s-.14,4.838.425,6.377,1.13,5,5.944,3.968c4.023-.862,6.107-3.1,6.4-6.822.206-2.65.67-2.258.7-4.626l.374-1.12c.43-3.59.068-4.75,2.547-4.21l.6.053a13.719,13.719,0,0,0,5.613-.945c3.017-1.4,4.807-3.738,1.832-3.124Z" fill="#417ba2"/>
    <g id="Group_3" data-name="Group 3">
      <g id="Group_1" data-name="Group 1">
        <path id="Path_36" data-name="Path 36" d="M53.06,44.562c-.187,6.682.047,13.4.7,15.046s2.054,4.816,6.87,3.785c4.022-.862,5.486-2.53,6.12-6.214.468-2.7,1.37-10.236,1.485-11.778M47.3,11.063s-21.8-8.9-20.783,11.35c.216,4.3,6.178,32.613,13.3,24.064,2.6-3.126,4.95-5.578,4.95-5.578m14.3-31.462c-.755.237,12.125-4.708,19.444,4.644,2.585,3.3-.4,16.8-7.578,27.44" fill="none" stroke="#fff" stroke-linecap="round" stroke-linejoin="round" stroke-width="1.682"/>
        <path id="Path_37" data-name="Path 37" d="M70.93,41.52s.467,2.3,7.255.9c2.974-.614,1.184,1.724-1.832,3.125-2.476,1.15-8.026,1.443-8.117-.144-.234-4.1,2.92-2.852,2.694-3.878-.206-.924-1.617-1.832-2.55-4.094-.815-1.975-11.173-17.12,2.873-14.87.515-.106-3.663-13.36-16.808-13.575s-12.7,16.162-12.7,16.162" fill="none" stroke="#fff" stroke-linecap="round" stroke-linejoin="bevel" stroke-width="1.682"/>
      </g>
      <g id="Group_2" data-name="Group 2">
        <path id="Path_38" data-name="Path 38" d="M49.383,42.922c-1.832,2.047-1.293,2.406-4.956,3.16-3.7.764-1.528,2.123-.108,2.478a7.526,7.526,0,0,0,8.4-2.73,2.516,2.516,0,0,0-1.13-3.448,1.664,1.664,0,0,0-2.208.54Z" fill="none" stroke="#fff" stroke-linejoin="round" stroke-width="1.682"/>
        <path id="Path_39" data-name="Path 39" d="M49.262,42.886c-.184-1.2.4-2.635,1.017-4.31.934-2.513,3.09-5.028,1.365-13-1.285-5.942-9.9-1.237-9.91-.43a39.65,39.65,0,0,1-.144,7.9c-.7,4.98,3.17,9.194,7.622,8.763" fill="none" stroke="#fff" stroke-linecap="round" stroke-linejoin="round" stroke-width="1.682"/>
      </g>
    </g>
    <g id="Group_4" data-name="Group 4">
      <path id="Path_40" data-name="Path 40" d="M47.212,25.023c-.04.275.5,1.01,1.21,1.108a1.308,1.308,0,0,0,1.35-.75c.04-.275-.5-.578-1.21-.677s-1.312.045-1.35.32Z" fill="#fff" stroke="#fff" stroke-width="0.561"/>
      <path id="Path_41" data-name="Path 41" d="M68.725,24.462c.038.275-.5,1-1.21,1.108a1.3,1.3,0,0,1-1.35-.75c-.04-.275.5-.578,1.212-.677s1.31.045,1.35.32Z" fill="#fff" stroke="#fff" stroke-width="0.28"/>
    </g>
    <path id="Path_42" data-name="Path 42" d="M71.253,22.557c.116,2.158-.465,3.63-.538,5.927-.11,3.34,1.592,7.162-.97,10.99" fill="none" stroke="#fff" stroke-linecap="round" stroke-linejoin="round" stroke-width="1.682"/>
  </g>
</svg>
