<svg xmlns="http://www.w3.org/2000/svg" width="32" height="27.426" viewBox="0 0 32 27.426">
  <g id="redis-icon" transform="translate(-7.884 -11.736)">
    <path id="Path_3" data-name="Path 3" d="M38.63,32.885c-1.708.891-10.553,4.528-12.437,5.509s-2.929.972-4.417.261-10.9-4.513-12.6-5.324c-.848-.406-1.293-.747-1.293-1.069V29.027s12.256-2.668,14.235-3.378,2.664-.736,4.349-.119,11.752,2.433,13.415,3.043v3.19c0,.32-.383.679-1.253,1.123Z" fill="#a41e11"/>
    <path id="Path_4" data-name="Path 4" d="M38.63,29.649c-1.708.891-10.553,4.528-12.437,5.509s-2.929.972-4.417.261-10.9-4.513-12.6-5.324-1.731-1.368-.065-2.021l13.007-5.036c1.978-.709,2.664-.736,4.349-.119s10.477,4.116,12.14,4.735,1.728,1.111.02,2Z" fill="#d82c20"/>
    <path id="Path_5" data-name="Path 5" d="M38.63,32.885c-1.708.891-10.553,4.528-12.437,5.509s-2.929.972-4.417.261-10.9-4.513-12.6-5.324c-.848-.406-1.293-.747-1.293-1.069V29.027s12.256-2.668,14.235-3.378,2.664-.736,4.349-.119,11.752,2.433,13.415,3.043v3.19c0,.32-.383.679-1.253,1.123Z" transform="translate(0 -5.275)" fill="#a41e11"/>
    <path id="Path_6" data-name="Path 6" d="M38.63,24.375c-1.708.891-10.553,4.528-12.437,5.509s-2.929.972-4.417.261-10.9-4.513-12.6-5.324S7.447,23.453,9.113,22.8l13.007-5.035c1.978-.71,2.664-.736,4.349-.119s10.477,4.117,12.141,4.725,1.728,1.111.02,2Z" fill="#d82c20"/>
    <path id="Path_7" data-name="Path 7" d="M38.63,22.14c-1.708.891-10.553,4.528-12.437,5.51s-2.929.972-4.417.261-10.9-4.513-12.6-5.324c-.848-.406-1.293-.747-1.293-1.069V18.282S20.141,15.614,22.12,14.9s2.664-.736,4.349-.119,11.752,2.433,13.415,3.043v3.19c0,.32-.383.679-1.253,1.123Z" fill="#a41e11"/>
    <path id="Path_8" data-name="Path 8" d="M38.63,24.375c-1.708.891-10.553,4.528-12.437,5.509s-2.929.972-4.417.261-10.9-4.513-12.6-5.324S7.447,23.453,9.113,22.8l13.007-5.035c1.978-.71,2.664-.736,4.349-.119s10.477,4.117,12.141,4.725,1.728,1.111.02,2Z" transform="translate(0 -5.471)" fill="#d82c20"/>
    <g id="Group_1" data-name="Group 1">
      <path id="Path_9" data-name="Path 9" d="M24.683,17.571l-1-1.667-3.2-.288,2.389-.862-.717-1.323,2.236.874,2.109-.691-.57,1.368,2.15.806-2.772.288Zm-5.341,3.319,7.414-1.138-2.24,3.285Z" fill="#fff"/>
      <ellipse id="Ellipse_1" data-name="Ellipse 1" cx="3.963" cy="1.536" rx="3.963" ry="1.536" transform="translate(13.38 16.62)" fill="#fff"/>
    </g>
    <path id="Path_10" data-name="Path 10" d="M35.742,17.932l-4.386,1.732,0-3.467Z" fill="#7a0c00"/>
    <path id="Path_11" data-name="Path 11" d="M31.357,19.664l-.475.187L26.5,18.119,31.354,16.2Z" fill="#ad2115"/>
  </g>
</svg>
