<svg xmlns="http://www.w3.org/2000/svg" width="55.451" height="64" viewBox="0 0 55.451 64">
  <g id="sequelizejs-icon" transform="translate(-4.275)">
    <path id="Path_3" data-name="Path 3" d="M51.733,20.414V43.487L32.14,54.974l-.18.164v8.7l.18.164L59.726,48.065V15.935h-.263l-7.778,4.35v.18" fill="#2f406a"/>
    <path id="Path_4" data-name="Path 4" d="M12.48,43.65l19.692,11.4V64L4.357,48V16h.28L12.4,20.513l.082.263V43.75" fill="#2379bd"/>
    <path id="Path_5" data-name="Path 5" d="M12.48,20.726,4.275,16l27.8-16,27.65,15.934-7.992,4.48L32.04,9.206,12.447,20.693" fill="#03afef"/>
    <path id="Path_6" data-name="Path 6" d="M31.8,41.01l-.213-.213V32.149l.213-.115v-.213l7.417-4.332h.23v8.927l-7.7,4.562" fill="#2f406a"/>
    <path id="Path_7" data-name="Path 7" d="M23.967,36.743V27.47h.213l7.55,4.4v9.157L23.9,36.742" fill="#2379bd"/>
    <path id="Path_8" data-name="Path 8" d="M31.664,22.925l-7.7,4.562L31.8,32l7.7-4.5-7.828-4.628" fill="#03afef"/>
    <path id="Path_9" data-name="Path 9" d="M22.21,46.67,22,46.457V37.792l.213-.115v-.213l7.417-4.332h.23v8.927l-7.7,4.562" fill="#2f406a"/>
    <path id="Path_10" data-name="Path 10" d="M14.384,42.388V33.116H14.6l7.55,4.4v9.157l-7.762-4.283" fill="#2379bd"/>
    <path id="Path_11" data-name="Path 11" d="M22.1,28.57l-7.713,4.546,7.828,4.562,7.7-4.5-7.828-4.628" fill="#03afef"/>
    <path id="Path_12" data-name="Path 12" d="M42.068,46.884l-.213-.213V38.006l.213-.115v-.213l7.417-4.332h.23v8.927l-7.7,4.562" fill="#2f406a"/>
    <path id="Path_13" data-name="Path 13" d="M34.24,42.6V33.33h.246l7.55,4.4v9.157L34.207,42.6" fill="#2379bd"/>
    <path id="Path_14" data-name="Path 14" d="M41.936,28.718l-7.7,4.562,7.828,4.562,7.7-4.5-7.828-4.628" fill="#03afef"/>
    <path id="Path_15" data-name="Path 15" d="M32.484,52.53l-.213-.213V43.65l.213-.115v-.213L39.9,38.99h.23v8.927l-7.7,4.562" fill="#2f406a"/>
    <path id="Path_16" data-name="Path 16" d="M24.64,48.246V38.99h.213l7.55,4.4v9.157l-7.762-4.3" fill="#2379bd"/>
    <path id="Path_17" data-name="Path 17" d="M32.353,34.43,24.64,38.99l7.844,4.5,7.7-4.5-7.828-4.562" fill="#03afef"/>
    <path id="Path_18" data-name="Path 18" d="M31.8,28.718l-.213-.213V19.873l.213-.115v-.213l7.417-4.332h.23V24.14l-7.647,4.578" fill="#2f406a"/>
    <path id="Path_19" data-name="Path 19" d="M23.967,24.468V15.2h.213l7.55,4.4v9.124L23.9,24.435" fill="#2379bd"/>
    <path id="Path_20" data-name="Path 20" d="M31.664,10.667l-7.7,4.562L31.8,19.791l7.7-4.5-7.828-4.628" fill="#03afef"/>
    <path id="Path_21" data-name="Path 21" d="M22.21,34.38,22,34.167v-8.73l.213-.115v-.213l7.417-4.332h.23V29.7l-7.7,4.562" fill="#2f406a"/>
    <path id="Path_22" data-name="Path 22" d="M14.384,30.113V20.84H14.6l7.55,4.4v9.157l-7.762-4.283" fill="#2379bd"/>
    <path id="Path_23" data-name="Path 23" d="M22.1,16.3l-7.713,4.546,7.828,4.595,7.7-4.5-7.828-4.628" fill="#03afef"/>
    <path id="Path_24" data-name="Path 24" d="M42.068,34.593l-.213-.213V25.73l.213-.115V25.4l7.417-4.332h.23V30l-7.7,4.562" fill="#2f406a"/>
    <path id="Path_25" data-name="Path 25" d="M34.24,30.36V21.055h.246L42,25.437v9.157L34.24,30.36" fill="#2379bd"/>
    <path id="Path_26" data-name="Path 26" d="M41.936,16.51l-7.7,4.56,7.828,4.562,7.7-4.5-7.828-4.628" fill="#03afef"/>
    <path id="Path_27" data-name="Path 27" d="M32.484,40.205l-.213-.213V31.377l.213-.115v-.213L39.9,26.717h.23v8.927l-7.647,4.562" fill="#2f406a"/>
    <path id="Path_28" data-name="Path 28" d="M24.64,35.97V26.7h.213l7.55,4.4v9.108L24.64,35.97" fill="#2379bd"/>
    <path id="Path_29" data-name="Path 29" d="M32.353,22.154,24.64,26.7l7.828,4.562,7.7-4.5-7.81-4.61" fill="#03afef"/>
  </g>
</svg>
